<svg xmlns="http://www.w3.org/2000/svg" xmlns:xlink="http://www.w3.org/1999/xlink" viewBox="0 0 400.97 458.7"><defs><clipPath id="a" transform="translate(-25.92 -49.11)"><path d="M228.48,431.45v-.06l1.41-7.1s-3.14-7.25-13.71-6.37-11.87,3.31-13.6,6.22l1,4.64-2,1.26s-.71-2.12-1.82-2.2c0,0,1.65-2.37.47-4s-7.49-1.5-9.92,6.84c0,0-.32-2.52-1.35-2.52s-4.81,1.37-3.79,5.3,4.58,5.11,5.75,5.6a2,2,0,0,1,.32,1.65c-.13.49-3,9.32-.6,17.49,1.78,6.1,7.49,11.4,7.49,11.4a24.12,24.12,0,0,0,16.68,6.69,24.56,24.56,0,0,0,13.6-44.83Z" style="fill:none"/></clipPath></defs><title>Asset 1</title><line x1="259.3" y1="47.04" x2="297.97" y2="47.04" style="fill:none;stroke:#ffdf19;stroke-linecap:round;stroke-miterlimit:10;stroke-width:10px"/><line x1="145" y1="67.04" x2="267.97" y2="67.04" style="fill:none;stroke:#ffdf19;stroke-linecap:round;stroke-miterlimit:10;stroke-width:10px"/><line x1="85" y1="217.04" x2="207.97" y2="217.04" style="fill:none;stroke:#ffdf19;stroke-linecap:round;stroke-miterlimit:10;stroke-width:10px"/><line x1="255" y1="97.04" x2="377.97" y2="97.04" style="fill:none;stroke:#ffdf19;stroke-linecap:round;stroke-miterlimit:10;stroke-width:10px"/><line x1="5" y1="137.04" x2="127.97" y2="137.04" style="fill:none;stroke:#ffdf19;stroke-linecap:round;stroke-miterlimit:10;stroke-width:10px"/><line x1="65" y1="157.04" x2="187.97" y2="157.04" style="fill:none;stroke:#ffdf19;stroke-linecap:round;stroke-miterlimit:10;stroke-width:10px"/><line x1="40.97" y1="47.04" x2="242.87" y2="47.04" style="fill:none;stroke:#ffdf19;stroke-linecap:round;stroke-miterlimit:10;stroke-width:10px"/><line x1="25.97" y1="47.04" x2="25.97" y2="47.04" style="fill:none;stroke:#ffdf19;stroke-linecap:round;stroke-miterlimit:10;stroke-width:10px"/><line x1="395.97" y1="97.04" x2="395.97" y2="97.04" style="fill:none;stroke:#ffdf19;stroke-linecap:round;stroke-miterlimit:10;stroke-width:10px"/><path d="M353.3,91l-1.65-1.92-1.1-1.1c-1.65-1.37-3.56-3-5.48-4.39-21.93-17-45.79-21.66-71-14-26.87,8.5-45.51,26-54.84,51.55a85.21,85.21,0,0,0-32.9-6.85h-4.11a58.41,58.41,0,0,0-6.85.82c-27.69,3.29-47.71,16.73-60,40-16.45,31.26-13.43,63.61,8.23,93.22C147.12,281,179.47,293.64,218.13,286c13.71-2.74,25,.55,34.27,10.69,13.71,14.26,27.42,28.24,39.21,39.76a13.33,13.33,0,0,0,7.68,3.56c.82,0,1.65.27,2.47.27,12.06,0,23.31-9,26-21.11,1.37-5.21,1.92-11.79-4.39-17.55-7.4-7.13-14.81-14.81-22.21-22.21-5.21-5.48-10.42-10.69-15.9-16.18-8.5-8.23-12.06-17.82-10.69-28.51l41.68.27c-8,8.77-11.52,20.84-11,37.29,0,3.84.27,7.68,0,11.52,3.84,4.11,8,8.23,12.06,12.06v-6.31c0-7.4.27-15.08.27-22.48,0-14,5.76-24.4,17.55-31.26A82.52,82.52,0,0,0,361,211.66C387.85,175.74,384,122.83,353.3,91Zm-136.82,179c-3.84,4.11-8,6-12.89,5.76h-5.76c-41.68-.27-76.77-34.82-79.79-78.42-2.47-35.37,24.68-67.17,60.59-70.46,24.68-2.19,49.35,8,66.9,27.42,15.63,17.27,23,39.21,20.56,62a13.58,13.58,0,0,1-3.84,8.5C247.19,239.08,231.57,254.43,216.49,270.06Zm64.43,5.76c5.76,5.48,11.52,11.52,17.27,17.27,2.47,2.74,5.21,5.21,7.68,8l2.74,2.74,6.58,6.58c3,3,1.65,8.23-3.29,13.16-4.66,4.66-9.87,6-12.89,2.74l-9.6-9.6c-8.5-8.77-17.55-17.55-26-26.6-10.14-10.69-20.56-16.45-32.08-17.27l31.26-31,.27.27v-.27C263.1,253.61,269.13,264.58,280.92,275.82Zm56.48-56.21c-2.74,2.19-5.21,3.29-8.77,3-16.45-.27-33.72-.27-51-.27a86.12,86.12,0,0,0,0-29.06c-4.39-28-22.48-52.37-46.61-66.35a84.4,84.4,0,0,1,15.35-25.5c23-26.87,64.71-29.89,92.12-7.13,19.19,15.9,29.34,40.58,28,66.63A80.18,80.18,0,0,1,337.4,219.61Z" transform="translate(-25.92 -49.11)" style="fill:#1c1c1c"/><path d="M353.3,91l-1.65-1.92-1.1-1.1c-1.65-1.37-3.56-3-5.48-4.39-21.93-17-45.79-21.66-71-14-26.87,8.5-45.51,26-54.84,51.55a85.21,85.21,0,0,0-32.9-6.85h-4.11a58.41,58.41,0,0,0-6.85.82c-27.69,3.29-47.71,16.73-60,40-16.45,31.26-13.43,63.61,8.23,93.22C147.12,281,179.47,293.64,218.13,286c13.71-2.74,25,.55,34.27,10.69,13.71,14.26,27.42,28.24,39.21,39.76a13.33,13.33,0,0,0,7.68,3.56c.82,0,1.65.27,2.47.27,12.06,0,23.31-9,26-21.11,1.37-5.21,1.92-11.79-4.39-17.55-7.4-7.13-14.81-14.81-22.21-22.21-5.21-5.48-10.42-10.69-15.9-16.18-8.5-8.23-12.06-17.82-10.69-28.51l41.68.27c-8,8.77-11.52,20.84-11,37.29,0,3.84.27,7.68,0,11.52,3.84,4.11,8,8.23,12.06,12.06v-6.31c0-7.4.27-15.08.27-22.48,0-14,5.76-24.4,17.55-31.26A82.52,82.52,0,0,0,361,211.66C387.85,175.74,384,122.83,353.3,91Zm-136.82,179c-3.84,4.11-8,6-12.89,5.76h-5.76c-41.68-.27-76.77-34.82-79.79-78.42-2.47-35.37,24.68-67.17,60.59-70.46,24.68-2.19,49.35,8,66.9,27.42,15.63,17.27,23,39.21,20.56,62a13.58,13.58,0,0,1-3.84,8.5C247.19,239.08,231.57,254.43,216.49,270.06Zm64.43,5.76c5.76,5.48,11.52,11.52,17.27,17.27,2.47,2.74,5.21,5.21,7.68,8l2.74,2.74,6.58,6.58c3,3,1.65,8.23-3.29,13.16-4.66,4.66-9.87,6-12.89,2.74l-9.6-9.6c-8.5-8.77-17.55-17.55-26-26.6-10.14-10.69-20.56-16.45-32.08-17.27l31.26-31,.27.27v-.27C263.1,253.61,269.13,264.58,280.92,275.82Zm56.48-56.21c-2.74,2.19-5.21,3.29-8.77,3-16.45-.27-33.72-.27-51-.27a86.12,86.12,0,0,0,0-29.06c-4.39-28-22.48-52.37-46.61-66.35a84.4,84.4,0,0,1,15.35-25.5c23-26.87,64.71-29.89,92.12-7.13,19.19,15.9,29.34,40.58,28,66.63A80.18,80.18,0,0,1,337.4,219.61Z" transform="translate(-25.92 -49.11)" style="fill:#1c1c1c"/><path d="M337.4,219.61c-2.74,2.19-5.21,3.29-8.77,3-16.45-.27-33.72-.27-51-.27a86.12,86.12,0,0,0,0-29.06c-4.39-28-22.48-52.37-46.61-66.35a84.4,84.4,0,0,1,15.35-25.5c23-26.87,64.71-29.89,92.12-7.13,19.19,15.9,29.34,40.58,28,66.63A80.18,80.18,0,0,1,337.4,219.61Z" transform="translate(-25.92 -49.11)" style="fill:#fd574f"/><path d="M343.15,83.14,242.23,169a1,1,0,0,0,.77,1.7l45.37-6.91a1,1,0,0,1,1,1.46l-39.94,65.36a1,1,0,0,0,1.48,1.22L345,146.68a1,1,0,0,0-.76-1.68l-39,4.57a1,1,0,0,1-.93-1.48l40.3-63.69A1,1,0,0,0,343.15,83.14Z" transform="translate(-25.92 -49.11)" style="fill:#fff;stroke:#fff;stroke-miterlimit:10"/><path d="M216.49,270.06c-3.84,4.11-8,6-12.89,5.76h-5.76c-41.68-.27-76.77-34.82-79.79-78.42-2.47-35.37,24.68-67.17,60.59-70.46,24.68-2.19,49.35,8,66.9,27.42,15.63,17.27,23,39.21,20.56,62a13.58,13.58,0,0,1-3.84,8.5C247.19,239.08,231.57,254.43,216.49,270.06Z" transform="translate(-25.92 -49.11)" style="fill:#41b883"/><path d="M187.6,155.27l11.92-11.92a2,2,0,0,1,3.35.9l24.27,91.23a2,2,0,0,1-2.45,2.45l-91.23-24.27a2,2,0,0,1-.9-3.35l25-25,22.82,5.93-6.11-22.64Z" transform="translate(-25.92 -49.11)" style="fill:#fff"/><path d="M144.3,198.57l55.77,14.75a2,2,0,0,0,2.44-2.45l-14.92-55.6-12.48,12.48a2,2,0,0,0-.52,1.94l5.81,21.52-21.71-5.64a2,2,0,0,0-1.92.52Z" transform="translate(-25.92 -49.11)" style="fill:#ddd"/><path d="M317.38,295.84v-6.31c0-7.4.27-15.08.27-22.48,0-14,5.76-24.4,17.55-31.26A82.52,82.52,0,0,0,361,211.66c26.87-35.92,23-88.83-7.68-120.64l-1.65-1.92-1.1-1.1c-1.65-1.37-3.56-3-5.48-4.39-21.93-17-45.79-21.66-71-14-26.87,8.5-45.51,26-54.84,51.55a85.21,85.21,0,0,0-32.9-6.85h-4.11a58.41,58.41,0,0,0-6.85.82c-27.69,3.29-47.71,16.73-60,40-16.45,31.26-13.43,63.61,8.23,93.22C147.12,281,179.47,293.64,218.13,286c13.71-2.74,25,.55,34.27,10.69,13.71,14.26,27.42,28.24,39.21,39.76a13.33,13.33,0,0,0,7.68,3.56c.82,0,1.65.27,2.47.27,12.06,0,23.31-9,26-21.11,1.37-5.21,1.92-11.79-4.39-17.55M216.49,270.06c-3.84,4.11-8,6-12.89,5.76h-5.76c-41.68-.27-76.77-34.82-79.79-78.42-2.47-35.37,24.68-67.17,60.59-70.46,24.68-2.19,49.35,8,66.9,27.42,15.63,17.27,23,39.21,20.56,62a13.58,13.58,0,0,1-3.84,8.5C247.19,239.08,231.57,254.43,216.49,270.06ZM337.4,219.61c-2.74,2.19-5.21,3.29-8.77,3-16.45-.27-33.72-.27-51-.27a86.12,86.12,0,0,0,0-29.06c-4.39-28-22.48-52.37-46.61-66.35a84.4,84.4,0,0,1,15.35-25.5c23-26.87,64.71-29.89,92.12-7.13,19.19,15.9,29.34,40.58,28,66.63A80.18,80.18,0,0,1,337.4,219.61Z" transform="translate(-25.92 -49.11)" style="fill:#333"/><path d="M280.92,275.82c5.76,5.48,11.52,11.52,17.27,17.27,2.47,2.74,5.21,5.21,7.68,8l2.74,2.74,6.58,6.58c3,3,1.65,8.23-3.29,13.16-4.66,4.66-9.87,6-12.89,2.74l-9.6-9.6c-8.5-8.77-17.55-17.55-26-26.6-10.14-10.69-20.56-16.45-32.08-17.27l31.26-31,.27.27v-.27C263.1,253.61,269.13,264.58,280.92,275.82Z" transform="translate(-25.92 -49.11)" style="fill:#3d3d3d"/><path d="M301.21,279.38c-5.21-5.48-10.42-10.69-15.9-16.18-8.5-8.23-12.06-17.82-10.69-28.51l41.68.27c-8,8.77-11.52,20.84-11,37.29,0,3.84.27,7.68,0,11.52" transform="translate(-25.92 -49.11)" style="fill:#3d3d3d"/><path d="M48.39,317.19A3.14,3.14,0,0,0,49,319a7,7,0,0,0,1.45,1.49,18.32,18.32,0,0,0,2.05,1.37q1.15.67,2.36,1.41t2.36,1.61a12.31,12.31,0,0,1,2.06,2,9.42,9.42,0,0,1,1.48,2.48,8.92,8.92,0,0,1,.61,3.14v.19a10.78,10.78,0,0,1-.47,3.35,8.46,8.46,0,0,1-1.24,2.46,7,7,0,0,1-1.8,1.7,10.16,10.16,0,0,1-2.17,1.07,12,12,0,0,1-2.3.56,18.73,18.73,0,0,1-2.19.19h-.23a13.68,13.68,0,0,1-3.49-.4,9.51,9.51,0,0,1-2.58-1.07,7.23,7.23,0,0,1-1.79-1.54,8.11,8.11,0,0,1-1.14-1.79,8.7,8.7,0,0,1-.8-3.55,3.38,3.38,0,0,1,.28-1.43,2.84,2.84,0,0,1,.74-1,3,3,0,0,1,1.05-.57,4.16,4.16,0,0,1,1.25-.19,4.48,4.48,0,0,1,1.25.19,3.72,3.72,0,0,1,1.17.57,3.11,3.11,0,0,1,.87,1,3,3,0,0,1,.36,1.39,2.59,2.59,0,0,0,3,3,6.08,6.08,0,0,0,1.3-.18,2.33,2.33,0,0,0,1-.54,2.65,2.65,0,0,0,.67-1,4.61,4.61,0,0,0,.25-1.63,4.43,4.43,0,0,0-.55-2.2,7.7,7.7,0,0,0-1.44-1.83,15.05,15.05,0,0,0-2-1.61q-1.15-.76-2.34-1.52t-2.33-1.59a14.37,14.37,0,0,1-2.05-1.82,8.28,8.28,0,0,1-1.46-2.18,6.68,6.68,0,0,1-.57-2.72v-.37a12,12,0,0,1,.67-4.17,6.06,6.06,0,0,1,1.9-2.65,7.61,7.61,0,0,1,3.08-1.39,19.28,19.28,0,0,1,4.2-.41H52a12.38,12.38,0,0,1,3.66.47,8.53,8.53,0,0,1,2.5,1.2,6,6,0,0,1,1.57,1.64,7.85,7.85,0,0,1,.86,1.8,8,8,0,0,1,.35,1.66q.07.77.07,1.24a3,3,0,0,1-.27,1.28,2.92,2.92,0,0,1-.73,1,3.33,3.33,0,0,1-1.08.62,4,4,0,0,1-1.35.22,3,3,0,0,1-1.12-.22,4,4,0,0,1-1-.57,3.09,3.09,0,0,1-.73-.81,1.75,1.75,0,0,1-.28-.93,4,4,0,0,0-.69-2.67,2.62,2.62,0,0,0-2-.75,10.53,10.53,0,0,0-1.23.07,2.29,2.29,0,0,0-1.05.39,2.12,2.12,0,0,0-.73,1A5,5,0,0,0,48.39,317.19Z" transform="translate(-25.92 -49.11)" style="fill:#333"/><path d="M84.76,328.39q0,.38,0,.88a2,2,0,0,1-.36,1,2.49,2.49,0,0,1-1,.79,4.53,4.53,0,0,1-1.92.33H72.11v2.25a5.21,5.21,0,0,0,.14,1.17,3.43,3.43,0,0,0,.48,1.13,2.68,2.68,0,0,0,.9.84,2.7,2.7,0,0,0,1.38.33,3.68,3.68,0,0,0,1.44-.22,2.29,2.29,0,0,0,.8-.55,5.16,5.16,0,0,0,.53-.7,3,3,0,0,1,.62-.7,3.15,3.15,0,0,1,1.08-.55,6.48,6.48,0,0,1,1.91-.22,6.76,6.76,0,0,1,1.14.09,2.72,2.72,0,0,1,1,.35,1.93,1.93,0,0,1,.68.71,2.39,2.39,0,0,1,.26,1.18,3.56,3.56,0,0,1-1,2.54,7,7,0,0,1-2.41,1.63,13.27,13.27,0,0,1-3.15.87,21.24,21.24,0,0,1-3.18.26,15,15,0,0,1-3.7-.49,8.77,8.77,0,0,1-3.11-1.5,7.29,7.29,0,0,1-2.14-2.7A9.39,9.39,0,0,1,65,333V327.5a11.78,11.78,0,0,1,.53-3.77,8.22,8.22,0,0,1,1.37-2.58,6.43,6.43,0,0,1,1.9-1.61,9.44,9.44,0,0,1,2.13-.86,11.4,11.4,0,0,1,2.05-.35q1-.07,1.68-.07a16.77,16.77,0,0,1,4,.42,10.26,10.26,0,0,1,2.8,1.1,6.07,6.07,0,0,1,1.78,1.57,6.9,6.9,0,0,1,1,1.84,8.3,8.3,0,0,1,.42,1.92q.09,1,.09,1.82Zm-12.66-.56H78q0-1.1-.06-2a3.79,3.79,0,0,0-.35-1.44,2,2,0,0,0-.91-.89,4.12,4.12,0,0,0-1.77-.3,3.14,3.14,0,0,0-1.51.3,2.19,2.19,0,0,0-.83.76,2.48,2.48,0,0,0-.35,1,6.85,6.85,0,0,0-.07.91Z" transform="translate(-25.92 -49.11)" style="fill:#333"/><path d="M104.78,321.83a3.5,3.5,0,0,1-.9,2.67,3.62,3.62,0,0,1-2.57.84l-.67,0a4.33,4.33,0,0,0-.93.19,4.83,4.83,0,0,0-1,.45,3.52,3.52,0,0,0-.93.8,3.88,3.88,0,0,0-.68,1.28,5.88,5.88,0,0,0-.26,1.85v6.7a16.35,16.35,0,0,1-.11,1.88,4.61,4.61,0,0,1-.48,1.63,3,3,0,0,1-1.08,1.16,3.52,3.52,0,0,1-1.9.45,3.35,3.35,0,0,1-1.85-.45,3,3,0,0,1-1-1.16,4.78,4.78,0,0,1-.47-1.63,16.35,16.35,0,0,1-.11-1.87V323.52a16.87,16.87,0,0,1,.11-1.91A4.91,4.91,0,0,1,90.4,320a2.88,2.88,0,0,1,1-1.16,3.42,3.42,0,0,1,1.85-.43,2.84,2.84,0,0,1,1.84.53,3.09,3.09,0,0,1,.95,1.36,6.19,6.19,0,0,1,.35,1.85q0,1,0,2h.38a11.37,11.37,0,0,1,.87-2.38,8.42,8.42,0,0,1,1.2-1.8,5.09,5.09,0,0,1,1.41-1.14,3.17,3.17,0,0,1,1.5-.4,4.63,4.63,0,0,1,1.49.2,1.9,1.9,0,0,1,.9.62,2.42,2.42,0,0,1,.45,1.08A9.07,9.07,0,0,1,104.78,321.83Z" transform="translate(-25.92 -49.11)" style="fill:#333"/><path d="M119.31,338.09a13.47,13.47,0,0,1-1,2.1,4.33,4.33,0,0,1-.87,1.09,1.7,1.7,0,0,1-.84.41,6.48,6.48,0,0,1-.89.06,7.38,7.38,0,0,1-1-.06,1.88,1.88,0,0,1-.89-.4,4.14,4.14,0,0,1-.91-1.08,11.78,11.78,0,0,1-1-2.12l-5.3-13.87q-.21-.56-.39-1.21a4.84,4.84,0,0,1-.18-1.28,4.75,4.75,0,0,1,.18-1.3,2.77,2.77,0,0,1,1.61-1.84,3.8,3.8,0,0,1,1.55-.28,2.62,2.62,0,0,1,1.21.28,3.51,3.51,0,0,1,1,.75,5.23,5.23,0,0,1,.76,1.08,6.33,6.33,0,0,1,.52,1.27l2.63,8.53h.38l2.44-8.53a6.75,6.75,0,0,1,.47-1.2,4.86,4.86,0,0,1,.74-1.09,3.54,3.54,0,0,1,1-.79,3,3,0,0,1,1.37-.3,3.17,3.17,0,0,1,1.43.29,2.77,2.77,0,0,1,1,.77,3,3,0,0,1,.54,1.11,5.12,5.12,0,0,1,.16,1.29,5,5,0,0,1-.15,1.22,8.28,8.28,0,0,1-.41,1.22Z" transform="translate(-25.92 -49.11)" style="fill:#333"/><path d="M147.76,328.39q0,.38,0,.88a2,2,0,0,1-.36,1,2.49,2.49,0,0,1-1,.79,4.53,4.53,0,0,1-1.92.33h-9.33v2.25a5.21,5.21,0,0,0,.14,1.17,3.43,3.43,0,0,0,.48,1.13,2.68,2.68,0,0,0,.9.84,2.7,2.7,0,0,0,1.38.33,3.68,3.68,0,0,0,1.44-.22,2.29,2.29,0,0,0,.8-.55,5.16,5.16,0,0,0,.53-.7,3,3,0,0,1,.62-.7,3.15,3.15,0,0,1,1.08-.55,6.48,6.48,0,0,1,1.91-.22,6.76,6.76,0,0,1,1.14.09,2.72,2.72,0,0,1,1,.35,1.93,1.93,0,0,1,.68.71,2.39,2.39,0,0,1,.26,1.18,3.56,3.56,0,0,1-1,2.54,7,7,0,0,1-2.41,1.63,13.27,13.27,0,0,1-3.15.87,21.24,21.24,0,0,1-3.18.26,15,15,0,0,1-3.7-.49,8.77,8.77,0,0,1-3.11-1.5,7.29,7.29,0,0,1-2.14-2.7A9.39,9.39,0,0,1,128,333V327.5a11.78,11.78,0,0,1,.53-3.77,8.22,8.22,0,0,1,1.37-2.58,6.43,6.43,0,0,1,1.9-1.61,9.44,9.44,0,0,1,2.13-.86,11.4,11.4,0,0,1,2.05-.35q1-.07,1.68-.07a16.77,16.77,0,0,1,4,.42,10.26,10.26,0,0,1,2.8,1.1,6.07,6.07,0,0,1,1.78,1.57,6.9,6.9,0,0,1,1,1.84,8.3,8.3,0,0,1,.42,1.92q.09,1,.09,1.82Zm-12.66-.56H141q0-1.1-.06-2a3.79,3.79,0,0,0-.35-1.44,2,2,0,0,0-.91-.89,4.12,4.12,0,0,0-1.77-.3,3.14,3.14,0,0,0-1.51.3,2.19,2.19,0,0,0-.83.76,2.48,2.48,0,0,0-.35,1,6.85,6.85,0,0,0-.07.91Z" transform="translate(-25.92 -49.11)" style="fill:#333"/><path d="M167.78,321.83a3.5,3.5,0,0,1-.9,2.67,3.62,3.62,0,0,1-2.57.84l-.67,0a4.33,4.33,0,0,0-.93.19,4.83,4.83,0,0,0-1,.45,3.52,3.52,0,0,0-.93.8,3.88,3.88,0,0,0-.68,1.28,5.88,5.88,0,0,0-.26,1.85v6.7a16.35,16.35,0,0,1-.11,1.88,4.61,4.61,0,0,1-.48,1.63,3,3,0,0,1-1.08,1.16,3.52,3.52,0,0,1-1.9.45,3.35,3.35,0,0,1-1.85-.45,3,3,0,0,1-1-1.16,4.78,4.78,0,0,1-.47-1.63,16.35,16.35,0,0,1-.11-1.87V323.52a16.87,16.87,0,0,1,.11-1.91,4.91,4.91,0,0,1,.47-1.65,2.88,2.88,0,0,1,1-1.16,3.42,3.42,0,0,1,1.85-.43,2.84,2.84,0,0,1,1.84.53,3.09,3.09,0,0,1,.95,1.36,6.19,6.19,0,0,1,.35,1.85q0,1,0,2h.38a11.37,11.37,0,0,1,.87-2.38,8.42,8.42,0,0,1,1.2-1.8,5.09,5.09,0,0,1,1.41-1.14,3.17,3.17,0,0,1,1.5-.4,4.63,4.63,0,0,1,1.49.2,1.9,1.9,0,0,1,.9.62,2.42,2.42,0,0,1,.45,1.08A9.07,9.07,0,0,1,167.78,321.83Z" transform="translate(-25.92 -49.11)" style="fill:#333"/><path d="M171.58,314.14a17.18,17.18,0,0,1,.11-1.92,4.76,4.76,0,0,1,.48-1.66,3,3,0,0,1,1.08-1.17,3.52,3.52,0,0,1,1.9-.45,3.57,3.57,0,0,1,1.92.45,2.9,2.9,0,0,1,1.07,1.17,4.93,4.93,0,0,1,.47,1.66,17.18,17.18,0,0,1,.11,1.92V336.5a17.5,17.5,0,0,1-.11,1.93,5.06,5.06,0,0,1-.47,1.69,2.89,2.89,0,0,1-1.07,1.18,3.57,3.57,0,0,1-1.92.45,3.52,3.52,0,0,1-1.9-.45,3,3,0,0,1-1.08-1.18,4.89,4.89,0,0,1-.48-1.69,17.5,17.5,0,0,1-.11-1.93Z" transform="translate(-25.92 -49.11)" style="fill:#333"/><path d="M204,328.39q0,.38,0,.88a2,2,0,0,1-.36,1,2.49,2.49,0,0,1-1,.79,4.53,4.53,0,0,1-1.92.33h-9.33v2.25a5.21,5.21,0,0,0,.14,1.17,3.43,3.43,0,0,0,.48,1.13,2.68,2.68,0,0,0,.9.84,2.7,2.7,0,0,0,1.38.33,3.68,3.68,0,0,0,1.44-.22,2.29,2.29,0,0,0,.8-.55,5.16,5.16,0,0,0,.53-.7,3,3,0,0,1,.62-.7,3.15,3.15,0,0,1,1.08-.55,6.48,6.48,0,0,1,1.91-.22,6.76,6.76,0,0,1,1.14.09,2.72,2.72,0,0,1,1,.35,1.93,1.93,0,0,1,.68.71,2.39,2.39,0,0,1,.26,1.18,3.56,3.56,0,0,1-1,2.54,7,7,0,0,1-2.41,1.63,13.27,13.27,0,0,1-3.15.87,21.24,21.24,0,0,1-3.18.26,15,15,0,0,1-3.7-.49,8.77,8.77,0,0,1-3.11-1.5,7.29,7.29,0,0,1-2.14-2.7,9.39,9.39,0,0,1-.8-4.08V327.5a11.78,11.78,0,0,1,.53-3.77,8.22,8.22,0,0,1,1.37-2.58,6.43,6.43,0,0,1,1.9-1.61,9.44,9.44,0,0,1,2.13-.86,11.4,11.4,0,0,1,2.05-.35q1-.07,1.68-.07a16.77,16.77,0,0,1,4,.42,10.26,10.26,0,0,1,2.8,1.1,6.07,6.07,0,0,1,1.78,1.57,6.9,6.9,0,0,1,1,1.84,8.3,8.3,0,0,1,.42,1.92q.09,1,.09,1.82Zm-12.66-.56h5.86q0-1.1-.06-2a3.79,3.79,0,0,0-.35-1.44,2,2,0,0,0-.91-.89,4.12,4.12,0,0,0-1.77-.3,3.14,3.14,0,0,0-1.51.3,2.19,2.19,0,0,0-.83.76,2.48,2.48,0,0,0-.35,1,6.85,6.85,0,0,0-.07.91Z" transform="translate(-25.92 -49.11)" style="fill:#333"/><path d="M215,324.45a1.4,1.4,0,0,0,.3.87,3.62,3.62,0,0,0,.83.76,10.71,10.71,0,0,0,1.22.71l1.44.7q1.15.56,2.34,1.21a11.64,11.64,0,0,1,2.18,1.51,7.35,7.35,0,0,1,1.61,2,5.51,5.51,0,0,1,.62,2.68,7,7,0,0,1-.41,2.48,6.16,6.16,0,0,1-1.09,1.86,6,6,0,0,1-1.58,1.3,9.29,9.29,0,0,1-1.9.82,12,12,0,0,1-2,.43,15.72,15.72,0,0,1-1.95.13,14.26,14.26,0,0,1-3.14-.3,9.5,9.5,0,0,1-2.3-.81,6.12,6.12,0,0,1-1.58-1.15,5.49,5.49,0,0,1-1-1.35,5.63,5.63,0,0,1-.49-1.39,6.44,6.44,0,0,1-.14-1.28,2.54,2.54,0,0,1,.79-2.06,3.69,3.69,0,0,1,2.4-.66,2.88,2.88,0,0,1,1.92.63,2.65,2.65,0,0,1,.8,2,1.19,1.19,0,0,0,.27.75,1.83,1.83,0,0,0,.63.46,2.94,2.94,0,0,0,.86.23,7.37,7.37,0,0,0,.91.06,2.24,2.24,0,0,0,1.49-.48,1.56,1.56,0,0,0,.57-1.25,2.16,2.16,0,0,0-.39-1.23,4.66,4.66,0,0,0-1-1.07,11.82,11.82,0,0,0-1.44-.95l-1.65-.93Q213,330.64,212,330A12.4,12.4,0,0,1,210,328.6a6.65,6.65,0,0,1-1.41-1.75,4.49,4.49,0,0,1-.54-2.21,7,7,0,0,1,.6-3.06,4.94,4.94,0,0,1,1.75-2,7.75,7.75,0,0,1,2.8-1.09,21.94,21.94,0,0,1,3.76-.37h.38a13.6,13.6,0,0,1,3.22.33,8.05,8.05,0,0,1,2.2.86,4.87,4.87,0,0,1,1.38,1.18,5.05,5.05,0,0,1,.75,1.32,5.12,5.12,0,0,1,.3,1.28q.06.61.06,1a2.11,2.11,0,0,1-.29,1.16,2.16,2.16,0,0,1-.77.73,3.39,3.39,0,0,1-1.09.38,9.38,9.38,0,0,1-1.27.13,2.66,2.66,0,0,1-1-.19,2.87,2.87,0,0,1-.79-.47,2,2,0,0,1-.5-.63,1.52,1.52,0,0,1-.18-.68,1.67,1.67,0,0,0-.71-1.36,2.76,2.76,0,0,0-1.63-.47,3.45,3.45,0,0,0-.76.08,1.9,1.9,0,0,0-.66.28,1.46,1.46,0,0,0-.47.53A1.78,1.78,0,0,0,215,324.45Z" transform="translate(-25.92 -49.11)" style="fill:#333"/><path d="M236.31,324.45a1.4,1.4,0,0,0,.3.87,3.62,3.62,0,0,0,.83.76,10.71,10.71,0,0,0,1.22.71l1.44.7q1.15.56,2.34,1.21a11.64,11.64,0,0,1,2.18,1.51,7.35,7.35,0,0,1,1.61,2,5.51,5.51,0,0,1,.62,2.68,7,7,0,0,1-.41,2.48,6.16,6.16,0,0,1-1.09,1.86,6,6,0,0,1-1.58,1.3,9.29,9.29,0,0,1-1.9.82,12,12,0,0,1-2,.43,15.72,15.72,0,0,1-1.95.13,14.26,14.26,0,0,1-3.14-.3,9.5,9.5,0,0,1-2.3-.81,6.12,6.12,0,0,1-1.58-1.15,5.49,5.49,0,0,1-1-1.35,5.63,5.63,0,0,1-.49-1.39,6.44,6.44,0,0,1-.14-1.28,2.54,2.54,0,0,1,.79-2.06,3.69,3.69,0,0,1,2.4-.66,2.88,2.88,0,0,1,1.92.63,2.65,2.65,0,0,1,.8,2,1.19,1.19,0,0,0,.27.75,1.83,1.83,0,0,0,.63.46,2.94,2.94,0,0,0,.86.23,7.37,7.37,0,0,0,.91.06,2.24,2.24,0,0,0,1.49-.48,1.56,1.56,0,0,0,.57-1.25,2.16,2.16,0,0,0-.39-1.23,4.66,4.66,0,0,0-1-1.07,11.82,11.82,0,0,0-1.44-.95l-1.65-.93q-1.05-.56-2.12-1.2a12.4,12.4,0,0,1-1.93-1.41,6.65,6.65,0,0,1-1.41-1.75,4.49,4.49,0,0,1-.54-2.21,7,7,0,0,1,.6-3.06,4.94,4.94,0,0,1,1.75-2,7.75,7.75,0,0,1,2.8-1.09,21.94,21.94,0,0,1,3.76-.37h.38a13.6,13.6,0,0,1,3.22.33,8.05,8.05,0,0,1,2.2.86,4.87,4.87,0,0,1,1.38,1.18,5.05,5.05,0,0,1,.75,1.32,5.12,5.12,0,0,1,.3,1.28q.06.61.06,1a2.11,2.11,0,0,1-.29,1.16,2.16,2.16,0,0,1-.77.73,3.39,3.39,0,0,1-1.09.38,9.38,9.38,0,0,1-1.27.13,2.66,2.66,0,0,1-1-.19,2.87,2.87,0,0,1-.79-.47,2,2,0,0,1-.5-.63,1.52,1.52,0,0,1-.18-.68,1.67,1.67,0,0,0-.71-1.36,2.76,2.76,0,0,0-1.63-.47,3.45,3.45,0,0,0-.76.08,1.9,1.9,0,0,0-.66.28,1.46,1.46,0,0,0-.47.53A1.78,1.78,0,0,0,236.31,324.45Z" transform="translate(-25.92 -49.11)" style="fill:#333"/><path d="M147.18,361.48q0-.49,0-1a2.4,2.4,0,0,1,.21-.85,1.43,1.43,0,0,1,.53-.6,1.8,1.8,0,0,1,1-.23,2,2,0,0,1,1,.22,1.46,1.46,0,0,1,.54.53,1.73,1.73,0,0,1,.22.65,4.92,4.92,0,0,1,0,.57,3.74,3.74,0,0,1,.3-.69,2.49,2.49,0,0,1,.5-.63,2.52,2.52,0,0,1,.73-.46,2.55,2.55,0,0,1,1-.18,4.12,4.12,0,0,1,1.29.21,3,3,0,0,1,1.16.7,3.64,3.64,0,0,1,.84,1.28,5.19,5.19,0,0,1,.32,2v3.4a5.22,5.22,0,0,1-.32,2,3.58,3.58,0,0,1-.84,1.28,3.07,3.07,0,0,1-1.16.7,4.12,4.12,0,0,1-1.29.21,2.62,2.62,0,0,1-1-.18,2.43,2.43,0,0,1-.73-.46,2.49,2.49,0,0,1-.5-.63,3.62,3.62,0,0,1-.3-.7v4a9.13,9.13,0,0,1-.05,1,2.54,2.54,0,0,1-.23.85,1.46,1.46,0,0,1-.54.6,1.81,1.81,0,0,1-1,.23A1.7,1.7,0,0,1,148,375a1.48,1.48,0,0,1-.53-.6,2.54,2.54,0,0,1-.23-.85,9.13,9.13,0,0,1-.05-1Zm6.09,1.8q0-.32,0-.62a1.73,1.73,0,0,0-.13-.55.91.91,0,0,0-.31-.39,1,1,0,0,0-.57-.15,1.25,1.25,0,0,0-.74.21,1.34,1.34,0,0,0-.45.63,4.23,4.23,0,0,0-.23,1.08q-.06.66-.08,1.55a6.38,6.38,0,0,0,.06.85,3.92,3.92,0,0,0,.23.9,2,2,0,0,0,.46.71,1,1,0,0,0,.75.29,1,1,0,0,0,.57-.15.93.93,0,0,0,.31-.38,1.6,1.6,0,0,0,.13-.53q0-.3,0-.6Z" transform="translate(-25.92 -49.11)" style="fill:#333"/><path d="M159.88,361.46a8.59,8.59,0,0,1,.05-1,2.44,2.44,0,0,1,.24-.84,1.53,1.53,0,0,1,.54-.6,2.09,2.09,0,0,1,1.9,0,1.53,1.53,0,0,1,.54.6,2.44,2.44,0,0,1,.24.84,8.59,8.59,0,0,1,.05,1v6.47a8.75,8.75,0,0,1-.05,1,2.44,2.44,0,0,1-.24.84,1.48,1.48,0,0,1-.54.59,2.13,2.13,0,0,1-1.9,0,1.48,1.48,0,0,1-.54-.59,2.44,2.44,0,0,1-.24-.84,8.75,8.75,0,0,1-.05-1Zm3.59-5.53a1.76,1.76,0,0,1-.47,1.34,2.18,2.18,0,0,1-2.62,0,2.18,2.18,0,0,1,0-2.7,1.89,1.89,0,0,1,1.31-.42,1.87,1.87,0,0,1,1.34.42A1.82,1.82,0,0,1,163.47,355.93Z" transform="translate(-25.92 -49.11)" style="fill:#333"/><path d="M176.73,367.88a8.13,8.13,0,0,1-.06,1,2.52,2.52,0,0,1-.25.86,1.55,1.55,0,0,1-.55.6,1.78,1.78,0,0,1-1,.23,1.72,1.72,0,0,1-.95-.23,1.52,1.52,0,0,1-.54-.6,2.51,2.51,0,0,1-.24-.86,9,9,0,0,1-.05-1v-4.57q0-.33,0-.64a1.79,1.79,0,0,0-.13-.56.92.92,0,0,0-.31-.39.94.94,0,0,0-.56-.15,1,1,0,0,0-.77.32,2.22,2.22,0,0,0-.46.87,6,6,0,0,0-.23,1.29q-.06.74-.06,1.6v2.23a8.13,8.13,0,0,1-.06,1,2.52,2.52,0,0,1-.25.86,1.55,1.55,0,0,1-.55.6,1.78,1.78,0,0,1-1,.23,1.72,1.72,0,0,1-.95-.23,1.52,1.52,0,0,1-.54-.6,2.51,2.51,0,0,1-.24-.86,9,9,0,0,1-.05-1v-6.4q0-.5,0-1a2.35,2.35,0,0,1,.21-.84,1.43,1.43,0,0,1,.53-.6,1.86,1.86,0,0,1,1-.23,2,2,0,0,1,1,.22,1.52,1.52,0,0,1,.54.52,1.7,1.7,0,0,1,.23.64,4.38,4.38,0,0,1,0,.59,3.05,3.05,0,0,1,.29-.69,2.54,2.54,0,0,1,.51-.63,2.53,2.53,0,0,1,1.75-.64,4.12,4.12,0,0,1,1.29.21,3,3,0,0,1,1.16.7,3.63,3.63,0,0,1,.84,1.29,5.27,5.27,0,0,1,.32,2Z" transform="translate(-25.92 -49.11)" style="fill:#333"/><path d="M188.9,370.9a4.86,4.86,0,0,1-.29,1.78,3.82,3.82,0,0,1-.73,1.21,3.41,3.41,0,0,1-1,.75,5.53,5.53,0,0,1-1.07.4,5.27,5.27,0,0,1-1,.16l-.66,0a11.92,11.92,0,0,1-1.66-.12,5.4,5.4,0,0,1-1.52-.43,3.21,3.21,0,0,1-1.14-.86,2.35,2.35,0,0,1-.51-1.38,1.24,1.24,0,0,1,0-.32.73.73,0,0,1,.21-.33,1.31,1.31,0,0,1,.49-.27,2.86,2.86,0,0,1,.89-.11,3.75,3.75,0,0,1,1,.11,1.44,1.44,0,0,1,.54.27.74.74,0,0,1,.23.34q.05.18.11.33a.58.58,0,0,0,.37.35,2.29,2.29,0,0,0,.76.1,1.08,1.08,0,0,0,.69-.2,1.31,1.31,0,0,0,.38-.47,1.85,1.85,0,0,0,.16-.56,4,4,0,0,0,0-.47v-2.62a3.62,3.62,0,0,1-.3.7,2.49,2.49,0,0,1-.5.63,2.43,2.43,0,0,1-.73.46,2.62,2.62,0,0,1-1,.18,4.12,4.12,0,0,1-1.29-.21,3.12,3.12,0,0,1-1.17-.7,3.59,3.59,0,0,1-.85-1.28,5.22,5.22,0,0,1-.33-2V363a5.1,5.1,0,0,1,.33-2,3.66,3.66,0,0,1,.85-1.28,3.08,3.08,0,0,1,1.17-.7,4.12,4.12,0,0,1,1.29-.21,2.55,2.55,0,0,1,1,.18,2.52,2.52,0,0,1,.73.46,2.49,2.49,0,0,1,.5.63,3.74,3.74,0,0,1,.3.69,4.92,4.92,0,0,1,0-.57,1.73,1.73,0,0,1,.22-.65,1.46,1.46,0,0,1,.54-.53,2,2,0,0,1,1-.22,1.8,1.8,0,0,1,1,.23,1.43,1.43,0,0,1,.53.6,2.4,2.4,0,0,1,.21.85q0,.47,0,1Zm-6.09-4.78q0,.3,0,.61a1.67,1.67,0,0,0,.13.54.92.92,0,0,0,.31.39,1,1,0,0,0,.57.15,1,1,0,0,0,.75-.29,2,2,0,0,0,.46-.72,4,4,0,0,0,.23-.9,6.38,6.38,0,0,0,.06-.85q0-.89-.08-1.55a4.23,4.23,0,0,0-.23-1.08,1.34,1.34,0,0,0-.45-.63,1.25,1.25,0,0,0-.74-.21,1,1,0,0,0-.57.15.91.91,0,0,0-.31.39,1.73,1.73,0,0,0-.13.55q0,.3,0,.62Z" transform="translate(-25.92 -49.11)" style="fill:#333"/><path d="M201.2,361.48q0-.49,0-1a2.4,2.4,0,0,1,.21-.85,1.43,1.43,0,0,1,.53-.6,1.8,1.8,0,0,1,1-.23,2,2,0,0,1,1,.22,1.46,1.46,0,0,1,.54.53,1.73,1.73,0,0,1,.22.65,4.92,4.92,0,0,1,0,.57,3.74,3.74,0,0,1,.3-.69,2.49,2.49,0,0,1,.5-.63,2.52,2.52,0,0,1,.73-.46,2.55,2.55,0,0,1,1-.18,4.12,4.12,0,0,1,1.29.21,3,3,0,0,1,1.16.7,3.64,3.64,0,0,1,.84,1.28,5.19,5.19,0,0,1,.32,2v3.4a5.22,5.22,0,0,1-.32,2,3.58,3.58,0,0,1-.84,1.28,3.07,3.07,0,0,1-1.16.7,4.12,4.12,0,0,1-1.29.21,2.62,2.62,0,0,1-1-.18,2.43,2.43,0,0,1-.73-.46,2.49,2.49,0,0,1-.5-.63,3.62,3.62,0,0,1-.3-.7v4a9.13,9.13,0,0,1-.05,1,2.54,2.54,0,0,1-.23.85,1.46,1.46,0,0,1-.54.6,1.81,1.81,0,0,1-1,.23A1.7,1.7,0,0,1,202,375a1.48,1.48,0,0,1-.53-.6,2.54,2.54,0,0,1-.23-.85,9.13,9.13,0,0,1-.05-1Zm6.09,1.8q0-.32,0-.62a1.73,1.73,0,0,0-.13-.55.91.91,0,0,0-.31-.39,1,1,0,0,0-.57-.15,1.25,1.25,0,0,0-.74.21,1.34,1.34,0,0,0-.45.63,4.23,4.23,0,0,0-.23,1.08q-.06.66-.08,1.55a6.38,6.38,0,0,0,.06.85,3.92,3.92,0,0,0,.23.9,2,2,0,0,0,.46.71,1,1,0,0,0,.75.29,1,1,0,0,0,.57-.15.93.93,0,0,0,.31-.38,1.6,1.6,0,0,0,.13-.53q0-.3,0-.6Z" transform="translate(-25.92 -49.11)" style="fill:#333"/><path d="M213,363.24a5,5,0,0,1,.29-1.83,4,4,0,0,1,.76-1.25,3.51,3.51,0,0,1,1-.79,5.72,5.72,0,0,1,1.12-.42,5.94,5.94,0,0,1,1-.18l.74,0,.74,0a5.58,5.58,0,0,1,1,.18,5.3,5.3,0,0,1,1.08.42,3.33,3.33,0,0,1,1,.79,4,4,0,0,1,.72,1.25,5.23,5.23,0,0,1,.28,1.83v2.91a5.23,5.23,0,0,1-.28,1.83,4,4,0,0,1-.72,1.25,3.33,3.33,0,0,1-1,.79,5.3,5.3,0,0,1-1.08.42,5.58,5.58,0,0,1-1,.18l-.74,0-.74,0a5.94,5.94,0,0,1-1-.18,5.72,5.72,0,0,1-1.12-.42,3.51,3.51,0,0,1-1-.79,4,4,0,0,1-.76-1.25,5,5,0,0,1-.29-1.83Zm3.61,3.73a1.24,1.24,0,0,0,.16.6,1.2,1.2,0,0,0,.4.42,1.44,1.44,0,0,0,.79.18,1.33,1.33,0,0,0,.76-.18,1.23,1.23,0,0,0,.39-.42,1.44,1.44,0,0,0,.16-.6v-4.24a1.74,1.74,0,0,0-.16-.64,1.46,1.46,0,0,0-.39-.44,1.21,1.21,0,0,0-.76-.21,1.31,1.31,0,0,0-.79.21,1.41,1.41,0,0,0-.4.44,1.49,1.49,0,0,0-.16.64Z" transform="translate(-25.92 -49.11)" style="fill:#333"/><path d="M235,367.88a8.13,8.13,0,0,1-.06,1,2.52,2.52,0,0,1-.25.86,1.55,1.55,0,0,1-.55.6,1.78,1.78,0,0,1-1,.23,1.72,1.72,0,0,1-.95-.23,1.52,1.52,0,0,1-.54-.6,2.51,2.51,0,0,1-.24-.86,9,9,0,0,1-.05-1v-4.57q0-.33,0-.64a1.79,1.79,0,0,0-.13-.56.92.92,0,0,0-.31-.39.94.94,0,0,0-.56-.15,1,1,0,0,0-.77.32,2.22,2.22,0,0,0-.46.87,6,6,0,0,0-.23,1.29q-.06.74-.06,1.6v2.23a8.13,8.13,0,0,1-.06,1,2.52,2.52,0,0,1-.25.86,1.55,1.55,0,0,1-.55.6,1.78,1.78,0,0,1-1,.23,1.72,1.72,0,0,1-.95-.23,1.52,1.52,0,0,1-.54-.6,2.51,2.51,0,0,1-.24-.86,9,9,0,0,1-.05-1v-6.4q0-.5,0-1a2.35,2.35,0,0,1,.21-.84,1.43,1.43,0,0,1,.53-.6,1.86,1.86,0,0,1,1-.23,2,2,0,0,1,1,.22,1.52,1.52,0,0,1,.54.52,1.7,1.7,0,0,1,.23.64,4.38,4.38,0,0,1,0,.59,3.05,3.05,0,0,1,.29-.69,2.54,2.54,0,0,1,.51-.63,2.53,2.53,0,0,1,1.75-.64,4.12,4.12,0,0,1,1.29.21,3,3,0,0,1,1.16.7,3.63,3.63,0,0,1,.84,1.29,5.27,5.27,0,0,1,.32,2Z" transform="translate(-25.92 -49.11)" style="fill:#333"/><path d="M247.18,370.9a4.86,4.86,0,0,1-.29,1.78,3.82,3.82,0,0,1-.73,1.21,3.41,3.41,0,0,1-1,.75,5.53,5.53,0,0,1-1.07.4,5.27,5.27,0,0,1-1,.16l-.66,0a11.92,11.92,0,0,1-1.66-.12,5.4,5.4,0,0,1-1.52-.43,3.21,3.21,0,0,1-1.14-.86,2.35,2.35,0,0,1-.51-1.38,1.24,1.24,0,0,1,0-.32.73.73,0,0,1,.21-.33,1.31,1.31,0,0,1,.49-.27,2.86,2.86,0,0,1,.89-.11,3.75,3.75,0,0,1,1,.11,1.44,1.44,0,0,1,.54.27.74.74,0,0,1,.23.34q.05.18.11.33a.58.58,0,0,0,.37.35,2.29,2.29,0,0,0,.76.1,1.08,1.08,0,0,0,.69-.2,1.31,1.31,0,0,0,.38-.47,1.85,1.85,0,0,0,.16-.56,4,4,0,0,0,0-.47v-2.62a3.62,3.62,0,0,1-.3.7,2.49,2.49,0,0,1-.5.63,2.43,2.43,0,0,1-.73.46,2.62,2.62,0,0,1-1,.18,4.12,4.12,0,0,1-1.29-.21,3.12,3.12,0,0,1-1.17-.7,3.59,3.59,0,0,1-.85-1.28,5.22,5.22,0,0,1-.33-2V363a5.1,5.1,0,0,1,.33-2,3.66,3.66,0,0,1,.85-1.28,3.08,3.08,0,0,1,1.17-.7,4.12,4.12,0,0,1,1.29-.21,2.55,2.55,0,0,1,1,.18,2.52,2.52,0,0,1,.73.46,2.49,2.49,0,0,1,.5.63,3.74,3.74,0,0,1,.3.69,4.92,4.92,0,0,1,0-.57,1.73,1.73,0,0,1,.22-.65,1.46,1.46,0,0,1,.54-.53,2,2,0,0,1,1-.22,1.8,1.8,0,0,1,1,.23,1.43,1.43,0,0,1,.53.6,2.4,2.4,0,0,1,.21.85q0,.47,0,1Zm-6.09-4.78q0,.3,0,.61a1.67,1.67,0,0,0,.13.54.92.92,0,0,0,.31.39,1,1,0,0,0,.57.15,1,1,0,0,0,.75-.29,2,2,0,0,0,.46-.72,4,4,0,0,0,.23-.9,6.38,6.38,0,0,0,.06-.85q0-.89-.08-1.55a4.23,4.23,0,0,0-.23-1.08,1.34,1.34,0,0,0-.45-.63,1.25,1.25,0,0,0-.74-.21,1,1,0,0,0-.57.15.91.91,0,0,0-.31.39,1.73,1.73,0,0,0-.13.55q0,.3,0,.62Z" transform="translate(-25.92 -49.11)" style="fill:#333"/><path d="M118.12,141.31a6.73,6.73,0,0,1,.55,1,2.17,2.17,0,0,1,.17.67.85.85,0,0,1-.09.46,3.34,3.34,0,0,1-.24.37,3.72,3.72,0,0,1-.31.37.94.94,0,0,1-.43.24,2.06,2.06,0,0,1-.71,0,5.86,5.86,0,0,1-1.14-.24l-7.14-2.06q-.29-.08-.6-.21a2.43,2.43,0,0,1-.56-.31,2.38,2.38,0,0,1-.47-.46,1.38,1.38,0,0,1-.25-1.19,1.9,1.9,0,0,1,.35-.7,1.31,1.31,0,0,1,.48-.4,1.75,1.75,0,0,1,.6-.17,2.62,2.62,0,0,1,.66,0,3.2,3.2,0,0,1,.66.17l4.2,1.52.11-.15-2.68-3.54a3.39,3.39,0,0,1-.34-.55,2.43,2.43,0,0,1-.21-.62,1.77,1.77,0,0,1,0-.65,1.49,1.49,0,0,1,.29-.64,1.59,1.59,0,0,1,.55-.48,1.39,1.39,0,0,1,.6-.15,1.5,1.5,0,0,1,.61.12,2.56,2.56,0,0,1,.56.32,2.51,2.51,0,0,1,.44.43,4.21,4.21,0,0,1,.36.53Z" transform="translate(-25.92 -49.11)" style="fill:#333"/><path d="M117.48,130.82a8.09,8.09,0,0,1-.64-.75,2.52,2.52,0,0,1-.41-.79,1.55,1.55,0,0,1,0-.82,1.78,1.78,0,0,1,.54-.84,1.73,1.73,0,0,1,.84-.49,1.52,1.52,0,0,1,.81.06,2.52,2.52,0,0,1,.77.45,9.08,9.08,0,0,1,.72.67l3.17,3.29q.24.24.47.45a1.77,1.77,0,0,0,.48.3.92.92,0,0,0,.49.06.94.94,0,0,0,.5-.28,1,1,0,0,0,.33-.76,2.18,2.18,0,0,0-.26-.95,6.05,6.05,0,0,0-.73-1.09q-.47-.58-1.07-1.19l-1.54-1.6a8.08,8.08,0,0,1-.64-.75,2.51,2.51,0,0,1-.41-.79,1.54,1.54,0,0,1,0-.82,1.78,1.78,0,0,1,.54-.84,1.73,1.73,0,0,1,.84-.49,1.52,1.52,0,0,1,.81.06,2.51,2.51,0,0,1,.77.45,9.08,9.08,0,0,1,.72.67l4.44,4.61q.35.36.65.73a2.35,2.35,0,0,1,.43.75,1.43,1.43,0,0,1,0,.8,1.86,1.86,0,0,1-.56.86,2,2,0,0,1-.88.54,1.52,1.52,0,0,1-.75,0,1.69,1.69,0,0,1-.61-.31,4.39,4.39,0,0,1-.44-.39,3.06,3.06,0,0,1,.27.7,2.56,2.56,0,0,1,.07.81,2.53,2.53,0,0,1-.81,1.68,4.13,4.13,0,0,1-1.07.74,3,3,0,0,1-1.32.3,3.64,3.64,0,0,1-1.5-.35,5.27,5.27,0,0,1-1.6-1.19Z" transform="translate(-25.92 -49.11)" style="fill:#333"/><path d="M138.77,116.59q.11.16.23.38a1,1,0,0,1,.12.5,1.25,1.25,0,0,1-.19.6,2.26,2.26,0,0,1-.7.68l-3.86,2.62.63.93a2.6,2.6,0,0,0,.39.45,1.71,1.71,0,0,0,.51.33,1.33,1.33,0,0,0,.61.1,1.35,1.35,0,0,0,.66-.25,1.84,1.84,0,0,0,.53-.5,1.14,1.14,0,0,0,.18-.45,2.58,2.58,0,0,0,0-.44,1.51,1.51,0,0,1,.06-.47,1.58,1.58,0,0,1,.29-.53,3.24,3.24,0,0,1,.73-.63,3.38,3.38,0,0,1,.5-.28,1.36,1.36,0,0,1,.5-.13,1,1,0,0,1,.48.1,1.2,1.2,0,0,1,.44.42,1.78,1.78,0,0,1,.32,1.32,3.48,3.48,0,0,1-.54,1.35,6.62,6.62,0,0,1-1.06,1.24,10.62,10.62,0,0,1-1.24,1,7.5,7.5,0,0,1-1.67.84A4.37,4.37,0,0,1,135,126a3.64,3.64,0,0,1-1.64-.51,4.69,4.69,0,0,1-1.47-1.46l-1.54-2.27a5.9,5.9,0,0,1-.84-1.71,4.11,4.11,0,0,1-.16-1.45,3.23,3.23,0,0,1,.33-1.2,4.73,4.73,0,0,1,.64-1,5.69,5.69,0,0,1,.75-.72q.38-.3.67-.5a8.36,8.36,0,0,1,1.79-1,5.13,5.13,0,0,1,1.47-.33,3,3,0,0,1,1.18.15,3.46,3.46,0,0,1,.92.48,4.18,4.18,0,0,1,.71.68q.31.38.55.73Zm-5.4,3.32,2.42-1.64q-.31-.46-.57-.79a1.9,1.9,0,0,0-.55-.5,1,1,0,0,0-.63-.11,2.06,2.06,0,0,0-.82.37,1.58,1.58,0,0,0-.54.55,1.1,1.1,0,0,0-.13.55,1.24,1.24,0,0,0,.13.5,3.49,3.49,0,0,0,.23.4Z" transform="translate(-25.92 -49.11)" style="fill:#333"/><path d="M242.18,71.86a.7.7,0,0,0,.38.26,1.79,1.79,0,0,0,.56.06,5.38,5.38,0,0,0,.7-.07l.79-.14,1.3-.2a5.8,5.8,0,0,1,1.33,0,3.71,3.71,0,0,1,1.24.34,2.77,2.77,0,0,1,1,.9,3.49,3.49,0,0,1,.56,1.13,3.07,3.07,0,0,1,.11,1.07,3,3,0,0,1-.26,1,4.62,4.62,0,0,1-.53.89,6,6,0,0,1-.69.77,7.67,7.67,0,0,1-.75.62,7.16,7.16,0,0,1-1.36.8,4.74,4.74,0,0,1-1.17.35,3.09,3.09,0,0,1-1,0,2.75,2.75,0,0,1-1.4-.68,3.24,3.24,0,0,1-.43-.48,1.27,1.27,0,0,1-.29-1.06,1.86,1.86,0,0,1,.78-1,1.45,1.45,0,0,1,1-.31,1.33,1.33,0,0,1,.92.59.59.59,0,0,0,.33.22.91.91,0,0,0,.39,0,1.43,1.43,0,0,0,.41-.16,3.68,3.68,0,0,0,.39-.25,1.12,1.12,0,0,0,.46-.63.78.78,0,0,0-.14-.68,1.07,1.07,0,0,0-.52-.38,2.32,2.32,0,0,0-.73-.13,5.89,5.89,0,0,0-.86,0l-.94.11c-.4.05-.8.1-1.21.14a6.19,6.19,0,0,1-1.2,0,3.35,3.35,0,0,1-1.08-.29,2.25,2.25,0,0,1-.87-.74,3.48,3.48,0,0,1-.66-1.41,2.47,2.47,0,0,1,.12-1.32,3.87,3.87,0,0,1,.81-1.26,11,11,0,0,1,1.41-1.26l.15-.11a6.86,6.86,0,0,1,1.4-.82,4.06,4.06,0,0,1,1.14-.3,2.44,2.44,0,0,1,.91.07,2.52,2.52,0,0,1,1.19.74q.2.23.33.4a1.06,1.06,0,0,1,.22.56,1.08,1.08,0,0,1-.1.52,1.71,1.71,0,0,1-.33.47,4.77,4.77,0,0,1-.47.43,1.37,1.37,0,0,1-.47.22,1.45,1.45,0,0,1-.46,0,1,1,0,0,1-.39-.11.77.77,0,0,1-.27-.22.84.84,0,0,0-.69-.34,1.39,1.39,0,0,0-.8.29,1.66,1.66,0,0,0-.28.26,1,1,0,0,0-.18.31.72.72,0,0,0,0,.35A.88.88,0,0,0,242.18,71.86Z" transform="translate(-25.92 -49.11)" style="fill:#333"/><path d="M260.72,63.28a4.32,4.32,0,0,1,.18.4,1,1,0,0,1,.05.51,1.24,1.24,0,0,1-.27.57,2.25,2.25,0,0,1-.79.58l-4.17,2.09.5,1a2.58,2.58,0,0,0,.32.49,1.72,1.72,0,0,0,.47.4,1.29,1.29,0,0,0,1.29,0,1.85,1.85,0,0,0,.59-.42,1.14,1.14,0,0,0,.23-.42,2.5,2.5,0,0,0,.08-.43,1.58,1.58,0,0,1,.12-.45,1.56,1.56,0,0,1,.36-.49,3.23,3.23,0,0,1,.8-.53,3.55,3.55,0,0,1,.53-.21,1.36,1.36,0,0,1,.51-.06,1,1,0,0,1,.46.17,1.2,1.2,0,0,1,.38.47,1.78,1.78,0,0,1,.14,1.35,3.47,3.47,0,0,1-.71,1.27,6.58,6.58,0,0,1-1.21,1.09,10.5,10.5,0,0,1-1.36.83,7.45,7.45,0,0,1-1.77.61,4.37,4.37,0,0,1-1.72,0,3.65,3.65,0,0,1-1.56-.72,4.69,4.69,0,0,1-1.27-1.65l-1.23-2.45a5.86,5.86,0,0,1-.61-1.8,4.12,4.12,0,0,1,0-1.46,3.21,3.21,0,0,1,.49-1.14,4.72,4.72,0,0,1,.76-.86,5.68,5.68,0,0,1,.84-.62c.28-.17.52-.3.73-.41a8.4,8.4,0,0,1,1.9-.72,5.13,5.13,0,0,1,1.5-.14,3,3,0,0,1,1.15.3,3.5,3.5,0,0,1,.85.6,4.08,4.08,0,0,1,.62.76q.26.41.45.79Zm-5.78,2.58,2.62-1.31q-.25-.49-.46-.86a1.89,1.89,0,0,0-.48-.57,1,1,0,0,0-.61-.19,2.07,2.07,0,0,0-.86.26,1.6,1.6,0,0,0-.61.47,1.1,1.1,0,0,0-.2.53,1.23,1.23,0,0,0,.06.51,3.53,3.53,0,0,0,.17.42Z" transform="translate(-25.92 -49.11)" style="fill:#333"/><path d="M271.85,56a1.75,1.75,0,0,1,0,1.41,1.81,1.81,0,0,1-1.09.8l-.31.12a2.19,2.19,0,0,0-.41.23,2.33,2.33,0,0,0-.4.37,1.74,1.74,0,0,0-.32.52,1.93,1.93,0,0,0-.13.71,2.94,2.94,0,0,0,.16.92l1,3.19a8,8,0,0,1,.24.91,2.29,2.29,0,0,1,0,.85,1.51,1.51,0,0,1-.33.72,1.76,1.76,0,0,1-.83.5,1.67,1.67,0,0,1-.95.07,1.48,1.48,0,0,1-.67-.39,2.38,2.38,0,0,1-.47-.7,8.35,8.35,0,0,1-.34-.88l-2-6.24a8.1,8.1,0,0,1-.24-.92,2.43,2.43,0,0,1,0-.86,1.44,1.44,0,0,1,.32-.71,1.72,1.72,0,0,1,.81-.49,1.41,1.41,0,0,1,1,0,1.54,1.54,0,0,1,.66.5,3.11,3.11,0,0,1,.45.83c.12.32.23.63.33.93l.18-.06a5.76,5.76,0,0,1,0-1.26,4.27,4.27,0,0,1,.29-1,2.55,2.55,0,0,1,.49-.76,1.58,1.58,0,0,1,.65-.42,2.31,2.31,0,0,1,.74-.13.94.94,0,0,1,.53.16,1.21,1.21,0,0,1,.38.44A4.54,4.54,0,0,1,271.85,56Z" transform="translate(-25.92 -49.11)" style="fill:#333"/><path d="M283.34,61.9a6.57,6.57,0,0,1-.29,1.12,2.15,2.15,0,0,1-.33.61.86.86,0,0,1-.38.28,3.22,3.22,0,0,1-.43.11,3.51,3.51,0,0,1-.48.05.93.93,0,0,1-.47-.12,2,2,0,0,1-.54-.45,5.82,5.82,0,0,1-.67-1l-3.82-6.37c-.1-.17-.2-.36-.29-.56a2.4,2.4,0,0,1-.2-.61,2.32,2.32,0,0,1,0-.66,1.44,1.44,0,0,1,.19-.59,1.42,1.42,0,0,1,.44-.46,1.9,1.9,0,0,1,.74-.27,1.31,1.31,0,0,1,.62,0,1.76,1.76,0,0,1,.55.28,2.6,2.6,0,0,1,.47.46,3.19,3.19,0,0,1,.37.58l2,4,.18,0,.46-4.41a3.37,3.37,0,0,1,.13-.63,2.43,2.43,0,0,1,.27-.6,1.78,1.78,0,0,1,.44-.48,1.5,1.5,0,0,1,.65-.27,1.59,1.59,0,0,1,.73,0,1.39,1.39,0,0,1,.54.3,1.51,1.51,0,0,1,.36.5,2.54,2.54,0,0,1,.19.62,2.47,2.47,0,0,1,0,.61,4,4,0,0,1-.1.64Z" transform="translate(-25.92 -49.11)" style="fill:#333"/><path d="M299.58,56c0,.13,0,.27,0,.44a1,1,0,0,1-.17.48,1.25,1.25,0,0,1-.49.4,2.27,2.27,0,0,1-1,.18l-4.66.1,0,1.13a2.57,2.57,0,0,0,.08.58,1.72,1.72,0,0,0,.25.56,1.3,1.3,0,0,0,1.16.56,1.86,1.86,0,0,0,.72-.13,1.13,1.13,0,0,0,.39-.28,2.51,2.51,0,0,0,.26-.36,1.53,1.53,0,0,1,.3-.36A1.6,1.6,0,0,1,297,59a3.27,3.27,0,0,1,1-.13,3.42,3.42,0,0,1,.57,0,1.34,1.34,0,0,1,.49.17,1,1,0,0,1,.35.35,1.2,1.2,0,0,1,.14.59,1.78,1.78,0,0,1-.45,1.28,3.49,3.49,0,0,1-1.19.84,6.6,6.6,0,0,1-1.57.46,10.57,10.57,0,0,1-1.58.16,7.53,7.53,0,0,1-1.86-.21,4.39,4.39,0,0,1-1.57-.72,3.65,3.65,0,0,1-1.1-1.33,4.7,4.7,0,0,1-.44-2l-.06-2.74a5.86,5.86,0,0,1,.22-1.89,4.09,4.09,0,0,1,.66-1.3,3.22,3.22,0,0,1,.93-.82,4.74,4.74,0,0,1,1.06-.45,5.68,5.68,0,0,1,1-.2l.84-.05a8.37,8.37,0,0,1,2,.17,5.06,5.06,0,0,1,1.41.52,3,3,0,0,1,.91.77,3.47,3.47,0,0,1,.51.91,4.14,4.14,0,0,1,.23,1c0,.32.06.63.07.91Zm-6.33-.15,2.93-.06q0-.55,0-1a1.9,1.9,0,0,0-.19-.72,1,1,0,0,0-.47-.44,2,2,0,0,0-.89-.13,1.57,1.57,0,0,0-.75.17,1.1,1.1,0,0,0-.41.39,1.23,1.23,0,0,0-.17.49,3.29,3.29,0,0,0,0,.46Z" transform="translate(-25.92 -49.11)" style="fill:#333"/><path d="M312.67,54.08a1.76,1.76,0,0,1-.62,1.27,1.81,1.81,0,0,1-1.33.26l-.33,0a2.24,2.24,0,0,0-.47,0,2.38,2.38,0,0,0-.52.16,1.77,1.77,0,0,0-.51.34,1.94,1.94,0,0,0-.42.59,3,3,0,0,0-.25.9l-.42,3.32a8.31,8.31,0,0,1-.17.92,2.3,2.3,0,0,1-.34.78,1.51,1.51,0,0,1-.61.51,1.77,1.77,0,0,1-1,.1,1.68,1.68,0,0,1-.89-.34,1.49,1.49,0,0,1-.44-.64,2.4,2.4,0,0,1-.13-.84,8.37,8.37,0,0,1,.07-.94l.83-6.51a8.45,8.45,0,0,1,.17-.94,2.45,2.45,0,0,1,.34-.79,1.45,1.45,0,0,1,.59-.51,1.7,1.7,0,0,1,.95-.1,1.42,1.42,0,0,1,.88.38,1.54,1.54,0,0,1,.38.73,3.07,3.07,0,0,1,.06.94c0,.34-.06.67-.1,1l.19,0a5.63,5.63,0,0,1,.58-1.12,4.23,4.23,0,0,1,.71-.82,2.53,2.53,0,0,1,.77-.47,1.59,1.59,0,0,1,.77-.1,2.29,2.29,0,0,1,.73.19,1,1,0,0,1,.41.37,1.22,1.22,0,0,1,.15.56A4.72,4.72,0,0,1,312.67,54.08Z" transform="translate(-25.92 -49.11)" style="fill:#333"/><path d="M317.88,51.29a8.79,8.79,0,0,1,.28-.92,2.4,2.4,0,0,1,.43-.75,1.5,1.5,0,0,1,.66-.44,1.76,1.76,0,0,1,1,0,1.78,1.78,0,0,1,.88.44,1.46,1.46,0,0,1,.38.7,2.46,2.46,0,0,1,0,.86,8.5,8.5,0,0,1-.18.95L318.69,63a8.72,8.72,0,0,1-.28.93,2.51,2.51,0,0,1-.43.76,1.44,1.44,0,0,1-.66.45,1.78,1.78,0,0,1-1,0,1.75,1.75,0,0,1-.87-.44,1.48,1.48,0,0,1-.38-.7,2.45,2.45,0,0,1,0-.87,8.72,8.72,0,0,1,.18-1Z" transform="translate(-25.92 -49.11)" style="fill:#333"/><path d="M333.89,64c0,.12-.11.25-.18.4a1,1,0,0,1-.34.38,1.25,1.25,0,0,1-.61.19,2.25,2.25,0,0,1-1-.2l-4.35-1.69-.41,1a2.65,2.65,0,0,0-.15.57,1.74,1.74,0,0,0,0,.61,1.3,1.3,0,0,0,.85,1,1.83,1.83,0,0,0,.71.16,1.14,1.14,0,0,0,.47-.11,2.53,2.53,0,0,0,.37-.23,1.53,1.53,0,0,1,.42-.21,1.58,1.58,0,0,1,.6-.06,3.25,3.25,0,0,1,.93.24,3.46,3.46,0,0,1,.51.25,1.38,1.38,0,0,1,.39.34,1,1,0,0,1,.19.46,1.21,1.21,0,0,1-.1.6,1.78,1.78,0,0,1-.91,1,3.49,3.49,0,0,1-1.42.32,6.63,6.63,0,0,1-1.62-.17,10.81,10.81,0,0,1-1.53-.46,7.54,7.54,0,0,1-1.63-.9A4.36,4.36,0,0,1,324,66.25a3.61,3.61,0,0,1-.51-1.64,4.69,4.69,0,0,1,.37-2l1-2.55a5.93,5.93,0,0,1,.93-1.66,4.1,4.1,0,0,1,1.11-1,3.2,3.2,0,0,1,1.18-.4,4.72,4.72,0,0,1,1.15,0,5.7,5.7,0,0,1,1,.21c.31.1.58.19.79.27a8.36,8.36,0,0,1,1.81.93,5.13,5.13,0,0,1,1.1,1,3,3,0,0,1,.54,1.05,3.44,3.44,0,0,1,.13,1,4.17,4.17,0,0,1-.15,1q-.13.47-.29.86Zm-5.79-2.56,2.73,1.06q.2-.51.33-.92a1.9,1.9,0,0,0,.1-.74,1,1,0,0,0-.26-.58,2.05,2.05,0,0,0-.77-.46,1.56,1.56,0,0,0-.76-.13,1.1,1.1,0,0,0-.53.2,1.24,1.24,0,0,0-.34.39,3.44,3.44,0,0,0-.2.41Z" transform="translate(-25.92 -49.11)" style="fill:#333"/><path d="M342.41,66.35a.7.7,0,0,0-.09.45,1.83,1.83,0,0,0,.17.54,5.33,5.33,0,0,0,.34.62l.44.67q.35.53.7,1.12a5.82,5.82,0,0,1,.55,1.2,3.67,3.67,0,0,1,.18,1.27,2.76,2.76,0,0,1-.42,1.31,3.46,3.46,0,0,1-.81,1,3.07,3.07,0,0,1-.94.53,3,3,0,0,1-1,.16,4.54,4.54,0,0,1-1-.13,5.87,5.87,0,0,1-1-.33,7.6,7.6,0,0,1-.87-.44,7.08,7.08,0,0,1-1.28-.93,4.73,4.73,0,0,1-.78-.93,3,3,0,0,1-.39-.9,2.73,2.73,0,0,1-.08-.83,2.77,2.77,0,0,1,.14-.72,3.27,3.27,0,0,1,.26-.59,1.27,1.27,0,0,1,.86-.69,1.85,1.85,0,0,1,1.2.33,1.44,1.44,0,0,1,.67.76,1.33,1.33,0,0,1-.18,1.08.6.6,0,0,0-.07.39.93.93,0,0,0,.16.36,1.48,1.48,0,0,0,.31.32,4.06,4.06,0,0,0,.38.26,1.12,1.12,0,0,0,.76.17.78.78,0,0,0,.57-.39,1.08,1.08,0,0,0,.15-.63,2.35,2.35,0,0,0-.17-.72,6.06,6.06,0,0,0-.38-.77l-.48-.82q-.31-.51-.61-1.05a6.23,6.23,0,0,1-.48-1.1,3.35,3.35,0,0,1-.16-1.11,2.25,2.25,0,0,1,.33-1.09,3.49,3.49,0,0,1,1-1.17,2.47,2.47,0,0,1,1.26-.41,3.87,3.87,0,0,1,1.48.24,10.9,10.9,0,0,1,1.72.79l.16.09a6.83,6.83,0,0,1,1.3,1,4.06,4.06,0,0,1,.73.93,2.49,2.49,0,0,1,.29.86,2.53,2.53,0,0,1-.21,1.39c-.09.19-.17.34-.24.46a1,1,0,0,1-.42.42,1.07,1.07,0,0,1-.52.12,1.71,1.71,0,0,1-.56-.12,4.91,4.91,0,0,1-.58-.27,1.32,1.32,0,0,1-.39-.34,1.41,1.41,0,0,1-.22-.4,1,1,0,0,1-.06-.4.77.77,0,0,1,.1-.34.84.84,0,0,0,0-.77,1.39,1.39,0,0,0-.58-.62,1.76,1.76,0,0,0-.35-.16,1,1,0,0,0-.35,0,.74.74,0,0,0-.33.11A.88.88,0,0,0,342.41,66.35Z" transform="translate(-25.92 -49.11)" style="fill:#333"/><path d="M353.8,74.14a.7.7,0,0,0-.16.43,1.79,1.79,0,0,0,.08.56,5.18,5.18,0,0,0,.25.66q.16.35.33.73.27.58.53,1.21A5.87,5.87,0,0,1,355.2,79a3.68,3.68,0,0,1,0,1.28,2.75,2.75,0,0,1-.61,1.24,3.48,3.48,0,0,1-.94.83,3.12,3.12,0,0,1-1,.38,3,3,0,0,1-1,0,4.59,4.59,0,0,1-1-.28,5.88,5.88,0,0,1-.92-.47,7.91,7.91,0,0,1-.79-.56,7.12,7.12,0,0,1-1.12-1.11,4.71,4.71,0,0,1-.63-1,3,3,0,0,1-.25-.94,2.71,2.71,0,0,1,0-.83,2.78,2.78,0,0,1,.25-.7,3.12,3.12,0,0,1,.35-.54,1.27,1.27,0,0,1,1-.55,1.84,1.84,0,0,1,1.14.51,1.43,1.43,0,0,1,.54.85,1.32,1.32,0,0,1-.33,1,.6.6,0,0,0-.13.38.93.93,0,0,0,.1.38,1.45,1.45,0,0,0,.26.36,3.55,3.55,0,0,0,.33.31,1.13,1.13,0,0,0,.73.29.78.78,0,0,0,.62-.3,1.08,1.08,0,0,0,.24-.6,2.32,2.32,0,0,0-.06-.74,5.85,5.85,0,0,0-.26-.82l-.35-.88q-.23-.55-.44-1.13a6.21,6.21,0,0,1-.3-1.16,3.3,3.3,0,0,1,0-1.12,2.24,2.24,0,0,1,.49-1,3.49,3.49,0,0,1,1.2-1,2.47,2.47,0,0,1,1.31-.22,3.89,3.89,0,0,1,1.43.46,10.83,10.83,0,0,1,1.57,1l.15.12a6.77,6.77,0,0,1,1.14,1.15,4,4,0,0,1,.58,1,2.45,2.45,0,0,1,.16.9,2.54,2.54,0,0,1-.42,1.34c-.11.17-.21.31-.3.42a1.05,1.05,0,0,1-.48.36,1.08,1.08,0,0,1-.53,0,1.67,1.67,0,0,1-.54-.2,4.6,4.6,0,0,1-.53-.35,1.34,1.34,0,0,1-.33-.39,1.43,1.43,0,0,1-.16-.43,1,1,0,0,1,0-.41.77.77,0,0,1,.15-.32.84.84,0,0,0,.15-.75,1.39,1.39,0,0,0-.48-.7,1.75,1.75,0,0,0-.32-.21.93.93,0,0,0-.34-.1.73.73,0,0,0-.35.05A.89.89,0,0,0,353.8,74.14Z" transform="translate(-25.92 -49.11)" style="fill:#333"/><rect x="56.24" y="371.3" width="54.33" height="54.33" rx="2" ry="2"/><path d="M215.25,477.32a25.15,25.15,0,1,1,24.94-25.15A25.06,25.06,0,0,1,215.25,477.32Zm0-49a23.89,23.89,0,1,0,23.67,23.89,23.81,23.81,0,0,0-23.67-23.89Z" transform="translate(-25.92 -49.11)" style="fill:#020202"/><g style="clip-path:url(#a)"><path d="M243.07,488.25s.41,5.5-1.09,6.61a2.64,2.64,0,0,1-2.44,2.27s-.47,1.26-2.67.62-4.08-7.08-4.08-7.08S239.43,485,243.07,488.25Z" transform="translate(-25.92 -49.11)" style="fill:#f4cf8c"/><path d="M223.46,460.7s17.66,2.84,19.61,27.55a15.8,15.8,0,0,1-6.74,2.25s.3-19-12.87-29.79Z" transform="translate(-25.92 -49.11)" style="fill:#050505"/><path d="M240.85,477.36a18.43,18.43,0,0,1-6.18,1.6l.32,1.22a29.68,29.68,0,0,0,6.24-1.73l-.38-1.09Zm-7.06-1.22c.13.41.28.79.38,1.2a21.64,21.64,0,0,0,6.07-1.52c-.17-.38-.32-.77-.49-1.13a20.71,20.71,0,0,1-6,1.45Zm9.28,12.1a46.6,46.6,0,0,0-.9-6.24,16.14,16.14,0,0,1-6.37,2.22,39.64,39.64,0,0,1,.56,6.27,15.79,15.79,0,0,0,6.72-2.25Z" transform="translate(-25.92 -49.11)" style="fill:#dd002a"/><circle cx="179.32" cy="392.88" r="3.79" style="fill:#f4cf8c"/><circle cx="179.32" cy="392.88" r="3.79" style="fill:#f4cf8c"/><path d="M201.45,442a1.84,1.84,0,0,0,0,.34,3.81,3.81,0,0,0,.86-.47c1.8-1.15,1.84-2.52,1.45-3.38A3.85,3.85,0,0,0,201.45,442Z" transform="translate(-25.92 -49.11)" style="fill:#f4cf8c"/><circle cx="177.38" cy="392.88" r="1.84" style="fill:#f4cf8c"/><path d="M203.29,440.17a.73.73,0,0,0-.21,0,1.94,1.94,0,0,1,0,3.64l.21,0a1.84,1.84,0,1,0,0-3.68Z" transform="translate(-25.92 -49.11)" style="fill:#d8af6f"/><path d="M203.06,440.19l-.17,0a1.67,1.67,0,0,0-1.43,1.84A1.83,1.83,0,0,1,203.06,440.19Zm-1.6,1.8a1.68,1.68,0,0,0,1.43,1.84.47.47,0,0,0,.17,0A1.83,1.83,0,0,1,201.45,442Z" transform="translate(-25.92 -49.11)" style="fill:#f4cf8c"/><circle cx="201.5" cy="392.88" r="3.79" style="fill:#f4cf8c"/><circle cx="201.5" cy="392.88" r="3.79" style="fill:#f4cf8c"/><circle cx="203.45" cy="392.88" r="1.84" style="fill:#f4cf8c"/><path d="M228.31,442a1.73,1.73,0,0,1,1.26-1.82l-.21,0a1.84,1.84,0,1,0,0,3.68.73.73,0,0,0,.21,0A1.73,1.73,0,0,1,228.31,442Z" transform="translate(-25.92 -49.11)" style="fill:#d8af6f"/><path d="M231.2,442a1.68,1.68,0,0,0-1.43-1.84.47.47,0,0,0-.17,0A1.86,1.86,0,0,1,231.2,442Zm-1.6,1.82.17,0A1.67,1.67,0,0,0,231.2,442,1.83,1.83,0,0,1,229.6,443.81Zm-34.94.62s3.61.47,3.14-3.14c0,0,1.26,2,4.08.15s1.33-4.17.56-4.23-1.88-.94-4.64,1.88l-1.56-3.61,1.8-2.35s.26,3.4,2.87,2.44.66-6.76-1.69-6.76L195,431.23s.79-2.2,4.23-4c0,0,1.33-.79.56-2.76s-8.26-.56-9.43,9a3.89,3.89,0,0,1-1-3.23c.3-2-3.85-1.41-3.06,2.82a6.62,6.62,0,0,0,4.88,5.11,5.75,5.75,0,0,1,.38,4.79s1.58,2,3.14,1.43Zm7.23-3c2.82-1.8,1.33-4.17.56-4.23a3.45,3.45,0,0,0-2.12,0l.92,1.9s-.19,2.72-3.23,2a1.24,1.24,0,0,1-.11.28C198.24,441.82,199.51,443,201.88,441.43Zm-4.06.11c-.47.83-2.1,2.46-6,.45a6.1,6.1,0,0,1-.28,1s1.56,2,3.14,1.41C194.65,444.43,198.1,444.88,197.82,441.54Zm.21-8.43s.26,3.4,2.87,2.44c1.07-.38,1.37-1.6,1.2-2.89-.66.68-2.67,2.4-3.46-1.24L195,435.62l-2.84,1.65,3.55-.9,2.07,2.69-1.56-3.61,1.78-2.33Zm-2.46-2.91a10.17,10.17,0,0,1,3.66-3s1.33-.79.56-2.76c0,0,0-.06,0-.11a3.41,3.41,0,0,1-1.26,1.8c-1.45,1-6.65,4.62-5,10.07a6.79,6.79,0,0,1,2.1-6Zm-5.3,3.23a3.78,3.78,0,0,1-.94-3.14c.13-.77-.45-1.15-1.13-1.07-.15,2.1.15,6.37,4.3,7.59a4.92,4.92,0,0,1-2.22-3.38Z" transform="translate(-25.92 -49.11)" style="fill:#f4cf8c"/><path d="M191.51,443l3.14,1.41s-2.82,15.55,11.93,16.19c0,0,.11,10-9,9.84C197.58,470.46,185.54,460.87,191.51,443Z" transform="translate(-25.92 -49.11)" style="fill:#050505"/><path d="M195.27,452.88l-.13-.43a11.41,11.41,0,0,1-5.26,1.15l.06,1a12,12,0,0,0,5.54-1.22v0a3.69,3.69,0,0,1-.15-.45l-.06-.06Zm1,2.22c-.06-.13-.15-.26-.21-.38a14.68,14.68,0,0,1-6,1.3c0,.38.11.77.17,1.13a12.44,12.44,0,0,0,6.27-1.63v0c-.09-.13-.15-.26-.24-.38v0ZM191.51,443a30.25,30.25,0,0,0-1.5,6.5,5.75,5.75,0,0,0,4.47-.64,18.81,18.81,0,0,1,.17-4.45L191.51,443Z" transform="translate(-25.92 -49.11)" style="fill:#dd002a"/><path d="M196.08,482.9l19.25,24.81s.75.28,1.07-.11V482.9Zm40.48,0-19.25,24.81s-.75.28-1.07-.11V482.9Zm-11.38-22.69H207.48C188.62,468.49,193,499.73,193,499.73h23.44V485.45l1.3,14.29h21.9s4.41-31.24-14.46-39.52Z" transform="translate(-25.92 -49.11)" style="fill:#050505"/><path d="M232.78,490.69s1.88,6.44,4.08,7.08,2.67-.62,2.67-.62a2.35,2.35,0,0,0,1.43-.51,70.4,70.4,0,0,0,0-9.32c-3.64-.49-8.19,3.38-8.19,3.38Z" transform="translate(-25.92 -49.11)" style="fill:#f4cf8c"/><path d="M241.08,489.27c-.26-6.72-1.6-15.33-6.14-21.81a22.27,22.27,0,0,0-11.48-6.76c13.17,10.78,12.87,29.79,12.87,29.79A13.92,13.92,0,0,0,241.08,489.27Z" transform="translate(-25.92 -49.11)" style="fill:#930023"/><path d="M193.75,479.67c-.06.28-.13.58-.17.86,5.22-1.92,13.45-3.17,22.73-3.17s17.54,1.24,22.73,3.17c-.06-.28-.11-.58-.17-.86-5.22-1.88-13.39-3.1-22.56-3.1S199,477.79,193.75,479.67Zm1-4c-.09.26-.15.51-.24.77,5.24-1.73,13-2.82,21.77-2.82s16.53,1.09,21.77,2.82c-.09-.26-.15-.51-.24-.77C232.63,474,224.93,473,216.34,473S200,474,194.8,475.72Zm7.31-12.08a18.56,18.56,0,0,0-3.59,11.55l1.09-.49a19,19,0,0,1,3.76-12.08c-.43.32-.86.66-1.26,1Zm27.16-1A18.92,18.92,0,0,1,233,474.69l1.09.49a18.75,18.75,0,0,0-3.59-11.55c-.41-.36-.83-.71-1.26-1Zm-12.83,22.84,1.3,14.29h21.9a65.43,65.43,0,0,0-.66-19.55l-1.11-.36c1.84,5,1,18.58,1,18.58H218.93L217,477.34h-1.52l-.19,21.07H194a77.91,77.91,0,0,1,.53-18.54l-.9.26a65,65,0,0,0-.66,19.61h23.44V485.45Z" transform="translate(-25.92 -49.11)" style="fill:#dd002a"/><path d="M226.13,459.55a15.7,15.7,0,0,1-10,3.42c-7.36,0-9.65-3.42-9.65-3.42l-1.3-24h22.2Zm0,0a15.7,15.7,0,0,1-10,3.42c-7.36,0-9.65-3.42-9.65-3.42l-1.3-24h22.2Zm0,0a15.7,15.7,0,0,1-10,3.42c-7.36,0-9.65-3.42-9.65-3.42l-1.3-24h22.2Z" transform="translate(-25.92 -49.11)" style="fill:#f4cf8c"/><path d="M219.14,439.66l.56-.71a10.72,10.72,0,0,1,5.07,1.54,5.62,5.62,0,0,0-5.56-1.82l.11-.6-.94,1.54a10.88,10.88,0,0,1,0,3.57h-4a10.88,10.88,0,0,1,0-3.57l-.94-1.54.11.6a5.62,5.62,0,0,0-5.56,1.82A10.66,10.66,0,0,1,213,439l.56.71A4.63,4.63,0,0,1,210,442a3.6,3.6,0,0,0,3.61-1.37,13.32,13.32,0,0,0,.13,3l2.65,1.88,0,0,0,0,2.65-1.88a13.32,13.32,0,0,0,.13-3A3.6,3.6,0,0,0,222.8,442,4.62,4.62,0,0,1,219.14,439.66Z" transform="translate(-25.92 -49.11)" style="fill:#b27d30"/><ellipse cx="190.4" cy="398.31" rx="3.64" ry="2.18" style="fill:#050505"/><path d="M216.32,449.71a5.39,5.39,0,0,0,2.2-.56,3,3,0,0,0-2.2-.77,3.14,3.14,0,0,0-2.2.77A5.48,5.48,0,0,0,216.32,449.71Z" transform="translate(-25.92 -49.11)" style="fill:#dd002a"/><path d="M216.32,445.24c-2,0-3.64,1-3.64,2.18a.59.59,0,0,0,0,.19H220c0-.06,0-.13,0-.19C220,446.22,218.35,445.24,216.32,445.24Z" transform="translate(-25.92 -49.11)" style="fill:#fff"/><path d="M216.32,451a5.35,5.35,0,0,1-2-.36,2.52,2.52,0,0,0,2,1,2.55,2.55,0,0,0,2-1A5.35,5.35,0,0,1,216.32,451Zm0,6.5a9.47,9.47,0,0,1-3.42-.62,4.3,4.3,0,0,0,3.42,1.67,4.36,4.36,0,0,0,3.42-1.67A9.39,9.39,0,0,1,216.32,457.52Z" transform="translate(-25.92 -49.11)" style="fill:#c98c28"/><path d="M205.43,439.51H227.2l.21-3.94h-22.2Z" transform="translate(-25.92 -49.11)" style="fill:#cea063"/><path d="M227.48,435.55l1.95-11.27s-2.93-5.77-13-5.77c-12.28,0-13.17,5.77-13.17,5.77l2,11.27Z" transform="translate(-25.92 -49.11)" style="fill:#050505"/><path d="M204.34,430.72l.83,4.83h22.31l.83-4.83h-24Z" transform="translate(-25.92 -49.11)" style="fill:#dd002a"/><path d="M230.84,438.25h-29l-.9-2.69h30.84Z" transform="translate(-25.92 -49.11)" style="fill:#050505"/><circle cx="190.4" cy="383.17" r="3.59" style="fill:#050505"/><path d="M216.32,435.42a3.14,3.14,0,1,1,3.14-3.14A3.15,3.15,0,0,1,216.32,435.42Zm0-5.88a2.74,2.74,0,1,0,2.74,2.74,2.73,2.73,0,0,0-2.74-2.74Zm0,5a2.27,2.27,0,1,1,2.27-2.27A2.27,2.27,0,0,1,216.32,434.55Zm0-4.26a2,2,0,1,0,2,2,2,2,0,0,0-2-2Zm.58,1.18,1-.75-.79,1,1.24-.32-1.09.66,1.26.15-1.26.21,1.15.6-1.24-.26.83,1-1.07-.68.43,1.2-.75-1,0,1.28-.32-1.24-.49,1.18.13-1.26-.88.92.58-1.13-1.15.53,1-.86-1.28.09,1.2-.45-1.22-.38,1.28,0-1-.79,1.18.47-.64-1.09.92.88-.21-1.26.56,1.15.26-1.24.11,1.28.71-1.07Z" transform="translate(-25.92 -49.11)" style="fill:#dd002a"/><path d="M217,432.28a.68.68,0,1,1-.68-.68A.68.68,0,0,1,217,432.28Z" transform="translate(-25.92 -49.11)" style="fill:#050505"/><path d="M216.17,463c-7.36,0-9.65-3.42-9.65-3.42l.26,4.88s2.2,3.34,9.39,3.34a15.24,15.24,0,0,0,9.69-3.34l.28-4.9A15.79,15.79,0,0,1,216.17,463Z" transform="translate(-25.92 -49.11)" style="fill:#dd002a"/><path d="M216.32,467.7a9.28,9.28,0,0,0,.28-2.33,9,9,0,0,0-.28-2.33,9.28,9.28,0,0,0-.28,2.33A9.16,9.16,0,0,0,216.32,467.7Z" transform="translate(-25.92 -49.11)" style="fill:#050505"/><circle cx="192.15" cy="416.41" r="0.66" style="fill:#930023"/><circle cx="192" cy="416.26" r="0.66" style="fill:#fff"/><path d="M218.71,472.08h-4.77a1.38,1.38,0,0,0-1.37,1.37v3.4a1.38,1.38,0,0,0,1.37,1.37h4.77a1.38,1.38,0,0,0,1.37-1.37v-3.4A1.36,1.36,0,0,0,218.71,472.08Zm-.36,1.9v2.33a.26.26,0,0,1-.26.26h-3.53a.26.26,0,0,1-.26-.26V474a.26.26,0,0,1,.26-.26h3.53A.26.26,0,0,1,218.35,474Z" transform="translate(-25.92 -49.11)" style="fill:#ffb000"/><path d="M213.69,443.62l2.63,1.86,0,0,0,0,2.63-1.86h-5.3Z" transform="translate(-25.92 -49.11)" style="fill:#c98c28"/><path d="M216.32,445.07s-2.22-2.65-7.44-1.35L201,451.49a10.61,10.61,0,0,0,7.29,1.54C212.72,452.45,216.36,447.7,216.32,445.07Zm0,0s2.22-2.65,7.44-1.35,7.89,7.76,7.89,7.76a10.61,10.61,0,0,1-7.29,1.54C219.91,452.45,216.29,447.7,216.32,445.07Z" transform="translate(-25.92 -49.11)" style="fill:#4f1907"/><path d="M227.14,467.74h.47l-.83,1-.81-1h.47v-.45h-1.75v.45h.68l1.15,1.43v.9h-.68v.45h1.84v-.45H227v-.9l1.15-1.43h.68v-.45h-1.75Z" transform="translate(-25.92 -49.11)" style="fill:#dd002a"/></g><path d="M112.43,438.08l0-11.06h-6.17l0,11.06,3.08,4.23Z" transform="translate(-25.92 -49.11)" style="fill:#fff"/><path d="M106.26,457v11.1h6.17V457l-3.08-4.23Z" transform="translate(-25.92 -49.11)" style="fill:#fff"/><path d="M112.43,457l6.49,9,5-3.62-6.49-9-5-1.6Z" transform="translate(-25.92 -49.11)" style="fill:#00f2e6"/><path d="M106.26,438.08l-6.54-9-5,3.62,6.49,9,5,1.6Z" transform="translate(-25.92 -49.11)" style="fill:#00f2e6"/><path d="M101.25,441.7l-10.52-3.41-1.89,5.84,10.52,3.45,5-1.64Z" transform="translate(-25.92 -49.11)" style="fill:#00b9f1"/><path d="M114.32,449.18l3.08,4.23,10.52,3.41,1.89-5.84-10.52-3.41Z" transform="translate(-25.92 -49.11)" style="fill:#00b9f1"/><path d="M119.29,447.58l10.52-3.45-1.89-5.84L117.4,441.7l-3.08,4.23Z" transform="translate(-25.92 -49.11)" style="fill:#d63aff"/><path d="M99.36,447.58,88.83,451l1.89,5.84,10.52-3.41,3.08-4.23Z" transform="translate(-25.92 -49.11)" style="fill:#d63aff"/><path d="M101.25,453.41l-6.49,9,5,3.62,6.54-9v-5.22Z" transform="translate(-25.92 -49.11)" style="fill:#fb015b"/><path d="M117.4,441.7l6.49-9-5-3.62-6.49,9v5.22Z" transform="translate(-25.92 -49.11)" style="fill:#fb015b"/><path d="M317.46,423.68a4.09,4.09,0,0,1,4,0L339.71,434a3.76,3.76,0,0,1,1.9,3.24v20.69a3.8,3.8,0,0,1-2,3.31l-18.19,10.26a4,4,0,0,1-4-.11l-5.46-3.16a3.21,3.21,0,0,1-1.05-.76c.23-.31.65-.35,1-.49a12.74,12.74,0,0,0,2.15-1,.5.5,0,0,1,.56,0c1.56.89,3.1,1.81,4.66,2.69.33.19.67-.06,1-.22L338,458.4a.59.59,0,0,0,.32-.58q0-10.24,0-20.48a.64.64,0,0,0-.38-.64l-18.13-10.22a.63.63,0,0,0-.71,0L301,436.7a.63.63,0,0,0-.38.64q0,10.24,0,20.48a.58.58,0,0,0,.33.57l4.84,2.73a3.74,3.74,0,0,0,3,.41,2.3,2.3,0,0,0,1.49-2.16c0-6.79,0-13.57,0-20.36a.51.51,0,0,1,.56-.52c.77,0,1.55,0,2.33,0a.54.54,0,0,1,.51.62c0,6.83,0,13.66,0,20.49a5.19,5.19,0,0,1-2.43,4.69,7.48,7.48,0,0,1-6.69-.18c-1.77-.89-3.47-1.93-5.21-2.88a3.79,3.79,0,0,1-2-3.31V437.23a3.77,3.77,0,0,1,2-3.28Z" transform="translate(-25.92 -49.11)" style="fill:#8cc84b"/><path d="M322.75,438c2.65-.17,5.48-.1,7.86,1.2a5.94,5.94,0,0,1,2.9,5.14.56.56,0,0,1-.6.41c-.77,0-1.54,0-2.3,0a.59.59,0,0,1-.56-.58,3.51,3.51,0,0,0-1.68-2.42,9.94,9.94,0,0,0-4.6-.66,6.24,6.24,0,0,0-3.29.82,2.09,2.09,0,0,0-.69,2.33c.25.59.92.77,1.48.95,3.19.83,6.57.75,9.69,1.85a4.56,4.56,0,0,1,3,2.67,5.71,5.71,0,0,1-1,5.45,7.63,7.63,0,0,1-4.1,2.21,19.69,19.69,0,0,1-6.18.26,9.75,9.75,0,0,1-5.44-2,5.71,5.71,0,0,1-1.84-4.5.52.52,0,0,1,.56-.45h2.32a.54.54,0,0,1,.55.54,3.51,3.51,0,0,0,1.31,2.47c1.57,1,3.54.94,5.34,1,1.49-.07,3.16-.09,4.38-1.07a2.42,2.42,0,0,0,.66-2.31c-.19-.68-.9-1-1.52-1.21-3.15-1-6.56-.63-9.68-1.76a4.71,4.71,0,0,1-3-2.59,5.31,5.31,0,0,1,1.06-5.52,8.56,8.56,0,0,1,5.31-2.13Z" transform="translate(-25.92 -49.11)" style="fill:#8cc84b"/></svg>
