<svg xmlns="http://www.w3.org/2000/svg" xmlns:xlink="http://www.w3.org/1999/xlink" viewBox="0 0 500 500"><defs><style>.cls-1,.cls-2{fill:none;}.cls-2{stroke:#ffdf19;stroke-linecap:round;stroke-width:10px;}.cls-2,.cls-5{stroke-miterlimit:10;}.cls-3{fill:#1c1c1c;}.cls-4{fill:#fd574f;}.cls-5,.cls-8{fill:#fff;}.cls-5{stroke:#fff;}.cls-6{fill:#262626;}.cls-7{fill:#424242;}.cls-9{fill:#2d2d2d;}.cls-10{font-size:48px;}.cls-10,.cls-12{fill:#333;font-family:ConcertOne-Regular, Concert One;}.cls-11,.cls-12{font-size:24px;}.cls-13{fill:#020202;}.cls-14{clip-path:url(#clip-path);}.cls-15{fill:#f4cf8c;}.cls-16{fill:#050505;}.cls-17{fill:#dd002a;}.cls-18{fill:#d8af6f;}.cls-19{fill:#930023;}.cls-20{fill:#b27d30;}.cls-21{fill:#c98c28;}.cls-22{fill:#cea063;}.cls-23{fill:#ffb000;}.cls-24{fill:#4f1907;}.cls-25{fill:#00f2e6;}.cls-26{fill:#00b9f1;}.cls-27{fill:#d63aff;}.cls-28{fill:#fb015b;}.cls-29{fill:#8cc84b;}.cls-30{fill:#007acc;}.cls-31{fill:#004266;}</style><clipPath id="clip-path"><path class="cls-1" d="M226.6,428.29v-.06l1.41-7.1s-3.14-7.25-13.71-6.37-11.87,3.31-13.6,6.22l1,4.64-2,1.26s-.71-2.11-1.82-2.2c0,0,1.65-2.37.47-4s-7.48-1.5-9.92,6.84c0,0-.32-2.52-1.35-2.52s-4.81,1.37-3.78,5.3,4.57,5.11,5.75,5.61a2,2,0,0,1,.32,1.64c-.13.49-3,9.33-.6,17.5,1.78,6.09,7.49,11.4,7.49,11.4A24.14,24.14,0,0,0,213,473.12a24.56,24.56,0,0,0,13.6-44.83Z"/></clipPath></defs><title>Artboard 1</title><g id="Layer_3" data-name="Layer 3"><line class="cls-2" x1="323.33" y1="93" x2="362" y2="93"/><line class="cls-2" x1="209.03" y1="113" x2="332" y2="113"/><line class="cls-2" x1="149.03" y1="263" x2="272" y2="263"/><line class="cls-2" x1="319.03" y1="143" x2="442" y2="143"/><line class="cls-2" x1="69.03" y1="183" x2="192" y2="183"/><line class="cls-2" x1="129.03" y1="203" x2="252" y2="203"/><line class="cls-2" x1="105" y1="93" x2="306.9" y2="93"/><line class="cls-2" x1="90" y1="93" x2="90" y2="93"/><line class="cls-2" x1="460" y1="143" x2="460" y2="143"/></g><g id="Layer_1" data-name="Layer 1"><path class="cls-3" d="M391.42,87.87,389.77,86l-1.1-1.1c-1.64-1.37-3.56-3-5.48-4.38-21.93-17-45.79-21.66-71-14C285.31,75,266.66,92.53,257.34,118a85.16,85.16,0,0,0-32.9-6.86h-4.11a59.43,59.43,0,0,0-6.86.83c-27.69,3.29-47.7,16.72-60,40C137,183.28,140,215.64,161.65,245.25c23.58,32.63,55.94,45.24,94.6,37.56,13.7-2.74,24.95.55,34.27,10.69,13.71,14.26,27.42,28.25,39.21,39.76a13.33,13.33,0,0,0,7.67,3.57c.83,0,1.65.27,2.47.27,12.06,0,23.31-9.05,26.05-21.11,1.37-5.21,1.92-11.79-4.39-17.55-7.4-7.13-14.81-14.81-22.21-22.21-5.21-5.48-10.42-10.69-15.9-16.18-8.5-8.22-12.06-17.82-10.69-28.51l41.67.27c-7.95,8.78-11.51,20.84-11,37.29,0,3.84.28,7.68,0,11.52,3.84,4.11,8,8.22,12.07,12.06v-6.3c0-7.41.27-15.08.27-22.49,0-14,5.76-24.4,17.55-31.25a82.51,82.51,0,0,0,25.77-24.13C426,172.59,422.12,119.67,391.42,87.87Zm-136.82,179c-3.84,4.11-7.95,6-12.89,5.76H236c-41.68-.28-76.77-34.82-79.79-78.42-2.47-35.37,24.68-67.17,60.59-70.46,24.68-2.2,49.36,8,66.9,27.42,15.63,17.27,23,39.2,20.57,62a13.65,13.65,0,0,1-3.84,8.5C285.31,235.93,269.68,251.28,254.6,266.91ZM319,272.67c5.76,5.48,11.52,11.51,17.28,17.27,2.46,2.74,5.21,5.21,7.67,7.95l2.74,2.74,6.59,6.58c3,3,1.64,8.23-3.29,13.16-4.67,4.67-9.88,6-12.89,2.75l-9.6-9.6c-8.5-8.77-17.55-17.55-26-26.6-10.15-10.69-20.57-16.45-32.08-17.27l31.25-31,.28.27v-.27C301.21,250.46,307.24,261.43,319,272.67Zm56.48-56.21c-2.74,2.19-5.21,3.29-8.77,3-16.45-.28-33.72-.28-51-.28a85.85,85.85,0,0,0,0-29.06c-4.38-28-22.48-52.37-46.61-66.35a84.44,84.44,0,0,1,15.36-25.5c23-26.87,64.7-29.89,92.12-7.13,19.19,15.9,29.34,40.58,28,66.63A80.18,80.18,0,0,1,375.51,216.46Z"/><path class="cls-3" d="M391.42,87.87,389.77,86l-1.1-1.1c-1.64-1.37-3.56-3-5.48-4.38-21.93-17-45.79-21.66-71-14C285.31,75,266.66,92.53,257.34,118a85.16,85.16,0,0,0-32.9-6.86h-4.11a59.43,59.43,0,0,0-6.86.83c-27.69,3.29-47.7,16.72-60,40C137,183.28,140,215.64,161.65,245.25c23.58,32.63,55.94,45.24,94.6,37.56,13.7-2.74,24.95.55,34.27,10.69,13.71,14.26,27.42,28.25,39.21,39.76a13.33,13.33,0,0,0,7.67,3.57c.83,0,1.65.27,2.47.27,12.06,0,23.31-9.05,26.05-21.11,1.37-5.21,1.92-11.79-4.39-17.55-7.4-7.13-14.81-14.81-22.21-22.21-5.21-5.48-10.42-10.69-15.9-16.18-8.5-8.22-12.06-17.82-10.69-28.51l41.67.27c-7.95,8.78-11.51,20.84-11,37.29,0,3.84.28,7.68,0,11.52,3.84,4.11,8,8.22,12.07,12.06v-6.3c0-7.41.27-15.08.27-22.49,0-14,5.76-24.4,17.55-31.25a82.51,82.51,0,0,0,25.77-24.13C426,172.59,422.12,119.67,391.42,87.87Zm-136.82,179c-3.84,4.11-7.95,6-12.89,5.76H236c-41.68-.28-76.77-34.82-79.79-78.42-2.47-35.37,24.68-67.17,60.59-70.46,24.68-2.2,49.36,8,66.9,27.42,15.63,17.27,23,39.2,20.57,62a13.65,13.65,0,0,1-3.84,8.5C285.31,235.93,269.68,251.28,254.6,266.91ZM319,272.67c5.76,5.48,11.52,11.51,17.28,17.27,2.46,2.74,5.21,5.21,7.67,7.95l2.74,2.74,6.59,6.58c3,3,1.64,8.23-3.29,13.16-4.67,4.67-9.88,6-12.89,2.75l-9.6-9.6c-8.5-8.77-17.55-17.55-26-26.6-10.15-10.69-20.57-16.45-32.08-17.27l31.25-31,.28.27v-.27C301.21,250.46,307.24,261.43,319,272.67Zm56.48-56.21c-2.74,2.19-5.21,3.29-8.77,3-16.45-.28-33.72-.28-51-.28a85.85,85.85,0,0,0,0-29.06c-4.38-28-22.48-52.37-46.61-66.35a84.44,84.44,0,0,1,15.36-25.5c23-26.87,64.7-29.89,92.12-7.13,19.19,15.9,29.34,40.58,28,66.63A80.18,80.18,0,0,1,375.51,216.46Z"/><path class="cls-4" d="M375.51,216.46c-2.74,2.19-5.21,3.29-8.77,3-16.45-.28-33.72-.28-51-.28a85.85,85.85,0,0,0,0-29.06c-4.38-28-22.48-52.37-46.61-66.35a84.44,84.44,0,0,1,15.36-25.5c23-26.87,64.7-29.89,92.12-7.13,19.19,15.9,29.34,40.58,28,66.63A80.18,80.18,0,0,1,375.51,216.46Z"/><path class="cls-5" d="M381.26,80,280.34,165.85a1,1,0,0,0,.78,1.69l45.37-6.91a1,1,0,0,1,1,1.47l-39.94,65.36a1,1,0,0,0,1.48,1.22l94.07-85.16a1,1,0,0,0-.76-1.68l-39,4.57a1,1,0,0,1-.93-1.48l40.3-63.69A1,1,0,0,0,381.26,80Z"/><path class="cls-6" d="M254.6,266.91c-3.84,4.11-7.95,6-12.89,5.76H236c-41.68-.28-76.77-34.82-79.79-78.42-2.47-35.37,24.68-67.17,60.59-70.46,24.68-2.2,49.36,8,66.9,27.42,15.63,17.27,23,39.2,20.57,62a13.65,13.65,0,0,1-3.84,8.5C285.31,235.93,269.68,251.28,254.6,266.91Z"/><path class="cls-7" d="M355.5,292.68v-6.3c0-7.41.27-15.08.27-22.49,0-14,5.76-24.4,17.55-31.25a82.51,82.51,0,0,0,25.77-24.13c26.87-35.92,23-88.84-7.67-120.64L389.77,86l-1.1-1.1c-1.64-1.37-3.56-3-5.48-4.38-21.93-17-45.79-21.66-71-14C285.31,75,266.66,92.53,257.34,118a85.16,85.16,0,0,0-32.9-6.86h-4.11a59.43,59.43,0,0,0-6.86.83c-27.69,3.29-47.7,16.72-60,40C137,183.28,140,215.64,161.65,245.25c23.58,32.63,55.94,45.24,94.6,37.56,13.7-2.74,24.95.55,34.27,10.69,13.71,14.26,27.42,28.25,39.21,39.76a13.33,13.33,0,0,0,7.67,3.57c.83,0,1.65.27,2.47.27,12.06,0,23.31-9.05,26.05-21.11,1.37-5.21,1.92-11.79-4.39-17.55M254.6,266.91c-3.84,4.11-7.95,6-12.89,5.76H236c-41.68-.28-76.77-34.82-79.79-78.42-2.47-35.37,24.68-67.17,60.59-70.46,24.68-2.2,49.36,8,66.9,27.42,15.63,17.27,23,39.2,20.57,62a13.65,13.65,0,0,1-3.84,8.5C285.31,235.93,269.68,251.28,254.6,266.91Zm120.91-50.45c-2.74,2.19-5.21,3.29-8.77,3-16.45-.28-33.72-.28-51-.28a85.85,85.85,0,0,0,0-29.06c-4.38-28-22.48-52.37-46.61-66.35a84.44,84.44,0,0,1,15.36-25.5c23-26.87,64.7-29.89,92.12-7.13,19.19,15.9,29.34,40.58,28,66.63A80.18,80.18,0,0,1,375.51,216.46Z"/><path class="cls-8" d="M250.6,155.29l-21,21.23a5,5,0,0,0,.05,7l35.38,34.95a5,5,0,0,0,7,0l21-21.23a5,5,0,0,0,0-7l-35.38-35A5,5,0,0,0,250.6,155.29Zm28.35,35-14,14.16L240.2,180l14-14.15Z"/><path class="cls-8" d="M239,209.53l-19.56,19.8-35.39-35L226,151.92l5.66,5.59a2,2,0,0,0,2.82,0l4.19-4.23a2,2,0,0,0,0-2.83l-9.19-9.08a5,5,0,0,0-7,0l-48.93,49.54a5,5,0,0,0,0,7l38.93,38.44-3.5,3.54a5,5,0,0,0,7.08,7l7-7.08,23.06-23.34a2,2,0,0,0,0-2.83l-4.25-4.2A2,2,0,0,0,239,209.53Z"/></g><g id="Layer_2" data-name="Layer 2"><path class="cls-9" d="M319,272.67c5.76,5.48,11.52,11.51,17.28,17.27,2.46,2.74,5.21,5.21,7.67,7.95l2.74,2.74,6.59,6.58c3,3,1.64,8.23-3.29,13.16-4.67,4.67-9.88,6-12.89,2.75l-9.6-9.6c-8.5-8.77-17.55-17.55-26-26.6-10.15-10.69-20.57-16.45-32.08-17.27l31.25-31,.28.27v-.27C301.21,250.46,307.24,261.43,319,272.67Z"/><path class="cls-9" d="M339.32,276.23c-5.21-5.48-10.42-10.69-15.9-16.18-8.5-8.22-12.06-17.82-10.69-28.51l41.67.27c-7.95,8.78-11.51,20.84-11,37.29,0,3.84.28,7.68,0,11.52"/></g><g id="Layer_4" data-name="Layer 4"><text class="cls-10" transform="translate(77.17 338.6)">Serverless <tspan class="cls-11"><tspan x="106.57" y="28.8">ping pong</tspan></tspan></text></g><g id="Layer_5" data-name="Layer 5"><text class="cls-12" transform="translate(146.02 158.63) rotate(-62.85)">C</text><text class="cls-12" transform="translate(153.01 145.73) rotate(-54.87)">l</text><text class="cls-12" transform="translate(157.69 139.16) rotate(-49.21)">i</text><text class="cls-12" transform="translate(163.5 132.37) rotate(-41.56)">e</text><text class="cls-12" transform="matrix(0.85, -0.53, 0.53, 0.85, 174.11, 123.15)">n</text><text class="cls-12" transform="translate(186.69 115.69) rotate(-22.45)">t</text><text class="cls-12" transform="matrix(0.58, -0.81, 0.81, 0.58, 257.88, 100.62)">S</text><text class="cls-12" transform="translate(266.12 89.4) rotate(-44.73)">e</text><text class="cls-12" transform="translate(276.05 79.89) rotate(-36.25)">r</text><text class="cls-12" transform="translate(284.91 73.5) rotate(-28.48)">v</text><text class="cls-12" transform="matrix(0.94, -0.34, 0.34, 0.94, 295.6, 67.79)">e</text><text class="cls-12" transform="translate(308.65 63.38) rotate(-11.04)">r</text><text class="cls-12" transform="matrix(1, -0.08, 0.08, 1, 319.15, 61.49)">l</text><text class="cls-12" transform="translate(327.61 60.77) rotate(3.23)">e</text><text class="cls-12" transform="matrix(0.98, 0.21, -0.21, 0.98, 341.38, 61.76)">s</text><text class="cls-12" transform="translate(353.39 64.45) rotate(19.79)">s</text><text class="cls-12" transform="translate(364.77 68.69) rotate(26.85)"> </text><text class="cls-12" transform="matrix(0.82, 0.57, -0.57, 0.82, 374.58, 73.65)">B</text><text class="cls-12" transform="matrix(0.73, 0.68, -0.68, 0.73, 386.59, 82.11)">a</text><text class="cls-12" transform="matrix(0.64, 0.77, -0.77, 0.64, 396.46, 91.43)">c</text><text class="cls-12" transform="matrix(0.53, 0.85, -0.85, 0.53, 404.82, 101.75)">k</text><text class="cls-12" transform="translate(411.86 113.17) rotate(65.31)">e</text><text class="cls-12" transform="translate(417.5 125.65) rotate(73.42)">n</text><text class="cls-12" transform="translate(421.47 139.54) rotate(81.86)">d</text></g><g id="Layer_6" data-name="Layer 6"><rect x="80.27" y="417.26" width="54.33" height="54.33" rx="2" ry="2"/><path class="cls-13" d="M213.36,474.16A25.15,25.15,0,1,1,238.3,449,25.06,25.06,0,0,1,213.36,474.16Zm0-49A23.89,23.89,0,1,0,237,449a23.81,23.81,0,0,0-23.68-23.88Z"/><g class="cls-14"><path class="cls-15" d="M241.18,485.1s.41,5.49-1.09,6.6a2.63,2.63,0,0,1-2.43,2.27s-.48,1.26-2.68.62-4.08-7.08-4.08-7.08S237.55,481.87,241.18,485.1Z"/><path class="cls-16" d="M221.57,457.55s17.67,2.84,19.61,27.55a15.81,15.81,0,0,1-6.73,2.24s.3-19-12.88-29.79Z"/><path class="cls-17" d="M239,474.21a18.47,18.47,0,0,1-6.18,1.6l.32,1.22a29.35,29.35,0,0,0,6.24-1.73l-.38-1.09ZM231.9,473c.13.41.28.79.39,1.2a21.62,21.62,0,0,0,6.07-1.52c-.17-.39-.32-.77-.49-1.13a20.84,20.84,0,0,1-6,1.45Zm9.28,12.11a47.45,47.45,0,0,0-.89-6.25,16.17,16.17,0,0,1-6.38,2.22,39.91,39.91,0,0,1,.56,6.27,15.8,15.8,0,0,0,6.71-2.24Z"/><circle class="cls-15" cx="203.35" cy="438.84" r="3.79"/><circle class="cls-15" cx="203.35" cy="438.84" r="3.79"/><path class="cls-15" d="M199.57,438.84a2,2,0,0,0,0,.34,4,4,0,0,0,.85-.47c1.8-1.16,1.84-2.52,1.46-3.38A3.85,3.85,0,0,0,199.57,438.84Z"/><circle class="cls-15" cx="201.41" cy="438.84" r="1.84"/><path class="cls-18" d="M201.41,437a.82.82,0,0,0-.22,0,1.94,1.94,0,0,1,0,3.64l.22,0a1.84,1.84,0,0,0,0-3.68Z"/><path class="cls-15" d="M201.17,437l-.17,0a1.67,1.67,0,0,0-1.43,1.84A1.83,1.83,0,0,1,201.17,437Zm-1.6,1.8a1.68,1.68,0,0,0,1.43,1.84.34.34,0,0,0,.17,0A1.81,1.81,0,0,1,199.57,438.84Z"/><circle class="cls-15" cx="225.53" cy="438.84" r="3.79"/><circle class="cls-15" cx="225.53" cy="438.84" r="3.79"/><circle class="cls-15" cx="227.48" cy="438.84" r="1.84"/><path class="cls-18" d="M226.43,438.84a1.73,1.73,0,0,1,1.26-1.82l-.21,0a1.84,1.84,0,1,0,0,3.68.51.51,0,0,0,.21,0A1.71,1.71,0,0,1,226.43,438.84Z"/><path class="cls-15" d="M229.31,438.84a1.68,1.68,0,0,0-1.43-1.84.52.52,0,0,0-.17,0A1.86,1.86,0,0,1,229.31,438.84Zm-1.6,1.81c.07,0,.11,0,.17,0a1.67,1.67,0,0,0,1.43-1.84A1.81,1.81,0,0,1,227.71,440.65Zm-34.94.63s3.61.47,3.14-3.15c0,0,1.26,2,4.08.15s1.33-4.17.56-4.23-1.88-.94-4.64,1.88l-1.56-3.62,1.8-2.35s.25,3.4,2.86,2.44.66-6.76-1.69-6.76l-4.23,2.44s.79-2.2,4.23-4c0,0,1.33-.79.56-2.76s-8.26-.55-9.43,9a3.88,3.88,0,0,1-1-3.23c.3-2-3.85-1.41-3.06,2.82a6.62,6.62,0,0,0,4.88,5.11,5.74,5.74,0,0,1,.38,4.79s1.58,2,3.15,1.44Zm7.22-3c2.83-1.8,1.33-4.17.56-4.23a3.37,3.37,0,0,0-2.12,0l.92,1.9s-.19,2.72-3.23,2a1.27,1.27,0,0,1-.1.28C196.36,438.67,197.62,439.8,200,438.28Zm-4.06.11c-.47.83-2.09,2.46-6,.45a5.54,5.54,0,0,1-.28,1s1.56,2,3.15,1.42C192.77,441.28,196.21,441.72,195.93,438.39Zm.22-8.43s.25,3.4,2.86,2.44c1.07-.39,1.37-1.6,1.2-2.89-.66.69-2.67,2.4-3.47-1.24l-3.59,4.19-2.84,1.65,3.55-.9,2.07,2.7-1.56-3.62,1.78-2.33Zm-2.46-2.91a10.2,10.2,0,0,1,3.65-3s1.33-.79.56-2.76c0,0,0-.06,0-.11a3.44,3.44,0,0,1-1.27,1.8c-1.45,1-6.65,4.62-5,10.07a6.78,6.78,0,0,1,2.1-6Zm-5.31,3.23a3.76,3.76,0,0,1-.94-3.14c.13-.77-.45-1.16-1.13-1.07-.15,2.1.15,6.37,4.3,7.59a4.91,4.91,0,0,1-2.23-3.38Z"/><path class="cls-16" d="M189.62,439.86l3.15,1.42s-2.83,15.54,11.93,16.18c0,0,.11,10-9,9.84C195.7,467.3,183.66,457.72,189.62,439.86Z"/><path class="cls-17" d="M193.39,449.72c0-.15-.09-.28-.13-.43a11.36,11.36,0,0,1-5.26,1.16l.06,1a12,12,0,0,0,5.54-1.22v0a4,4,0,0,1-.15-.45l-.06-.07Zm1,2.23c-.06-.13-.15-.26-.21-.39a14.77,14.77,0,0,1-6,1.31c0,.38.11.77.17,1.13a12.45,12.45,0,0,0,6.27-1.63v0c-.09-.13-.15-.25-.24-.38v0Zm-4.77-12.09a30,30,0,0,0-1.49,6.5,5.72,5.72,0,0,0,4.47-.64,18.3,18.3,0,0,1,.17-4.44l-3.15-1.42Z"/><path class="cls-16" d="M194.2,479.75l19.25,24.81s.74.27,1.07-.11v-24.7Zm40.48,0-19.24,24.81s-.75.27-1.07-.11v-24.7Zm-11.37-22.69H205.6c-18.86,8.27-14.48,39.52-14.48,39.52h23.44V482.29l1.3,14.29h21.9s4.41-31.25-14.45-39.52Z"/><path class="cls-15" d="M230.9,487.53s1.88,6.44,4.08,7.08,2.68-.62,2.68-.62a2.31,2.31,0,0,0,1.43-.51,71.59,71.59,0,0,0,0-9.33c-3.64-.49-8.19,3.38-8.19,3.38Z"/><path class="cls-19" d="M239.2,486.12c-.26-6.71-1.61-15.33-6.14-21.81a22.24,22.24,0,0,0-11.49-6.76c13.18,10.78,12.88,29.79,12.88,29.79A13.79,13.79,0,0,0,239.2,486.12Z"/><path class="cls-17" d="M191.87,476.52c-.07.28-.13.58-.17.85,5.21-1.92,13.45-3.16,22.73-3.16s17.54,1.24,22.73,3.16c-.06-.27-.1-.57-.17-.85-5.22-1.88-13.39-3.1-22.56-3.1S197.09,474.64,191.87,476.52Zm1-4c-.09.26-.15.52-.24.77,5.24-1.73,13-2.82,21.77-2.82s16.53,1.09,21.77,2.82c-.08-.25-.15-.51-.23-.77-5.24-1.69-12.94-2.73-21.54-2.73s-16.32,1.06-21.53,2.73Zm7.31-12.08A18.57,18.57,0,0,0,196.64,472l1.09-.49a19,19,0,0,1,3.76-12.09c-.43.32-.85.67-1.26,1Zm27.16-1a18.91,18.91,0,0,1,3.76,12.09l1.09.49a18.75,18.75,0,0,0-3.59-11.55c-.4-.36-.83-.71-1.26-1Zm-12.83,22.84,1.3,14.29h21.9A65.4,65.4,0,0,0,237.1,477l-1.11-.36c1.84,5,1,18.58,1,18.58H217l-1.88-21.06h-1.52l-.19,21.06h-21.3a77.65,77.65,0,0,1,.53-18.54l-.9.26a65,65,0,0,0-.66,19.61h23.44V482.29Z"/><path class="cls-15" d="M224.25,456.39a15.71,15.71,0,0,1-10,3.43c-7.36,0-9.64-3.43-9.64-3.43l-1.31-24h22.2Zm0,0a15.71,15.71,0,0,1-10,3.43c-7.36,0-9.64-3.43-9.64-3.43l-1.31-24h22.2Zm0,0a15.71,15.71,0,0,1-10,3.43c-7.36,0-9.64-3.43-9.64-3.43l-1.31-24h22.2Z"/><path class="cls-20" d="M217.25,436.51l.56-.71a10.68,10.68,0,0,1,5.07,1.54,5.62,5.62,0,0,0-5.56-1.82l.1-.6-.94,1.54a10.68,10.68,0,0,1,0,3.57h-4a11,11,0,0,1,0-3.57l-.94-1.54.11.6a5.61,5.61,0,0,0-5.56,1.82,10.62,10.62,0,0,1,5.07-1.54l.55.71a4.65,4.65,0,0,1-3.59,2.31,3.61,3.61,0,0,0,3.61-1.37,13.22,13.22,0,0,0,.13,3l2.65,1.88,0,0,0,0,2.65-1.88a13.22,13.22,0,0,0,.13-3,3.61,3.61,0,0,0,3.61,1.37A4.66,4.66,0,0,1,217.25,436.51Z"/><ellipse class="cls-16" cx="214.43" cy="444.27" rx="3.64" ry="2.18"/><path class="cls-17" d="M214.43,446.56a5.37,5.37,0,0,0,2.2-.56,3,3,0,0,0-2.2-.77,3.13,3.13,0,0,0-2.2.77A5.45,5.45,0,0,0,214.43,446.56Z"/><path class="cls-8" d="M214.43,442.09c-2,0-3.64,1-3.64,2.18a.42.42,0,0,0,0,.19h7.25c0-.06,0-.13,0-.19C218.09,443.07,216.46,442.09,214.43,442.09Z"/><path class="cls-21" d="M214.43,447.86a5.46,5.46,0,0,1-2-.36,2.52,2.52,0,0,0,2,1,2.55,2.55,0,0,0,2-1A5.46,5.46,0,0,1,214.43,447.86Zm0,6.5a9.35,9.35,0,0,1-3.42-.62,4.28,4.28,0,0,0,3.42,1.67,4.34,4.34,0,0,0,3.42-1.67A9.27,9.27,0,0,1,214.43,454.36Z"/><path class="cls-22" d="M203.54,436.36h21.78l.21-3.94h-22.2Z"/><path class="cls-16" d="M225.59,432.4l1.95-11.27s-2.93-5.77-13-5.77c-12.27,0-13.17,5.77-13.17,5.77l2,11.27Z"/><path class="cls-17" d="M202.45,427.57l.84,4.83h22.3l.84-4.83Z"/><path class="cls-16" d="M229,435.09h-29l-.9-2.69h30.84Z"/><circle class="cls-16" cx="214.43" cy="429.13" r="3.59"/><path class="cls-17" d="M214.43,432.27a3.15,3.15,0,1,1,3.14-3.14A3.11,3.11,0,0,1,214.43,432.27Zm0-5.88a2.74,2.74,0,1,0,2.74,2.74,2.73,2.73,0,0,0-2.74-2.74Zm0,5a2.27,2.27,0,1,1,2.27-2.26A2.27,2.27,0,0,1,214.43,431.39Zm0-4.25a2,2,0,1,0,2,2,2,2,0,0,0-2-2Zm.58,1.18,1-.75-.79,1,1.24-.32-1.09.66,1.26.15-1.26.22,1.16.6-1.24-.26.83,1-1.07-.68.43,1.2-.75-1,0,1.28-.32-1.24-.49,1.18.13-1.26-.88.92.58-1.14-1.16.54,1-.86-1.28.09,1.2-.45-1.22-.39,1.28,0-1-.79,1.17.47-.64-1.09.92.88-.21-1.26.55,1.15.26-1.24.11,1.29.7-1.07Z"/><path class="cls-16" d="M215.11,429.13a.68.68,0,1,1-1.36,0,.68.68,0,1,1,1.36,0Z"/><path class="cls-17" d="M214.28,459.84c-7.36,0-9.64-3.42-9.64-3.42l.25,4.87s2.2,3.34,9.39,3.34a15.24,15.24,0,0,0,9.69-3.34l.28-4.9A15.83,15.83,0,0,1,214.28,459.84Z"/><path class="cls-16" d="M214.43,464.54a9.29,9.29,0,0,0,.28-2.33,9.06,9.06,0,0,0-.28-2.33,9.35,9.35,0,0,0-.28,2.33A9.17,9.17,0,0,0,214.43,464.54Z"/><circle class="cls-19" cx="216.18" cy="462.36" r="0.66"/><circle class="cls-8" cx="216.03" cy="462.21" r="0.66"/><path class="cls-23" d="M216.83,468.93h-4.77a1.38,1.38,0,0,0-1.37,1.37v3.4a1.38,1.38,0,0,0,1.37,1.36h4.77a1.37,1.37,0,0,0,1.36-1.36v-3.4A1.36,1.36,0,0,0,216.83,468.93Zm-.37,1.9v2.33a.26.26,0,0,1-.25.26h-3.53a.26.26,0,0,1-.26-.26v-2.33a.26.26,0,0,1,.26-.26h3.53A.26.26,0,0,1,216.46,470.83Z"/><path class="cls-21" d="M211.8,440.46l2.63,1.86,0,0,0,0,2.63-1.86Z"/><path class="cls-24" d="M214.43,441.92s-2.22-2.66-7.44-1.35l-7.89,7.76a10.58,10.58,0,0,0,7.29,1.54C210.84,449.29,214.47,444.55,214.43,441.92Zm0,0s2.22-2.66,7.44-1.35,7.89,7.76,7.89,7.76a10.58,10.58,0,0,1-7.29,1.54C218,449.29,214.41,444.55,214.43,441.92Z"/><path class="cls-17" d="M225.25,464.59h.47l-.83,1-.81-1h.47v-.45h-1.76v.45h.69l1.15,1.43v.9H224v.45h1.84v-.45h-.69V466l1.16-1.43h.68v-.45h-1.75Z"/></g><g id="Page-1"><g id="jwt_logo" data-name="jwt logo"><g id="Group"><g id="Shape"><path class="cls-8" d="M110.54,434.93l0-11.06h-6.17l0,11.06,3.08,4.23Z"/><path class="cls-8" d="M104.38,453.88V465h6.16V453.88l-3.08-4.24Z"/><path class="cls-25" d="M110.54,453.88l6.49,9,5-3.62-6.5-9-5-1.6Z"/><path class="cls-25" d="M104.38,434.93l-6.54-9-5,3.62,6.49,9,5,1.6Z"/><path class="cls-26" d="M99.36,438.55l-10.52-3.42L87,441l10.52,3.45,5-1.64Z"/><path class="cls-26" d="M112.43,446l3.08,4.23L126,453.67l1.89-5.84-10.53-3.41Z"/><path class="cls-27" d="M117.4,444.42,127.93,441,126,435.13l-10.53,3.42-3.08,4.23Z"/><path class="cls-27" d="M97.47,444.42,87,447.83l1.89,5.84,10.52-3.41,3.08-4.23Z"/><path class="cls-28" d="M99.36,450.26l-6.49,9,5,3.62,6.54-9v-5.22Z"/><path class="cls-28" d="M115.51,438.55l6.5-9L117,426l-6.49,9v5.22Z"/></g></g></g></g><path class="cls-29" d="M315.57,420.53a4.1,4.1,0,0,1,4,0l18.26,10.31a3.78,3.78,0,0,1,1.9,3.24v20.69a3.82,3.82,0,0,1-2,3.31l-18.2,10.26a4,4,0,0,1-4-.11L310,465.07a3.18,3.18,0,0,1-1.05-.76c.23-.31.65-.35,1-.48a13.26,13.26,0,0,0,2.16-1,.52.52,0,0,1,.56,0c1.55.9,3.09,1.81,4.65,2.7.34.19.67-.07,1-.22l17.86-10.09a.6.6,0,0,0,.33-.58V434.19a.64.64,0,0,0-.38-.64l-18.13-10.22a.63.63,0,0,0-.72,0l-18.12,10.22a.63.63,0,0,0-.39.64v20.47a.6.6,0,0,0,.33.58l4.84,2.73a3.77,3.77,0,0,0,3,.41,2.32,2.32,0,0,0,1.49-2.16c0-6.79,0-13.57,0-20.36a.51.51,0,0,1,.56-.52h2.33a.54.54,0,0,1,.5.62q0,10.25,0,20.49a5.2,5.2,0,0,1-2.43,4.69,7.5,7.5,0,0,1-6.69-.18c-1.77-.89-3.46-1.93-5.21-2.88a3.79,3.79,0,0,1-2-3.31V434.08a3.75,3.75,0,0,1,2-3.28Z"/><path class="cls-29" d="M320.86,434.86c2.65-.17,5.48-.1,7.86,1.2a6,6,0,0,1,2.9,5.15.56.56,0,0,1-.61.4c-.76,0-1.53,0-2.3,0-.32,0-.51-.29-.55-.58a3.53,3.53,0,0,0-1.68-2.42,10,10,0,0,0-4.6-.66,6.24,6.24,0,0,0-3.29.82,2.09,2.09,0,0,0-.7,2.33c.25.59.92.78,1.48.95,3.19.84,6.56.75,9.69,1.85a4.55,4.55,0,0,1,3,2.67,5.72,5.72,0,0,1-1,5.45,7.69,7.69,0,0,1-4.1,2.21,19.73,19.73,0,0,1-6.18.26,9.71,9.71,0,0,1-5.44-2.05,5.65,5.65,0,0,1-1.84-4.5.5.5,0,0,1,.56-.45h2.32a.53.53,0,0,1,.55.53,3.55,3.55,0,0,0,1.31,2.47c1.57,1,3.54.94,5.34,1,1.49-.06,3.16-.08,4.38-1.07a2.43,2.43,0,0,0,.66-2.31c-.19-.68-.9-1-1.52-1.21-3.14-1-6.56-.63-9.68-1.76a4.7,4.7,0,0,1-3-2.59,5.29,5.29,0,0,1,1.06-5.52,8.49,8.49,0,0,1,5.31-2.14Z"/><path id="path951" class="cls-30" d="M431.1,418v46.35l-40.47-6L431.1,472l13.5-5.61V424.43h0v-.82Z"/><path id="path887" class="cls-30" d="M416.94,425.87l-12.4,12.26-7.46-5.62-3.08,1,7.6,7.51-7.6,7.51,3.08,1,7.46-5.62h0l12.4,12.26,7.42-3.16V429Zm0,8.75v12.84L408.41,441Z"/><path class="cls-31" d="M387.33,457.32,386,456a.65.65,0,0,0-.92.93l1.57,1.48c.12.12.29.09.46.09h1.28a8.45,8.45,0,0,0-1.73,3.88h-2.23a.69.69,0,0,0,0,1.37h2.13a6.77,6.77,0,0,0,.81,3.19h-.48a.66.66,0,0,0-.46.23l-1.57,1.59a.67.67,0,0,0,.46,1.13.63.63,0,0,0,.46-.2l1.38-1.38h1.06a7.55,7.55,0,0,0,5.37,2.75v-13.7Z"/><path class="cls-31" d="M403.61,462.34h-2.28a10.18,10.18,0,0,0-1.86-3.88h1.46c.17,0,.34,0,.46-.09l1.57-1.52a.63.63,0,0,0,0-.91.66.66,0,0,0-.92,0l-1.38,1.38h-6.21V471a8.54,8.54,0,0,0,5.33-2.75h1.1l1.37,1.39a.7.7,0,0,0,.47.19.63.63,0,0,0,.46-.19.65.65,0,0,0,0-.93l-1.57-1.6a.66.66,0,0,0-.46-.23h-.5a6.77,6.77,0,0,0,.81-3.19h2.15a.69.69,0,0,0,0-1.37Z"/><path class="cls-31" d="M389.76,456.41h8.47a4.06,4.06,0,0,0-2-3.55l.86-.84a.65.65,0,1,0-.93-.91l-1.24,1.24a4.11,4.11,0,0,0-1.89,0l-1.24-1.24a.66.66,0,0,0-.93.93l.86.82A4.06,4.06,0,0,0,389.76,456.41Z"/></g></svg>