<svg xmlns="http://www.w3.org/2000/svg" xmlns:xlink="http://www.w3.org/1999/xlink" viewBox="0 0 400.97 469.86"><defs><style>.cls-1,.cls-2{fill:none;}.cls-2{stroke:#ffdf19;stroke-linecap:round;stroke-width:10px;}.cls-2,.cls-5{stroke-miterlimit:10;}.cls-3{fill:#1c1c1c;}.cls-4{fill:#fd574f;}.cls-5,.cls-8{fill:#fff;}.cls-5{stroke:#fff;}.cls-6{fill:#262626;}.cls-7{fill:#424242;}.cls-9{fill:#2d2d2d;}.cls-10{fill:#333;}.cls-11{fill:#020202;}.cls-12{clip-path:url(#clip-path);}.cls-13{fill:#f4cf8c;}.cls-14{fill:#050505;}.cls-15{fill:#dd002a;}.cls-16{fill:#d8af6f;}.cls-17{fill:#930023;}.cls-18{fill:#b27d30;}.cls-19{fill:#c98c28;}.cls-20{fill:#cea063;}.cls-21{fill:#ffb000;}.cls-22{fill:#4f1907;}.cls-23{fill:#00f2e6;}.cls-24{fill:#00b9f1;}.cls-25{fill:#d63aff;}.cls-26{fill:#fb015b;}.cls-27{fill:#8cc84b;}.cls-28{fill:#007acc;}.cls-29{fill:#004266;}</style><clipPath id="clip-path"><path class="cls-1" d="M162.57,393.5v-.07l1.41-7.1s-3.14-7.25-13.71-6.37-11.87,3.31-13.6,6.22l1,4.64-2,1.27s-.71-2.12-1.82-2.21c0,0,1.65-2.37.47-4s-7.48-1.49-9.92,6.85c0,0-.32-2.53-1.35-2.53s-4.81,1.37-3.78,5.31,4.57,5.11,5.75,5.6a2.05,2.05,0,0,1,.32,1.65c-.13.49-3,9.32-.6,17.49,1.78,6.09,7.49,11.4,7.49,11.4A24.1,24.1,0,0,0,149,438.32a24.56,24.56,0,0,0,13.6-44.82Z"/></clipPath></defs><title>Asset 3</title><g id="Layer_2" data-name="Layer 2"><g id="Layer_3" data-name="Layer 3"><line class="cls-2" x1="259.3" y1="58.2" x2="297.97" y2="58.2"/><line class="cls-2" x1="145" y1="78.2" x2="267.97" y2="78.2"/><line class="cls-2" x1="85" y1="228.2" x2="207.97" y2="228.2"/><line class="cls-2" x1="255" y1="108.2" x2="377.97" y2="108.2"/><line class="cls-2" x1="5" y1="148.2" x2="127.97" y2="148.2"/><line class="cls-2" x1="65" y1="168.2" x2="187.97" y2="168.2"/><line class="cls-2" x1="40.97" y1="58.2" x2="242.87" y2="58.2"/><line class="cls-2" x1="25.97" y1="58.2" x2="25.97" y2="58.2"/><line class="cls-2" x1="395.97" y1="108.2" x2="395.97" y2="108.2"/></g><g id="Layer_1-2" data-name="Layer 1"><path class="cls-3" d="M327.39,53.07l-1.65-1.92-1.1-1.09c-1.64-1.37-3.56-3-5.48-4.39-21.93-17-45.79-21.66-71-14-26.87,8.5-45.52,26-54.84,51.54a85.33,85.33,0,0,0-32.9-6.85H156.3a57.28,57.28,0,0,0-6.86.82c-27.69,3.29-47.7,16.73-60,40C73,148.49,76,180.84,97.62,210.45c23.58,32.63,55.94,45.24,94.6,37.56,13.7-2.74,24.95.55,34.27,10.7C240.2,273,253.91,287,265.7,298.46a13.33,13.33,0,0,0,7.67,3.57c.83,0,1.65.27,2.47.27,12.06,0,23.31-9.05,26.05-21.11,1.37-5.21,1.92-11.79-4.39-17.55-7.4-7.13-14.81-14.8-22.21-22.21-5.21-5.48-10.42-10.69-15.9-16.17-8.5-8.23-12.06-17.82-10.69-28.52l41.67.28c-7.95,8.77-11.51,20.83-11,37.29,0,3.83.28,7.67,0,11.51,3.84,4.11,8,8.23,12.07,12.07v-6.31c0-7.4.27-15.08.27-22.48,0-14,5.76-24.41,17.55-31.26a82.51,82.51,0,0,0,25.77-24.13C361.93,137.79,358.09,84.88,327.39,53.07Zm-136.82,179c-3.84,4.12-7.95,6-12.89,5.76h-5.75c-41.68-.27-76.77-34.82-79.79-78.42C89.67,124.09,116.82,92.28,152.73,89c24.68-2.19,49.36,8,66.9,27.42,15.63,17.27,23,39.21,20.57,62a13.63,13.63,0,0,1-3.84,8.5C221.28,201.13,205.65,216.48,190.57,232.11ZM255,237.87c5.76,5.48,11.52,11.52,17.28,17.27,2.46,2.75,5.21,5.21,7.67,7.95l2.74,2.75,6.58,6.58c3,3,1.65,8.22-3.29,13.16-4.66,4.66-9.87,6-12.88,2.74l-9.6-9.6C255,270,246,261.18,237.45,252.13c-10.14-10.7-20.56-16.45-32.07-17.28l31.25-31,.28.28v-.28C237.18,215.66,243.21,226.63,255,237.87Zm56.48-56.21c-2.74,2.2-5.21,3.29-8.77,3-16.45-.28-33.72-.28-51-.28a85.85,85.85,0,0,0,0-29.06c-4.38-28-22.48-52.37-46.61-66.35a84.44,84.44,0,0,1,15.36-25.5c23-26.87,64.7-29.88,92.12-7.13,19.19,15.91,29.34,40.58,28,66.63A80.18,80.18,0,0,1,311.48,181.66Z"/><path class="cls-3" d="M327.39,53.07l-1.65-1.92-1.1-1.09c-1.64-1.37-3.56-3-5.48-4.39-21.93-17-45.79-21.66-71-14-26.87,8.5-45.52,26-54.84,51.54a85.33,85.33,0,0,0-32.9-6.85H156.3a57.28,57.28,0,0,0-6.86.82c-27.69,3.29-47.7,16.73-60,40C73,148.49,76,180.84,97.62,210.45c23.58,32.63,55.94,45.24,94.6,37.56,13.7-2.74,24.95.55,34.27,10.7C240.2,273,253.91,287,265.7,298.46a13.33,13.33,0,0,0,7.67,3.57c.83,0,1.65.27,2.47.27,12.06,0,23.31-9.05,26.05-21.11,1.37-5.21,1.92-11.79-4.39-17.55-7.4-7.13-14.81-14.8-22.21-22.21-5.21-5.48-10.42-10.69-15.9-16.17-8.5-8.23-12.06-17.82-10.69-28.52l41.67.28c-7.95,8.77-11.51,20.83-11,37.29,0,3.83.28,7.67,0,11.51,3.84,4.11,8,8.23,12.07,12.07v-6.31c0-7.4.27-15.08.27-22.48,0-14,5.76-24.41,17.55-31.26a82.51,82.51,0,0,0,25.77-24.13C361.93,137.79,358.09,84.88,327.39,53.07Zm-136.82,179c-3.84,4.12-7.95,6-12.89,5.76h-5.75c-41.68-.27-76.77-34.82-79.79-78.42C89.67,124.09,116.82,92.28,152.73,89c24.68-2.19,49.36,8,66.9,27.42,15.63,17.27,23,39.21,20.57,62a13.63,13.63,0,0,1-3.84,8.5C221.28,201.13,205.65,216.48,190.57,232.11ZM255,237.87c5.76,5.48,11.52,11.52,17.28,17.27,2.46,2.75,5.21,5.21,7.67,7.95l2.74,2.75,6.58,6.58c3,3,1.65,8.22-3.29,13.16-4.66,4.66-9.87,6-12.88,2.74l-9.6-9.6C255,270,246,261.18,237.45,252.13c-10.14-10.7-20.56-16.45-32.07-17.28l31.25-31,.28.28v-.28C237.18,215.66,243.21,226.63,255,237.87Zm56.48-56.21c-2.74,2.2-5.21,3.29-8.77,3-16.45-.28-33.72-.28-51-.28a85.85,85.85,0,0,0,0-29.06c-4.38-28-22.48-52.37-46.61-66.35a84.44,84.44,0,0,1,15.36-25.5c23-26.87,64.7-29.88,92.12-7.13,19.19,15.91,29.34,40.58,28,66.63A80.18,80.18,0,0,1,311.48,181.66Z"/><path class="cls-4" d="M311.48,181.66c-2.74,2.2-5.21,3.29-8.77,3-16.45-.28-33.72-.28-51-.28a85.85,85.85,0,0,0,0-29.06c-4.38-28-22.48-52.37-46.61-66.35a84.44,84.44,0,0,1,15.36-25.5c23-26.87,64.7-29.88,92.12-7.13,19.19,15.91,29.34,40.58,28,66.63A80.18,80.18,0,0,1,311.48,181.66Z"/><path class="cls-5" d="M317.23,45.19,216.31,131.05a1,1,0,0,0,.78,1.7l45.37-6.91a1,1,0,0,1,1,1.46l-39.94,65.36a1,1,0,0,0,1.48,1.22L319,108.73a1,1,0,0,0-.76-1.68l-39,4.56a1,1,0,0,1-.93-1.48l40.3-63.68A1,1,0,0,0,317.23,45.19Z"/><path class="cls-6" d="M190.57,232.11c-3.84,4.12-7.95,6-12.89,5.76h-5.75c-41.68-.27-76.77-34.82-79.79-78.42C89.67,124.09,116.82,92.28,152.73,89c24.68-2.19,49.36,8,66.9,27.42,15.63,17.27,23,39.21,20.57,62a13.63,13.63,0,0,1-3.84,8.5C221.28,201.13,205.65,216.48,190.57,232.11Z"/><path class="cls-7" d="M291.47,257.89v-6.31c0-7.4.27-15.08.27-22.48,0-14,5.76-24.41,17.55-31.26a82.51,82.51,0,0,0,25.77-24.13c26.87-35.92,23-88.83-7.67-120.64l-1.65-1.92-1.1-1.09c-1.64-1.37-3.56-3-5.48-4.39-21.93-17-45.79-21.66-71-14-26.87,8.5-45.52,26-54.84,51.54a85.33,85.33,0,0,0-32.9-6.85H156.3a57.28,57.28,0,0,0-6.86.82c-27.69,3.29-47.7,16.73-60,40C73,148.49,76,180.84,97.62,210.45c23.58,32.63,55.94,45.24,94.6,37.56,13.7-2.74,24.95.55,34.27,10.7C240.2,273,253.91,287,265.7,298.46a13.33,13.33,0,0,0,7.67,3.57c.83,0,1.65.27,2.47.27,12.06,0,23.31-9.05,26.05-21.11,1.37-5.21,1.92-11.79-4.39-17.55M190.57,232.11c-3.84,4.12-7.95,6-12.89,5.76h-5.75c-41.68-.27-76.77-34.82-79.79-78.42C89.67,124.09,116.82,92.28,152.73,89c24.68-2.19,49.36,8,66.9,27.42,15.63,17.27,23,39.21,20.57,62a13.63,13.63,0,0,1-3.84,8.5C221.28,201.13,205.65,216.48,190.57,232.11Zm120.91-50.45c-2.74,2.2-5.21,3.29-8.77,3-16.45-.28-33.72-.28-51-.28a85.85,85.85,0,0,0,0-29.06c-4.38-28-22.48-52.37-46.61-66.35a84.44,84.44,0,0,1,15.36-25.5c23-26.87,64.7-29.88,92.12-7.13,19.19,15.91,29.34,40.58,28,66.63A80.18,80.18,0,0,1,311.48,181.66Z"/><path class="cls-8" d="M186.57,120.49l-21,21.23a5,5,0,0,0,.05,7l35.38,35a5,5,0,0,0,7-.05l21-21.23a5,5,0,0,0,0-7l-35.38-34.95A5,5,0,0,0,186.57,120.49Zm28.35,35-14,14.15-24.77-24.47,14-14.15Z"/><path class="cls-8" d="M174.94,174.73l-19.56,19.81L120,159.59l41.94-42.46,5.66,5.58a2,2,0,0,0,2.82,0l4.19-4.24a2,2,0,0,0,0-2.82l-9.19-9.09a5,5,0,0,0-7,0l-48.93,49.54a5,5,0,0,0,0,7l38.93,38.44-3.5,3.54a5,5,0,1,0,7.08,7l7-7.07L182,181.72a2,2,0,0,0,0-2.83l-4.25-4.19A2,2,0,0,0,174.94,174.73Z"/></g><g id="Layer_2-2" data-name="Layer 2"><path class="cls-9" d="M255,237.87c5.76,5.48,11.52,11.52,17.28,17.27,2.46,2.75,5.21,5.21,7.67,7.95l2.74,2.75,6.58,6.58c3,3,1.65,8.22-3.29,13.16-4.66,4.66-9.87,6-12.88,2.74l-9.6-9.6C255,270,246,261.18,237.45,252.13c-10.14-10.7-20.56-16.45-32.07-17.28l31.25-31,.28.28v-.28C237.18,215.66,243.21,226.63,255,237.87Z"/><path class="cls-9" d="M275.29,241.43c-5.21-5.48-10.42-10.69-15.9-16.17-8.5-8.23-12.06-17.82-10.69-28.52l41.67.28c-7.95,8.77-11.51,20.83-11,37.29,0,3.83.28,7.67,0,11.51"/></g><g id="Layer_4" data-name="Layer 4"><path class="cls-10" d="M22.47,279.24a3.2,3.2,0,0,0,.58,1.77,7,7,0,0,0,1.45,1.49,19.7,19.7,0,0,0,2.05,1.37c.77.44,1.55.91,2.36,1.4s1.59,1,2.35,1.61a12,12,0,0,1,2.06,2,9.48,9.48,0,0,1,1.48,2.48,9,9,0,0,1,.61,3.14v.19a10.83,10.83,0,0,1-.47,3.35,8.47,8.47,0,0,1-1.24,2.46,6.94,6.94,0,0,1-1.81,1.7,10.1,10.1,0,0,1-2.16,1.07,12.64,12.64,0,0,1-2.3.56,19.66,19.66,0,0,1-2.19.19H25a13.45,13.45,0,0,1-3.49-.4,9.53,9.53,0,0,1-2.58-1.07A7.09,7.09,0,0,1,17.14,301,8.15,8.15,0,0,1,16,299.2a9.22,9.22,0,0,1-.61-1.84,8.91,8.91,0,0,1-.18-1.72,3.38,3.38,0,0,1,.28-1.43,2.74,2.74,0,0,1,.74-1,3,3,0,0,1,1.05-.58,4.34,4.34,0,0,1,1.25-.18,4.68,4.68,0,0,1,1.26.18,3.77,3.77,0,0,1,1.17.58,3.17,3.17,0,0,1,.87,1,3.12,3.12,0,0,1,.36,1.4A3.19,3.19,0,0,0,23,298a3.21,3.21,0,0,0,2.15.64,5.76,5.76,0,0,0,1.3-.17,2.28,2.28,0,0,0,1-.54,2.53,2.53,0,0,0,.67-1,5,5,0,0,0-.3-3.83,7.74,7.74,0,0,0-1.44-1.83,16.28,16.28,0,0,0-2-1.61c-.77-.51-1.55-1-2.35-1.52s-1.57-1-2.33-1.59a14.4,14.4,0,0,1-2.05-1.82,8.09,8.09,0,0,1-1.46-2.18,6.71,6.71,0,0,1-.58-2.72v-.37a12.07,12.07,0,0,1,.67-4.18,6,6,0,0,1,1.9-2.64,7.47,7.47,0,0,1,3.08-1.4,19.5,19.5,0,0,1,4.19-.41H26a12.47,12.47,0,0,1,3.66.47,8.68,8.68,0,0,1,2.5,1.19,6.26,6.26,0,0,1,1.57,1.65,7.91,7.91,0,0,1,.85,1.8,7.37,7.37,0,0,1,.35,1.66c0,.52.07.93.07,1.25a2.92,2.92,0,0,1-.27,1.27,2.84,2.84,0,0,1-.72,1,3.59,3.59,0,0,1-1.08.62,3.9,3.9,0,0,1-1.35.22,3,3,0,0,1-1.12-.22,3.86,3.86,0,0,1-1-.58,3,3,0,0,1-.73-.81,1.79,1.79,0,0,1-.28-.92,4,4,0,0,0-.69-2.67,2.63,2.63,0,0,0-2-.75,9.92,9.92,0,0,0-1.23.07,2.18,2.18,0,0,0-1.05.38,2.1,2.1,0,0,0-.73,1A5,5,0,0,0,22.47,279.24Z"/><path class="cls-10" d="M58.85,290.44c0,.25,0,.54-.05.88a2,2,0,0,1-.36,1,2.49,2.49,0,0,1-1,.79,4.5,4.5,0,0,1-1.92.32H46.19v2.25a5.5,5.5,0,0,0,.14,1.18,3.48,3.48,0,0,0,.48,1.12,2.72,2.72,0,0,0,.9.85,2.83,2.83,0,0,0,1.39.32,3.69,3.69,0,0,0,1.44-.22,2.41,2.41,0,0,0,.8-.55,5.08,5.08,0,0,0,.52-.7,3.4,3.4,0,0,1,.62-.71,3.2,3.2,0,0,1,1.08-.55,6.45,6.45,0,0,1,1.91-.22,7.11,7.11,0,0,1,1.14.09,2.68,2.68,0,0,1,1,.36,1.93,1.93,0,0,1,.68.71,2.4,2.4,0,0,1,.26,1.18,3.58,3.58,0,0,1-1,2.55,7,7,0,0,1-2.42,1.63,13.5,13.5,0,0,1-3.15.86,21.45,21.45,0,0,1-3.17.26,14.9,14.9,0,0,1-3.71-.49,8.68,8.68,0,0,1-3.1-1.5,7.31,7.31,0,0,1-2.15-2.7,9.41,9.41,0,0,1-.79-4.07v-5.49a11.83,11.83,0,0,1,.52-3.77A8.29,8.29,0,0,1,41,283.2a6.66,6.66,0,0,1,1.9-1.61,9.83,9.83,0,0,1,2.14-.85,10.48,10.48,0,0,1,2-.35c.64-.05,1.2-.07,1.67-.07a16.76,16.76,0,0,1,4,.42,10.36,10.36,0,0,1,2.81,1.1,6.1,6.1,0,0,1,1.78,1.57,7.13,7.13,0,0,1,1,1.84,8,8,0,0,1,.42,1.92,17,17,0,0,1,.1,1.82Zm-12.66-.56h5.86c0-.74,0-1.39-.06-2a3.72,3.72,0,0,0-.35-1.44,2,2,0,0,0-.91-.89,4.21,4.21,0,0,0-1.77-.3,3.23,3.23,0,0,0-1.52.3,2.27,2.27,0,0,0-.83.76,2.52,2.52,0,0,0-.35,1,6.46,6.46,0,0,0-.07.92Z"/><path class="cls-10" d="M78.86,283.88a3.5,3.5,0,0,1-.9,2.67,3.63,3.63,0,0,1-2.57.84l-.66,0a4.27,4.27,0,0,0-.93.19,5.09,5.09,0,0,0-1,.44,3.6,3.6,0,0,0-.92.8,3.88,3.88,0,0,0-.68,1.28,5.89,5.89,0,0,0-.26,1.85v6.7a16.54,16.54,0,0,1-.1,1.88,4.86,4.86,0,0,1-.49,1.63,3,3,0,0,1-1.07,1.16,3.61,3.61,0,0,1-1.9.44,3.4,3.4,0,0,1-1.85-.44,3.08,3.08,0,0,1-1-1.16,5.08,5.08,0,0,1-.47-1.63,16.54,16.54,0,0,1-.1-1.88V285.57a16.82,16.82,0,0,1,.1-1.91,5.27,5.27,0,0,1,.47-1.66,2.93,2.93,0,0,1,1-1.16,3.4,3.4,0,0,1,1.85-.43,2.86,2.86,0,0,1,1.84.53,3.11,3.11,0,0,1,1,1.36,6.21,6.21,0,0,1,.35,1.85c0,.68,0,1.34,0,2h.37a11.3,11.3,0,0,1,.87-2.38A8.65,8.65,0,0,1,73,282a4.92,4.92,0,0,1,1.41-1.14,3.12,3.12,0,0,1,1.5-.4,4.75,4.75,0,0,1,1.49.2,1.9,1.9,0,0,1,.9.62,2.42,2.42,0,0,1,.45,1.08A10.06,10.06,0,0,1,78.86,283.88Z"/><path class="cls-10" d="M93.39,300.14a12.67,12.67,0,0,1-1,2.1,4.17,4.17,0,0,1-.86,1.09,1.71,1.71,0,0,1-.85.41,6.33,6.33,0,0,1-.89.06,7.27,7.27,0,0,1-1-.06,1.86,1.86,0,0,1-.89-.4,3.91,3.91,0,0,1-.91-1.07,11.12,11.12,0,0,1-1-2.13l-5.3-13.87a12.3,12.3,0,0,1-.38-1.21,4.71,4.71,0,0,1,0-2.58,2.92,2.92,0,0,1,.57-1.09,3,3,0,0,1,1-.75,3.94,3.94,0,0,1,1.55-.28,2.73,2.73,0,0,1,1.21.28,3.71,3.71,0,0,1,1,.75,5.65,5.65,0,0,1,.76,1.08,6.65,6.65,0,0,1,.52,1.27l2.62,8.53H90l2.44-8.53a7.17,7.17,0,0,1,.46-1.2,5.23,5.23,0,0,1,.74-1.09,3.6,3.6,0,0,1,1-.78,2.92,2.92,0,0,1,1.38-.31,3.15,3.15,0,0,1,1.43.3,2.71,2.71,0,0,1,1,.77,3,3,0,0,1,.54,1.11,5.56,5.56,0,0,1,.16,1.29,5.09,5.09,0,0,1-.15,1.22,8.33,8.33,0,0,1-.41,1.22Z"/><path class="cls-10" d="M121.85,290.44c0,.25,0,.54,0,.88a2,2,0,0,1-.36,1,2.49,2.49,0,0,1-1,.79,4.5,4.5,0,0,1-1.92.32h-9.33v2.25a5.5,5.5,0,0,0,.14,1.18,3.48,3.48,0,0,0,.48,1.12,2.72,2.72,0,0,0,.9.85,2.83,2.83,0,0,0,1.39.32,3.69,3.69,0,0,0,1.44-.22,2.41,2.41,0,0,0,.8-.55,5.08,5.08,0,0,0,.52-.7,3.4,3.4,0,0,1,.62-.71,3.2,3.2,0,0,1,1.08-.55,6.45,6.45,0,0,1,1.91-.22,7.11,7.11,0,0,1,1.14.09,2.68,2.68,0,0,1,1,.36,1.93,1.93,0,0,1,.68.71,2.4,2.4,0,0,1,.26,1.18,3.58,3.58,0,0,1-1,2.55,7,7,0,0,1-2.42,1.63,13.5,13.5,0,0,1-3.15.86,21.45,21.45,0,0,1-3.17.26,14.9,14.9,0,0,1-3.71-.49,8.68,8.68,0,0,1-3.1-1.5,7.31,7.31,0,0,1-2.15-2.7,9.41,9.41,0,0,1-.79-4.07v-5.49a11.83,11.83,0,0,1,.52-3.77A8.29,8.29,0,0,1,104,283.2a6.66,6.66,0,0,1,1.9-1.61,9.83,9.83,0,0,1,2.14-.85,10.48,10.48,0,0,1,2-.35c.64-.05,1.2-.07,1.67-.07a16.76,16.76,0,0,1,4,.42,10.36,10.36,0,0,1,2.81,1.1,6.1,6.1,0,0,1,1.78,1.57,7.13,7.13,0,0,1,1,1.84,8,8,0,0,1,.42,1.92,17,17,0,0,1,.1,1.82Zm-12.66-.56h5.86c0-.74,0-1.39-.06-2a3.72,3.72,0,0,0-.35-1.44,2,2,0,0,0-.91-.89,4.21,4.21,0,0,0-1.77-.3,3.23,3.23,0,0,0-1.52.3,2.27,2.27,0,0,0-.83.76,2.52,2.52,0,0,0-.35,1,6.46,6.46,0,0,0-.07.92Z"/><path class="cls-10" d="M141.86,283.88a3.5,3.5,0,0,1-.9,2.67,3.63,3.63,0,0,1-2.57.84l-.66,0a4.27,4.27,0,0,0-.93.19,5.09,5.09,0,0,0-1,.44,3.6,3.6,0,0,0-.92.8,3.88,3.88,0,0,0-.68,1.28,5.89,5.89,0,0,0-.26,1.85v6.7a16.54,16.54,0,0,1-.1,1.88,4.86,4.86,0,0,1-.49,1.63,3,3,0,0,1-1.07,1.16,3.61,3.61,0,0,1-1.9.44,3.4,3.4,0,0,1-1.85-.44,3.08,3.08,0,0,1-1-1.16,5.08,5.08,0,0,1-.47-1.63,16.54,16.54,0,0,1-.1-1.88V285.57a16.82,16.82,0,0,1,.1-1.91,5.27,5.27,0,0,1,.47-1.66,2.93,2.93,0,0,1,1-1.16,3.4,3.4,0,0,1,1.85-.43,2.86,2.86,0,0,1,1.84.53,3.11,3.11,0,0,1,.95,1.36,6.21,6.21,0,0,1,.35,1.85c0,.68,0,1.34,0,2h.37a11.3,11.3,0,0,1,.87-2.38A8.65,8.65,0,0,1,136,282a4.92,4.92,0,0,1,1.41-1.14,3.12,3.12,0,0,1,1.5-.4,4.75,4.75,0,0,1,1.49.2,1.9,1.9,0,0,1,.9.62,2.42,2.42,0,0,1,.45,1.08A10.06,10.06,0,0,1,141.86,283.88Z"/><path class="cls-10" d="M145.66,276.19a17.25,17.25,0,0,1,.1-1.92,4.89,4.89,0,0,1,.49-1.66,3,3,0,0,1,1.07-1.18,3.59,3.59,0,0,1,1.9-.44,3.64,3.64,0,0,1,1.92.44,2.89,2.89,0,0,1,1.07,1.18,4.88,4.88,0,0,1,.47,1.66,17.25,17.25,0,0,1,.1,1.92v22.36a17.43,17.43,0,0,1-.1,1.93,5.06,5.06,0,0,1-.47,1.69,2.92,2.92,0,0,1-1.07,1.19,3.64,3.64,0,0,1-1.92.44,3.59,3.59,0,0,1-1.9-.44,3,3,0,0,1-1.07-1.19,5.06,5.06,0,0,1-.49-1.69,17.43,17.43,0,0,1-.1-1.93Z"/><path class="cls-10" d="M178.05,290.44c0,.25,0,.54-.05.88a2,2,0,0,1-.36,1,2.43,2.43,0,0,1-1,.79,4.5,4.5,0,0,1-1.92.32h-9.33v2.25a5.5,5.5,0,0,0,.14,1.18,3.72,3.72,0,0,0,.48,1.12,2.66,2.66,0,0,0,.91.85,2.76,2.76,0,0,0,1.38.32,3.65,3.65,0,0,0,1.44-.22,2.31,2.31,0,0,0,.8-.55,6.12,6.12,0,0,0,.53-.7,2.9,2.9,0,0,1,.62-.71,3.05,3.05,0,0,1,1.07-.55,6.49,6.49,0,0,1,1.91-.22,7,7,0,0,1,1.14.09,2.68,2.68,0,0,1,1,.36,1.86,1.86,0,0,1,.68.71,2.29,2.29,0,0,1,.26,1.18,3.58,3.58,0,0,1-1,2.55,7,7,0,0,1-2.41,1.63,13.45,13.45,0,0,1-3.16.86,21.45,21.45,0,0,1-3.17.26,14.82,14.82,0,0,1-3.7-.49,8.65,8.65,0,0,1-3.11-1.5,7.28,7.28,0,0,1-2.14-2.7,9.26,9.26,0,0,1-.8-4.07v-5.49a11.54,11.54,0,0,1,.53-3.77,8.09,8.09,0,0,1,1.37-2.58,6.4,6.4,0,0,1,1.9-1.61,9.57,9.57,0,0,1,2.13-.85,10.61,10.61,0,0,1,2.05-.35c.65-.05,1.21-.07,1.67-.07a16.91,16.91,0,0,1,4.05.42,10.28,10.28,0,0,1,2.8,1.1,6.1,6.1,0,0,1,1.78,1.57,6.57,6.57,0,0,1,1,1.84,8.59,8.59,0,0,1,.43,1.92c.06.65.09,1.26.09,1.82Zm-12.66-.56h5.86c0-.74,0-1.39-.06-2a3.55,3.55,0,0,0-.35-1.44,1.92,1.92,0,0,0-.91-.89,4.21,4.21,0,0,0-1.77-.3,3.16,3.16,0,0,0-1.51.3,2.12,2.12,0,0,0-.83.76,2.54,2.54,0,0,0-.36,1,8.36,8.36,0,0,0-.07.92Z"/><path class="cls-10" d="M189.07,286.5a1.39,1.39,0,0,0,.3.87,3.43,3.43,0,0,0,.83.76,10.36,10.36,0,0,0,1.22.72c.46.23.94.47,1.44.7.77.38,1.55.78,2.35,1.21a11.92,11.92,0,0,1,2.18,1.51,7.5,7.5,0,0,1,1.6,2,5.48,5.48,0,0,1,.62,2.69,6.83,6.83,0,0,1-.41,2.48,5.89,5.89,0,0,1-1.09,1.86,6,6,0,0,1-1.58,1.31,9.73,9.73,0,0,1-1.9.82,12.63,12.63,0,0,1-2,.43,14.81,14.81,0,0,1-1.94.13,13.84,13.84,0,0,1-3.14-.31,9.65,9.65,0,0,1-2.3-.8,6.14,6.14,0,0,1-1.58-1.15,5.46,5.46,0,0,1-1-1.35,5.61,5.61,0,0,1-.5-1.4,6.65,6.65,0,0,1-.14-1.27,2.57,2.57,0,0,1,.79-2.07,3.72,3.72,0,0,1,2.4-.65,2.88,2.88,0,0,1,1.92.63,2.64,2.64,0,0,1,.8,2,1.26,1.26,0,0,0,.27.75,1.87,1.87,0,0,0,.63.46,3.29,3.29,0,0,0,.86.23,7.19,7.19,0,0,0,.91.06,2.24,2.24,0,0,0,1.49-.48,1.56,1.56,0,0,0,.57-1.25,2.13,2.13,0,0,0-.38-1.23,4.66,4.66,0,0,0-1-1.07,10.89,10.89,0,0,0-1.44-.95l-1.66-.93c-.7-.37-1.41-.77-2.12-1.19a12.12,12.12,0,0,1-1.93-1.41,6.66,6.66,0,0,1-1.41-1.74,4.5,4.5,0,0,1-.54-2.22,7,7,0,0,1,.6-3.06,4.94,4.94,0,0,1,1.75-2,7.7,7.7,0,0,1,2.8-1.09,21.65,21.65,0,0,1,3.76-.37h.38a14.11,14.11,0,0,1,3.22.32,8.08,8.08,0,0,1,2.2.86,4.8,4.8,0,0,1,2.13,2.51,4.89,4.89,0,0,1,.31,1.27c0,.41.06.75.06,1a2.19,2.19,0,0,1-.29,1.16,2.25,2.25,0,0,1-.78.72,3.35,3.35,0,0,1-1.09.38,10.13,10.13,0,0,1-1.26.13,2.73,2.73,0,0,1-1-.19,2.9,2.9,0,0,1-.79-.47,2,2,0,0,1-.5-.63,1.5,1.5,0,0,1-.18-.68,1.67,1.67,0,0,0-.71-1.36,2.8,2.8,0,0,0-1.63-.47,3.69,3.69,0,0,0-.76.08,2.06,2.06,0,0,0-.66.28,1.5,1.5,0,0,0-.47.53A1.75,1.75,0,0,0,189.07,286.5Z"/><path class="cls-10" d="M210.39,286.5a1.4,1.4,0,0,0,.31.87,3.43,3.43,0,0,0,.83.76,10.36,10.36,0,0,0,1.22.72c.46.23.94.47,1.44.7.77.38,1.55.78,2.34,1.21a11.27,11.27,0,0,1,2.18,1.51,7.35,7.35,0,0,1,1.61,2,5.59,5.59,0,0,1,.62,2.69,7,7,0,0,1-.41,2.48,6.07,6.07,0,0,1-2.67,3.17,10,10,0,0,1-1.9.82,12.63,12.63,0,0,1-2,.43A14.81,14.81,0,0,1,212,304a13.78,13.78,0,0,1-3.14-.31,9.65,9.65,0,0,1-2.3-.8,6.14,6.14,0,0,1-1.58-1.15,5.21,5.21,0,0,1-1-1.35,5.61,5.61,0,0,1-.5-1.4,6.65,6.65,0,0,1-.14-1.27,2.54,2.54,0,0,1,.79-2.07,3.72,3.72,0,0,1,2.4-.65,2.88,2.88,0,0,1,1.92.63,2.64,2.64,0,0,1,.8,2,1.14,1.14,0,0,0,.27.75,1.78,1.78,0,0,0,.63.46,3.19,3.19,0,0,0,.86.23,7.07,7.07,0,0,0,.91.06,2.24,2.24,0,0,0,1.49-.48,1.56,1.56,0,0,0,.57-1.25,2.2,2.2,0,0,0-.38-1.23,4.66,4.66,0,0,0-1-1.07,12.39,12.39,0,0,0-1.44-.95l-1.66-.93c-.7-.37-1.41-.77-2.12-1.19a12.12,12.12,0,0,1-1.93-1.41,6.66,6.66,0,0,1-1.41-1.74,4.5,4.5,0,0,1-.54-2.22,7,7,0,0,1,.6-3.06,4.94,4.94,0,0,1,1.75-2,7.7,7.7,0,0,1,2.8-1.09,21.65,21.65,0,0,1,3.76-.37h.37a14.2,14.2,0,0,1,3.23.32,8.21,8.21,0,0,1,2.2.86,4.8,4.8,0,0,1,2.13,2.51,4.89,4.89,0,0,1,.31,1.27c0,.41.06.75.06,1a2.11,2.11,0,0,1-.3,1.16,2.13,2.13,0,0,1-.77.72,3.35,3.35,0,0,1-1.09.38,10.3,10.3,0,0,1-1.27.13,2.8,2.8,0,0,1-1-.19,3,3,0,0,1-.78-.47,2,2,0,0,1-.5-.63,1.5,1.5,0,0,1-.18-.68,1.67,1.67,0,0,0-.71-1.36,2.8,2.8,0,0,0-1.63-.47,3.87,3.87,0,0,0-.77.08,2,2,0,0,0-.65.28,1.5,1.5,0,0,0-.47.53A1.74,1.74,0,0,0,210.39,286.5Z"/><path class="cls-10" d="M121.26,323.53c0-.33,0-.65,0-1a2.31,2.31,0,0,1,.21-.85,1.37,1.37,0,0,1,.52-.6,1.86,1.86,0,0,1,1-.23,1.94,1.94,0,0,1,1,.22,1.45,1.45,0,0,1,.54.53,1.84,1.84,0,0,1,.21.65,4.21,4.21,0,0,1,0,.57,3.44,3.44,0,0,1,.3-.69,2.36,2.36,0,0,1,.5-.63,2.48,2.48,0,0,1,.73-.47,2.59,2.59,0,0,1,1-.18,4.15,4.15,0,0,1,1.29.21,3,3,0,0,1,1.16.71,3.4,3.4,0,0,1,.84,1.28A5.1,5.1,0,0,1,131,325v3.4a5.12,5.12,0,0,1-.32,2,3.48,3.48,0,0,1-.84,1.28,3.09,3.09,0,0,1-1.16.7,4.15,4.15,0,0,1-1.29.21,2.59,2.59,0,0,1-1-.18,2.45,2.45,0,0,1-.73-.46,2.36,2.36,0,0,1-.5-.63,3.51,3.51,0,0,1-.3-.7v4a8,8,0,0,1,0,1,2.41,2.41,0,0,1-.23.85,1.44,1.44,0,0,1-.55.6,1.83,1.83,0,0,1-1,.23,1.74,1.74,0,0,1-.94-.23,1.47,1.47,0,0,1-.53-.6,2.65,2.65,0,0,1-.24-.85c0-.32,0-.65,0-1Zm6.09,1.8c0-.21,0-.41,0-.62a1.64,1.64,0,0,0-.13-.55.92.92,0,0,0-.31-.39.94.94,0,0,0-.57-.15,1.22,1.22,0,0,0-.74.21,1.39,1.39,0,0,0-.45.63,4.15,4.15,0,0,0-.23,1.09c0,.43-.07.95-.08,1.54a5.39,5.39,0,0,0,.07.85,3.71,3.71,0,0,0,.23.9,2.05,2.05,0,0,0,.45.71,1,1,0,0,0,.75.28.85.85,0,0,0,.88-.52,1.53,1.53,0,0,0,.13-.54,5.91,5.91,0,0,0,0-.6Z"/><path class="cls-10" d="M134,323.51a7.5,7.5,0,0,1,.06-1,2.17,2.17,0,0,1,.24-.84,1.42,1.42,0,0,1,.54-.6,2.06,2.06,0,0,1,1.89,0,1.42,1.42,0,0,1,.54.6,2.17,2.17,0,0,1,.24.84,7.5,7.5,0,0,1,.06,1V330a7.61,7.61,0,0,1-.06,1,2.28,2.28,0,0,1-.24.85,1.46,1.46,0,0,1-.54.59,2.14,2.14,0,0,1-1.89,0,1.46,1.46,0,0,1-.54-.59,2.28,2.28,0,0,1-.24-.85,7.61,7.61,0,0,1-.06-1Zm3.59-5.53a1.77,1.77,0,0,1-.47,1.34,2.17,2.17,0,0,1-2.62,0A1.74,1.74,0,0,1,134,318a1.71,1.71,0,0,1,.47-1.36,1.85,1.85,0,0,1,1.31-.43,1.55,1.55,0,0,1,1.78,1.79Z"/><path class="cls-10" d="M150.82,329.93a7.93,7.93,0,0,1-.06,1,2.55,2.55,0,0,1-.26.86,1.44,1.44,0,0,1-.55.6,1.77,1.77,0,0,1-1,.23,1.73,1.73,0,0,1-1-.23,1.42,1.42,0,0,1-.54-.6,2.33,2.33,0,0,1-.24-.86,7.94,7.94,0,0,1,0-1v-4.57c0-.22,0-.44,0-.65a1.77,1.77,0,0,0-.14-.55.92.92,0,0,0-.31-.39.93.93,0,0,0-.56-.15,1,1,0,0,0-.77.32,2.23,2.23,0,0,0-.46.87,6.23,6.23,0,0,0-.23,1.29c0,.5-.06,1-.06,1.6v2.23a7.93,7.93,0,0,1-.06,1,2.54,2.54,0,0,1-.25.86,1.51,1.51,0,0,1-.55.6,1.81,1.81,0,0,1-1,.23,1.76,1.76,0,0,1-.95-.23,1.47,1.47,0,0,1-.53-.6,2.54,2.54,0,0,1-.25-.86c0-.32-.05-.65-.05-1v-6.4c0-.34,0-.66,0-1a2.21,2.21,0,0,1,.21-.84,1.4,1.4,0,0,1,.53-.6,1.87,1.87,0,0,1,1-.23,1.92,1.92,0,0,1,1,.22,1.62,1.62,0,0,1,.55.52,1.68,1.68,0,0,1,.22.64,3.42,3.42,0,0,1,.05.59,2.9,2.9,0,0,1,.29-.69,2.61,2.61,0,0,1,.51-.63,2.51,2.51,0,0,1,1.76-.65,4.15,4.15,0,0,1,1.29.21,3.14,3.14,0,0,1,1.16.71,3.51,3.51,0,0,1,.83,1.28,5.2,5.2,0,0,1,.33,2Z"/><path class="cls-10" d="M163,333a4.84,4.84,0,0,1-.29,1.78,3.68,3.68,0,0,1-.73,1.21,3.5,3.5,0,0,1-1,.75,5.39,5.39,0,0,1-1.07.4,5.17,5.17,0,0,1-1,.17l-.66,0a11.59,11.59,0,0,1-1.66-.12,5.48,5.48,0,0,1-1.52-.43,3.18,3.18,0,0,1-1.14-.86,2.36,2.36,0,0,1-.51-1.38,1.39,1.39,0,0,1,0-.32.71.71,0,0,1,.21-.33,1.26,1.26,0,0,1,.49-.27,2.72,2.72,0,0,1,.89-.11,3.56,3.56,0,0,1,1.05.11,1.36,1.36,0,0,1,.54.27.82.82,0,0,1,.23.34,2.55,2.55,0,0,0,.11.33.56.56,0,0,0,.37.35,2.42,2.42,0,0,0,.75.1,1.11,1.11,0,0,0,.69-.2,1.37,1.37,0,0,0,.38-.48,1.88,1.88,0,0,0,.16-.56,3.06,3.06,0,0,0,0-.47v-2.63a3.28,3.28,0,0,1-.3.7,2.57,2.57,0,0,1-.5.64,2.25,2.25,0,0,1-.73.45,2.59,2.59,0,0,1-1,.18,4.15,4.15,0,0,1-1.29-.21,3.07,3.07,0,0,1-1.17-.7,3.54,3.54,0,0,1-.85-1.28,5.19,5.19,0,0,1-.33-2V325a5.09,5.09,0,0,1,.33-1.95,3.54,3.54,0,0,1,.85-1.28,3.1,3.1,0,0,1,1.17-.71,4.15,4.15,0,0,1,1.29-.21,2.59,2.59,0,0,1,1,.18,2.48,2.48,0,0,1,.73.47,2.36,2.36,0,0,1,.5.63,3.44,3.44,0,0,1,.3.69,4.21,4.21,0,0,1,0-.57,1.84,1.84,0,0,1,.21-.65,1.45,1.45,0,0,1,.54-.53,1.94,1.94,0,0,1,1-.22,1.86,1.86,0,0,1,1,.23,1.37,1.37,0,0,1,.52.6,2.31,2.31,0,0,1,.21.85c0,.32,0,.64,0,1Zm-6.09-4.78c0,.2,0,.41,0,.61a1.59,1.59,0,0,0,.13.55.89.89,0,0,0,.31.38.94.94,0,0,0,.57.15,1.05,1.05,0,0,0,.75-.29,2.15,2.15,0,0,0,.45-.73,3.71,3.71,0,0,0,.23-.9,5.39,5.39,0,0,0,.07-.85c0-.59,0-1.11-.08-1.54a4.15,4.15,0,0,0-.23-1.09,1.39,1.39,0,0,0-.45-.63,1.22,1.22,0,0,0-.74-.21.94.94,0,0,0-.57.15.92.92,0,0,0-.31.39,1.64,1.64,0,0,0-.13.55c0,.21,0,.41,0,.62Z"/><path class="cls-10" d="M175.28,323.53c0-.33,0-.65,0-1a2.31,2.31,0,0,1,.21-.85,1.4,1.4,0,0,1,.53-.6,1.8,1.8,0,0,1,1-.23,1.92,1.92,0,0,1,1,.22,1.45,1.45,0,0,1,.54.53,1.67,1.67,0,0,1,.22.65c0,.22,0,.41,0,.57a3.44,3.44,0,0,1,.3-.69,2.14,2.14,0,0,1,.49-.63,2.46,2.46,0,0,1,1.74-.65,4.15,4.15,0,0,1,1.29.21,3.06,3.06,0,0,1,1.16.71,3.66,3.66,0,0,1,.84,1.28A5.3,5.3,0,0,1,185,325v3.4a5.32,5.32,0,0,1-.32,2,3.75,3.75,0,0,1-.84,1.28,3.17,3.17,0,0,1-1.16.7,4.15,4.15,0,0,1-1.29.21,2.55,2.55,0,0,1-1-.18,2.51,2.51,0,0,1-.74-.46,2.14,2.14,0,0,1-.49-.63,3.51,3.51,0,0,1-.3-.7v4a8,8,0,0,1-.06,1,2.41,2.41,0,0,1-.23.85,1.38,1.38,0,0,1-.55.6,1.81,1.81,0,0,1-1,.23,1.74,1.74,0,0,1-.94-.23,1.47,1.47,0,0,1-.53-.6,2.41,2.41,0,0,1-.23-.85,8,8,0,0,1-.06-1Zm6.1,1.8c0-.21,0-.41,0-.62a1.64,1.64,0,0,0-.12-.55,1,1,0,0,0-.31-.39,1,1,0,0,0-.57-.15,1.23,1.23,0,0,0-.75.21,1.39,1.39,0,0,0-.45.63,4.59,4.59,0,0,0-.23,1.09c0,.43-.07.95-.07,1.54a6.77,6.77,0,0,0,.06.85,3.71,3.71,0,0,0,.23.9,1.94,1.94,0,0,0,.46.71,1,1,0,0,0,.75.28,1,1,0,0,0,.57-.14,1,1,0,0,0,.31-.38,1.53,1.53,0,0,0,.12-.54,5.88,5.88,0,0,0,0-.6Z"/><path class="cls-10" d="M187.1,325.29a5,5,0,0,1,.29-1.83,3.94,3.94,0,0,1,.76-1.25,3.38,3.38,0,0,1,1-.79,5.3,5.3,0,0,1,1.12-.42,6.86,6.86,0,0,1,1-.18l.75,0,.73,0a6.74,6.74,0,0,1,1,.18,4.94,4.94,0,0,1,1.07.42,3.23,3.23,0,0,1,1,.79,4.07,4.07,0,0,1,.72,1.25,5.18,5.18,0,0,1,.28,1.83v2.9a5.18,5.18,0,0,1-.28,1.83,4.25,4.25,0,0,1-.72,1.26,3.35,3.35,0,0,1-1,.78,5.51,5.51,0,0,1-2.08.6l-.73,0-.75,0a5,5,0,0,1-1-.18,5.3,5.3,0,0,1-1.12-.42,3.51,3.51,0,0,1-1-.78,4.11,4.11,0,0,1-.76-1.26,5,5,0,0,1-.29-1.83Zm3.61,3.72a1.17,1.17,0,0,0,.16.6,1.22,1.22,0,0,0,.4.42,1.48,1.48,0,0,0,.8.18,1.32,1.32,0,0,0,.75-.18,1.11,1.11,0,0,0,.39-.42,1.4,1.4,0,0,0,.17-.6v-4.24a1.68,1.68,0,0,0-.17-.64,1.32,1.32,0,0,0-.39-.44,1.18,1.18,0,0,0-.75-.21,1.31,1.31,0,0,0-.8.21,1.48,1.48,0,0,0-.4.44,1.38,1.38,0,0,0-.16.64Z"/><path class="cls-10" d="M209.1,329.93a7.94,7.94,0,0,1,0,1,2.55,2.55,0,0,1-.26.86,1.44,1.44,0,0,1-.55.6,1.79,1.79,0,0,1-1,.23,1.73,1.73,0,0,1-.95-.23,1.42,1.42,0,0,1-.54-.6,2.33,2.33,0,0,1-.24-.86,7.94,7.94,0,0,1-.05-1v-4.57c0-.22,0-.44,0-.65a1.77,1.77,0,0,0-.14-.55.92.92,0,0,0-.31-.39.93.93,0,0,0-.56-.15,1,1,0,0,0-.77.32,2.23,2.23,0,0,0-.46.87,5.63,5.63,0,0,0-.23,1.29c0,.5-.06,1-.06,1.6v2.23a7.93,7.93,0,0,1-.06,1,2.54,2.54,0,0,1-.25.86,1.51,1.51,0,0,1-.55.6,1.81,1.81,0,0,1-1,.23,1.76,1.76,0,0,1-1-.23,1.56,1.56,0,0,1-.54-.6,2.79,2.79,0,0,1-.24-.86c0-.32,0-.65,0-1v-6.4c0-.34,0-.66,0-1a2.21,2.21,0,0,1,.21-.84,1.34,1.34,0,0,1,.53-.6,1.87,1.87,0,0,1,1-.23,1.92,1.92,0,0,1,1,.22,1.62,1.62,0,0,1,.55.52,1.68,1.68,0,0,1,.22.64,4.84,4.84,0,0,1,.05.59,2.9,2.9,0,0,1,.29-.69,2.61,2.61,0,0,1,.51-.63,2.51,2.51,0,0,1,1.76-.65,4.13,4.13,0,0,1,1.28.21,3,3,0,0,1,1.16.71,3.4,3.4,0,0,1,.84,1.28,5.21,5.21,0,0,1,.32,2Z"/><path class="cls-10" d="M221.27,333a4.84,4.84,0,0,1-.29,1.78,3.68,3.68,0,0,1-.73,1.21,3.5,3.5,0,0,1-1,.75,5.39,5.39,0,0,1-1.07.4,5.32,5.32,0,0,1-.95.17l-.66,0a11.59,11.59,0,0,1-1.66-.12,5.48,5.48,0,0,1-1.52-.43,3.18,3.18,0,0,1-1.14-.86,2.36,2.36,0,0,1-.51-1.38,1.39,1.39,0,0,1,.05-.32.71.71,0,0,1,.21-.33,1.19,1.19,0,0,1,.49-.27,2.72,2.72,0,0,1,.89-.11,3.61,3.61,0,0,1,1.05.11,1.36,1.36,0,0,1,.54.27.71.71,0,0,1,.22.34l.12.33a.57.57,0,0,0,.36.35,2.54,2.54,0,0,0,.76.1,1.11,1.11,0,0,0,.69-.2,1.37,1.37,0,0,0,.38-.48,1.88,1.88,0,0,0,.16-.56c0-.19,0-.35,0-.47v-2.63a3.28,3.28,0,0,1-.3.7,2.57,2.57,0,0,1-.5.64,2.25,2.25,0,0,1-.73.45,2.6,2.6,0,0,1-1,.18,4.13,4.13,0,0,1-1.28-.21,3.07,3.07,0,0,1-1.17-.7,3.54,3.54,0,0,1-.85-1.28,5.19,5.19,0,0,1-.33-2V325a5.09,5.09,0,0,1,.33-1.95,3.54,3.54,0,0,1,.85-1.28,3.1,3.1,0,0,1,1.17-.71,4.13,4.13,0,0,1,1.28-.21,2.6,2.6,0,0,1,1,.18,2.48,2.48,0,0,1,.73.47,2.36,2.36,0,0,1,.5.63,3.44,3.44,0,0,1,.3.69,4.21,4.21,0,0,1,0-.57,1.66,1.66,0,0,1,.21-.65,1.45,1.45,0,0,1,.54-.53,1.94,1.94,0,0,1,1-.22,1.86,1.86,0,0,1,1,.23,1.37,1.37,0,0,1,.52.6,2.31,2.31,0,0,1,.21.85c0,.32,0,.64,0,1Zm-6.1-4.78c0,.2,0,.41,0,.61a1.59,1.59,0,0,0,.13.55.89.89,0,0,0,.31.38.92.92,0,0,0,.57.15,1.05,1.05,0,0,0,.75-.29,2.15,2.15,0,0,0,.45-.73,3.71,3.71,0,0,0,.23-.9,6.92,6.92,0,0,0,.07-.85c0-.59,0-1.11-.08-1.54a4.15,4.15,0,0,0-.23-1.09,1.39,1.39,0,0,0-.45-.63,1.22,1.22,0,0,0-.74-.21.86.86,0,0,0-.88.54,1.64,1.64,0,0,0-.13.55c0,.21,0,.41,0,.62Z"/></g><g id="Layer_5" data-name="Layer 5"><path class="cls-10" d="M70.29,110.5a7.31,7.31,0,0,1,1.27-1.84,5.45,5.45,0,0,1,1.4-1,4,4,0,0,1,1.41-.43,5.43,5.43,0,0,1,1.34,0,6.34,6.34,0,0,1,1.16.3,8,8,0,0,1,.9.39,2.69,2.69,0,0,1,.36.22,1,1,0,0,1,.34.4,1.29,1.29,0,0,1,.1.68,2.8,2.8,0,0,1-.35,1,5,5,0,0,1-.29.51,2.26,2.26,0,0,1-.45.53,1.56,1.56,0,0,1-.56.34.88.88,0,0,1-.68-.08,8.07,8.07,0,0,0-1-.45,2.43,2.43,0,0,0-.88-.15,1.26,1.26,0,0,0-.73.25,1.93,1.93,0,0,0-.58.71,1.38,1.38,0,0,0-.19.9,1.49,1.49,0,0,0,.26.64,1.85,1.85,0,0,0,.59.51l6.61,3.39a2.45,2.45,0,0,0,.89.25,1.75,1.75,0,0,0,.76-.12,1.26,1.26,0,0,0,.65-.66,1.58,1.58,0,0,0,.21-.9,1.63,1.63,0,0,0-.3-.78,3.14,3.14,0,0,0-.66-.65,7.32,7.32,0,0,0-.91-.55,1.12,1.12,0,0,1-.29-.21.72.72,0,0,1-.19-.4,1.82,1.82,0,0,1,0-.67,4.49,4.49,0,0,1,.41-1,3.07,3.07,0,0,1,.64-.9,1.48,1.48,0,0,1,.58-.32.74.74,0,0,1,.44,0l.24.09a5.8,5.8,0,0,1,1.85,1.44,4.73,4.73,0,0,1,1,1.87,5.42,5.42,0,0,1,.1,2.17,7.69,7.69,0,0,1-.78,2.31,5.73,5.73,0,0,1-.34.6A6.52,6.52,0,0,1,83,120.57a3.86,3.86,0,0,1-1.27.62,4.33,4.33,0,0,1-1.59.12,5.24,5.24,0,0,1-1.92-.61l-5.82-3a5.49,5.49,0,0,1-1.4-1,4.4,4.4,0,0,1-.86-1.13,3.91,3.91,0,0,1-.42-1.2,5.88,5.88,0,0,1-.09-1.17A7.31,7.31,0,0,1,70.29,110.5Z"/><path class="cls-10" d="M78.64,101.64a9,9,0,0,1-.76-.59,2.61,2.61,0,0,1-.54-.68,1.49,1.49,0,0,1-.17-.78,1.85,1.85,0,0,1,.37-.9,1.78,1.78,0,0,1,.73-.66,1.53,1.53,0,0,1,.79-.1,2.48,2.48,0,0,1,.81.29,7.93,7.93,0,0,1,.82.51l9.14,6.43a9.12,9.12,0,0,1,.76.6,2.5,2.5,0,0,1,.56.68,1.4,1.4,0,0,1,.17.78,1.71,1.71,0,0,1-.37.91,1.75,1.75,0,0,1-.73.65,1.43,1.43,0,0,1-.79.1,2.58,2.58,0,0,1-.83-.29,7.93,7.93,0,0,1-.82-.51Z"/><path class="cls-10" d="M86.11,90.73A1.74,1.74,0,0,1,86.82,92a1.85,1.85,0,0,1-.52,1.28,1.87,1.87,0,0,1-1.19.71,1.8,1.8,0,0,1-1.33-.52,1.77,1.77,0,0,1-.72-1.25,1.85,1.85,0,0,1,.54-1.26,1.81,1.81,0,0,1,1.19-.74A1.79,1.79,0,0,1,86.11,90.73ZM88,97.06c-.25-.22-.48-.44-.7-.67a2.56,2.56,0,0,1-.48-.73,1.66,1.66,0,0,1-.1-.8,1.75,1.75,0,0,1,.45-.86,1.64,1.64,0,0,1,.79-.57,1.49,1.49,0,0,1,.81,0,2.66,2.66,0,0,1,.79.36c.26.18.51.38.76.59l4.9,4.23a8.9,8.9,0,0,1,.7.67,2.71,2.71,0,0,1,.48.73,1.56,1.56,0,0,1,.1.8,1.87,1.87,0,0,1-.46.86,1.85,1.85,0,0,1-.79.58,1.55,1.55,0,0,1-.8,0,2.56,2.56,0,0,1-.79-.37c-.26-.18-.52-.38-.77-.59Z"/><path class="cls-10" d="M103.24,85.29a3.89,3.89,0,0,1,.28.35.93.93,0,0,1,.18.48,1.34,1.34,0,0,1-.11.62,2.27,2.27,0,0,1-.61.76l-3.49,3.1.74.84a2.78,2.78,0,0,0,.44.39,1.68,1.68,0,0,0,.56.26,1.26,1.26,0,0,0,.61,0,1.31,1.31,0,0,0,.63-.34,2,2,0,0,0,.47-.56,1.23,1.23,0,0,0,.11-.47,3.25,3.25,0,0,0,0-.44,1.46,1.46,0,0,1,0-.47,1.66,1.66,0,0,1,.23-.56,3,3,0,0,1,.64-.72,3,3,0,0,1,.45-.34,1.38,1.38,0,0,1,.48-.19.91.91,0,0,1,.49,0,1.21,1.21,0,0,1,.49.36,1.79,1.79,0,0,1,.49,1.27,3.52,3.52,0,0,1-.37,1.41,6.28,6.28,0,0,1-.89,1.37,10.14,10.14,0,0,1-1.1,1.15,7.65,7.65,0,0,1-1.55,1,4.19,4.19,0,0,1-1.66.47,3.61,3.61,0,0,1-1.69-.3,4.55,4.55,0,0,1-1.66-1.26l-1.81-2a5.56,5.56,0,0,1-1.06-1.59,4.13,4.13,0,0,1-.34-1.41,3.06,3.06,0,0,1,.18-1.23,4.3,4.3,0,0,1,.51-1,6.21,6.21,0,0,1,.65-.81c.23-.24.43-.43.61-.59a8.72,8.72,0,0,1,1.65-1.18,5.33,5.33,0,0,1,1.41-.52,3,3,0,0,1,1.19,0,3.68,3.68,0,0,1,1,.36,4.59,4.59,0,0,1,.79.58c.24.22.45.44.64.65Zm-4.92,4,2.19-1.94c-.24-.28-.46-.51-.67-.72a1.86,1.86,0,0,0-.61-.42,1,1,0,0,0-.64,0,2,2,0,0,0-.76.48,1.51,1.51,0,0,0-.46.61,1.11,1.11,0,0,0-.06.56,1.13,1.13,0,0,0,.19.48,3.22,3.22,0,0,0,.28.37Z"/><path class="cls-10" d="M118.31,80.13a9.27,9.27,0,0,1,.47.87,2.56,2.56,0,0,1,.23.86,1.47,1.47,0,0,1-.15.8,1.75,1.75,0,0,1-.7.71,1.69,1.69,0,0,1-.93.3,1.48,1.48,0,0,1-.77-.23,2.64,2.64,0,0,1-.66-.6c-.2-.26-.38-.53-.56-.81l-2.4-3.89c-.12-.19-.24-.36-.36-.53a2,2,0,0,0-.41-.41,1,1,0,0,0-.47-.16.9.9,0,0,0-.55.17,1,1,0,0,0-.49.67,2.1,2.1,0,0,0,.06,1,6.15,6.15,0,0,0,.49,1.23c.22.44.49.9.79,1.39l1.17,1.89a9.13,9.13,0,0,1,.46.87,2.37,2.37,0,0,1,.24.86,1.57,1.57,0,0,1-.15.8,1.81,1.81,0,0,1-.7.71,1.77,1.77,0,0,1-.93.3,1.54,1.54,0,0,1-.78-.23,2.61,2.61,0,0,1-.65-.6,9,9,0,0,1-.56-.81l-3.37-5.45c-.17-.28-.33-.57-.48-.85a2.22,2.22,0,0,1-.26-.83,1.33,1.33,0,0,1,.14-.78,1.81,1.81,0,0,1,.73-.73,2,2,0,0,1,1-.34,1.58,1.58,0,0,1,.74.16,1.7,1.7,0,0,1,.53.43,3.77,3.77,0,0,1,.35.47,2.86,2.86,0,0,1-.12-.74,2.51,2.51,0,0,1,.11-.81,2.2,2.2,0,0,1,.39-.78,2.44,2.44,0,0,1,.76-.69,4.41,4.41,0,0,1,1.2-.5,3.12,3.12,0,0,1,1.36,0,3.6,3.6,0,0,1,1.39.66,5.34,5.34,0,0,1,1.31,1.5Z"/><path class="cls-10" d="M121,68.91,120.19,67a8.23,8.23,0,0,1-.32-.91,2.41,2.41,0,0,1-.1-.87,1.49,1.49,0,0,1,.27-.75,1.72,1.72,0,0,1,.79-.58,1.62,1.62,0,0,1,1-.14,1.5,1.5,0,0,1,.72.34,2.69,2.69,0,0,1,.53.69c.15.28.29.56.42.87l.79,1.9.88-.36a5.71,5.71,0,0,1,.58-.21,1.23,1.23,0,0,1,.57,0,1.17,1.17,0,0,1,.52.24,1.8,1.8,0,0,1,.43.67,1.85,1.85,0,0,1,.16.76,1.07,1.07,0,0,1-.2.54,1.59,1.59,0,0,1-.43.38,5.6,5.6,0,0,1-.55.27l-.89.36,1.57,3.79c.06.15.12.3.2.46a1.35,1.35,0,0,0,.3.4.91.91,0,0,0,1,.13,3.59,3.59,0,0,1,.69-.22,1.11,1.11,0,0,1,.55,0,1,1,0,0,1,.44.31,2.62,2.62,0,0,1,.37.66,1.51,1.51,0,0,1,.11.83,1.94,1.94,0,0,1-.32.74,2.62,2.62,0,0,1-.66.62,4.21,4.21,0,0,1-.89.48,5,5,0,0,1-1.38.39,2.78,2.78,0,0,1-1.1-.09,2.32,2.32,0,0,1-.87-.48,3.66,3.66,0,0,1-.7-.8,9.71,9.71,0,0,1-.6-1.07c-.18-.39-.36-.81-.54-1.25l-1.48-3.58-.61.26c-.19.07-.38.14-.57.19a1.34,1.34,0,0,1-.56,0,1,1,0,0,1-.52-.24,1.66,1.66,0,0,1-.42-.65,1.69,1.69,0,0,1-.17-.78,1.16,1.16,0,0,1,.19-.54,1.53,1.53,0,0,1,.43-.36,5.45,5.45,0,0,1,.55-.25Z"/><path class="cls-10" d="M186.52,51.4a2.2,2.2,0,0,0,1,.43,4.13,4.13,0,0,0,1.16,0A9.26,9.26,0,0,0,190,51.5l1.41-.42c.48-.13,1-.25,1.49-.34a7,7,0,0,1,1.59-.09,6.29,6.29,0,0,1,1.66.34,6.43,6.43,0,0,1,1.72.92L198,52a8,8,0,0,1,1.5,1.44,5.47,5.47,0,0,1,.83,1.41,3.92,3.92,0,0,1,.28,1.34,4.73,4.73,0,0,1-.13,1.26,5.26,5.26,0,0,1-.42,1.13,9,9,0,0,1-.58.94l-.07.09a5.41,5.41,0,0,1-1.25,1.24,4.21,4.21,0,0,1-1.3.63,4.1,4.1,0,0,1-1.29.15,5.27,5.27,0,0,1-1.22-.22,5.52,5.52,0,0,1-1.09-.44,5.89,5.89,0,0,1-.89-.56,2.43,2.43,0,0,1-.61-.64,2,2,0,0,1-.27-.67,1.5,1.5,0,0,1,0-.63,1.92,1.92,0,0,1,.29-.57,2,2,0,0,1,.47-.43,1.71,1.71,0,0,1,.64-.25,1.69,1.69,0,0,1,.74,0,2.17,2.17,0,0,1,.79.37,2.22,2.22,0,0,0,1.42.58,1.41,1.41,0,0,0,1-.62,2.34,2.34,0,0,0,.31-.58,1.15,1.15,0,0,0,0-.61,1.74,1.74,0,0,0-.31-.65,3.45,3.45,0,0,0-.72-.7,3.24,3.24,0,0,0-1.24-.6,4.92,4.92,0,0,0-1.33-.11,7.82,7.82,0,0,0-1.4.22l-1.46.36c-.49.13-1,.25-1.48.34a7.72,7.72,0,0,1-1.51.14,4.76,4.76,0,0,1-3-1l-.19-.14a8.71,8.71,0,0,1-1.83-1.81,3.9,3.9,0,0,1-.72-1.74,3.47,3.47,0,0,1,.25-1.75,7.82,7.82,0,0,1,1.07-1.82l.18-.24a5.13,5.13,0,0,1,1.34-1.28,3.89,3.89,0,0,1,1.34-.55,3.4,3.4,0,0,1,1.27,0,6.21,6.21,0,0,1,1.15.33,7.16,7.16,0,0,1,.92.48c.26.17.47.32.62.44a2.15,2.15,0,0,1,.55.58,1.86,1.86,0,0,1,.25.65,1.62,1.62,0,0,1-.32,1.28,1.16,1.16,0,0,1-.45.36,1.8,1.8,0,0,1-.58.19,1.84,1.84,0,0,1-.62,0,1.45,1.45,0,0,1-.54-.23,2.79,2.79,0,0,0-1.51-.72,1.18,1.18,0,0,0-1,.53,4.11,4.11,0,0,0-.34.51,1,1,0,0,0-.13.57,1.4,1.4,0,0,0,.25.65A3.75,3.75,0,0,0,186.52,51.4Z"/><path class="cls-10" d="M206,39.78l.37.4a1.57,1.57,0,0,1,.29.54,1.28,1.28,0,0,1,0,.7,1.86,1.86,0,0,1-.53.82l-3.27,3.32,1,1a3.72,3.72,0,0,0,.56.46,2.21,2.21,0,0,0,.66.31,1.62,1.62,0,0,0,.69.05,1.25,1.25,0,0,0,.63-.35,1.66,1.66,0,0,0,.4-.61,1.05,1.05,0,0,0,0-.52,2.27,2.27,0,0,0-.12-.5,2.09,2.09,0,0,1-.09-.52,1.53,1.53,0,0,1,.14-.62,2.81,2.81,0,0,1,.57-.78,2.54,2.54,0,0,1,.45-.36,1.3,1.3,0,0,1,.49-.2,1.2,1.2,0,0,1,.55.07,1.76,1.76,0,0,1,.61.42,2.5,2.5,0,0,1,.77,1.44,3.61,3.61,0,0,1-.13,1.56,6.12,6.12,0,0,1-.73,1.5,8.62,8.62,0,0,1-1,1.24,6.15,6.15,0,0,1-1.51,1.1,4.1,4.1,0,0,1-1.75.46,4.49,4.49,0,0,1-1.93-.4,6.82,6.82,0,0,1-2.06-1.48l-2.4-2.36a8.8,8.8,0,0,1-1.46-1.82,5.61,5.61,0,0,1-.65-1.6,3.54,3.54,0,0,1,0-1.37,3.89,3.89,0,0,1,.38-1.12,4.93,4.93,0,0,1,.56-.88A6.44,6.44,0,0,1,198,39a7.08,7.08,0,0,1,1.6-1.26,4.82,4.82,0,0,1,1.47-.52,3.37,3.37,0,0,1,1.31,0,4.44,4.44,0,0,1,1.15.45,6,6,0,0,1,1,.68c.31.26.58.5.83.75ZM201.3,44,203.36,42c-.32-.32-.61-.59-.88-.82a2.57,2.57,0,0,0-.75-.5,1.1,1.1,0,0,0-.71-.06,1.74,1.74,0,0,0-.76.5,1.35,1.35,0,0,0-.39.67,1.18,1.18,0,0,0,0,.62,1.56,1.56,0,0,0,.3.55c.13.16.26.3.37.42Z"/><path class="cls-10" d="M213.4,28.51a2.5,2.5,0,0,1,.66,1.57,1.62,1.62,0,0,1-.68,1.2,2.06,2.06,0,0,0-.25.22,1.41,1.41,0,0,0-.29.38,2.05,2.05,0,0,0-.23.52,2.12,2.12,0,0,0-.05.68,2.61,2.61,0,0,0,.21.82,4.5,4.5,0,0,0,.61,1l2.55,3.23c.25.31.47.62.68.94A3.23,3.23,0,0,1,217,40a1.8,1.8,0,0,1,0,.89,1.49,1.49,0,0,1-.58.81,1.44,1.44,0,0,1-.89.36,1.66,1.66,0,0,1-.85-.24,3.35,3.35,0,0,1-.81-.64,10.66,10.66,0,0,1-.75-.87l-5-6.32c-.24-.31-.47-.63-.68-1a3.5,3.5,0,0,1-.45-.94,1.65,1.65,0,0,1,0-.88,1.5,1.5,0,0,1,.56-.79,1.24,1.24,0,0,1,.92-.31,1.79,1.79,0,0,1,.89.36,4.36,4.36,0,0,1,.85.78c.27.32.53.63.77.94l.15-.12a8,8,0,0,1-.57-1.41,5.7,5.7,0,0,1-.22-1.24,2.78,2.78,0,0,1,.12-1,1.28,1.28,0,0,1,.44-.65,1.85,1.85,0,0,1,.66-.37,1,1,0,0,1,.59,0,1.7,1.7,0,0,1,.58.38A8.36,8.36,0,0,1,213.4,28.51Z"/><path class="cls-10" d="M227.44,31.32a10.2,10.2,0,0,1,.27,1.35,2.48,2.48,0,0,1,0,.8.8.8,0,0,1-.22.43,2.72,2.72,0,0,1-.37.27,3.42,3.42,0,0,1-.42.22,1,1,0,0,1-.51,0,2.38,2.38,0,0,1-.74-.33,8.3,8.3,0,0,1-1.1-.85l-6.7-5.89c-.18-.16-.36-.34-.55-.54a3.13,3.13,0,0,1-.48-.62,3.21,3.21,0,0,1-.34-.73,1.81,1.81,0,0,1-.11-.72,1.45,1.45,0,0,1,.2-.66,1.59,1.59,0,0,1,.57-.55,1.19,1.19,0,0,1,.61-.17,2.06,2.06,0,0,1,.66.14,3.46,3.46,0,0,1,.67.37,3.87,3.87,0,0,1,.62.53l3.85,3.78.16-.1L221.79,23a4.12,4.12,0,0,1-.18-.75,2.81,2.81,0,0,1,0-.76,1.9,1.9,0,0,1,.18-.68,1.29,1.29,0,0,1,.49-.52A1.34,1.34,0,0,1,223,20a1.51,1.51,0,0,1,.65.15,2.06,2.06,0,0,1,.59.45,3.74,3.74,0,0,1,.48.63A3.89,3.89,0,0,1,225,22a6.25,6.25,0,0,1,.21.74Z"/><path class="cls-10" d="M240.25,18.64a4.69,4.69,0,0,1,.19.51,1.25,1.25,0,0,1,.06.61,1.27,1.27,0,0,1-.27.64,1.82,1.82,0,0,1-.81.56l-4.29,1.81.53,1.27a4,4,0,0,0,.35.64,2.31,2.31,0,0,0,.49.54,1.45,1.45,0,0,0,.61.3,1.08,1.08,0,0,0,.72-.08,1.61,1.61,0,0,0,.61-.4,1.24,1.24,0,0,0,.24-.47,4,4,0,0,0,.07-.5,1.63,1.63,0,0,1,.12-.52,1.52,1.52,0,0,1,.37-.52,2.71,2.71,0,0,1,.82-.5,3.5,3.5,0,0,1,.55-.17,1.35,1.35,0,0,1,.53,0,1.19,1.19,0,0,1,.48.28,1.67,1.67,0,0,1,.41.62,2.5,2.5,0,0,1,.16,1.62,3.49,3.49,0,0,1-.72,1.39,5.81,5.81,0,0,1-1.25,1.11,9.28,9.28,0,0,1-1.4.76,6.28,6.28,0,0,1-1.82.44,4,4,0,0,1-1.79-.25,4.31,4.31,0,0,1-1.63-1.11,6.78,6.78,0,0,1-1.34-2.15L230.93,22a8.44,8.44,0,0,1-.66-2.24,5.43,5.43,0,0,1,0-1.72,3.42,3.42,0,0,1,.49-1.28,4,4,0,0,1,.78-.9,4.62,4.62,0,0,1,.86-.6q.44-.22.75-.36a7,7,0,0,1,2-.55,4.57,4.57,0,0,1,1.55.08,3.32,3.32,0,0,1,1.19.54,4.57,4.57,0,0,1,.9.85,6,6,0,0,1,.65,1c.18.35.34.69.48,1Zm-6,2.14,2.7-1.14c-.18-.41-.34-.78-.5-1.09a2.64,2.64,0,0,0-.5-.75,1.17,1.17,0,0,0-.64-.33,1.74,1.74,0,0,0-.88.17,1.34,1.34,0,0,0-.63.47,1.3,1.3,0,0,0-.2.59,1.85,1.85,0,0,0,.07.62,4,4,0,0,0,.19.53Z"/><path class="cls-10" d="M252.37,11.13a2.48,2.48,0,0,1-.05,1.71,1.62,1.62,0,0,1-1.12.81l-.31.1a2,2,0,0,0-.43.22,2.12,2.12,0,0,0-.41.39,1.81,1.81,0,0,0-.34.58,3,3,0,0,0-.14.85,5,5,0,0,0,.15,1.13l1,4c.1.38.17.76.23,1.13a3.25,3.25,0,0,1,0,1,1.83,1.83,0,0,1-.35.82,1.51,1.51,0,0,1-.86.49,1.4,1.4,0,0,1-1,0,1.68,1.68,0,0,1-.68-.57,3.25,3.25,0,0,1-.47-.91c-.12-.36-.23-.72-.33-1.11l-1.94-7.82c-.1-.39-.17-.77-.23-1.15a3.66,3.66,0,0,1,0-1,1.73,1.73,0,0,1,.34-.82,1.47,1.47,0,0,1,.83-.48,1.21,1.21,0,0,1,1,.09,1.94,1.94,0,0,1,.66.7,4.9,4.9,0,0,1,.45,1.06c.11.4.22.79.31,1.17l.19,0a7.46,7.46,0,0,1,.07-1.52,4.82,4.82,0,0,1,.31-1.22,2.78,2.78,0,0,1,.51-.85,1.4,1.4,0,0,1,.67-.42,2.05,2.05,0,0,1,.75-.06,1,1,0,0,1,.53.26,1.72,1.72,0,0,1,.38.59A7.24,7.24,0,0,1,252.37,11.13Z"/><path class="cls-10" d="M257.07,5.65c-.05-.4-.08-.79-.09-1.18a3.76,3.76,0,0,1,.12-1,1.71,1.71,0,0,1,.46-.78,1.56,1.56,0,0,1,.91-.38,1.51,1.51,0,0,1,1,.16,1.76,1.76,0,0,1,.62.65,4,4,0,0,1,.35,1c.08.38.14.77.19,1.17l1.6,13.64c0,.4.07.79.08,1.18a3.92,3.92,0,0,1-.11,1.06,1.78,1.78,0,0,1-.45.78,1.53,1.53,0,0,1-.92.39,1.48,1.48,0,0,1-1-.17,1.65,1.65,0,0,1-.62-.66,3.36,3.36,0,0,1-.36-1,11,11,0,0,1-.19-1.17Z"/><path class="cls-10" d="M277.78,13.81c0,.15,0,.33,0,.54a1.36,1.36,0,0,1-.21.58,1.3,1.3,0,0,1-.51.47,1.93,1.93,0,0,1-1,.16l-4.66-.18-.05,1.38a3.62,3.62,0,0,0,0,.73,2.71,2.71,0,0,0,.21.7,1.51,1.51,0,0,0,.44.53,1.16,1.16,0,0,0,.68.23,1.6,1.6,0,0,0,.72-.11,1.22,1.22,0,0,0,.41-.32,2.12,2.12,0,0,0,.28-.43,1.86,1.86,0,0,1,.33-.41,1.54,1.54,0,0,1,.55-.32,2.66,2.66,0,0,1,1-.1,2.12,2.12,0,0,1,.57.08,1.08,1.08,0,0,1,.8.68,1.77,1.77,0,0,1,.1.73,2.46,2.46,0,0,1-.54,1.55,3.55,3.55,0,0,1-1.24.95,5.69,5.69,0,0,1-1.6.47,8.08,8.08,0,0,1-1.59.1,6.21,6.21,0,0,1-1.84-.37,4.23,4.23,0,0,1-1.52-1,4.52,4.52,0,0,1-1-1.7,7.06,7.06,0,0,1-.3-2.51l.13-3.37a8.5,8.5,0,0,1,.35-2.3A5.66,5.66,0,0,1,269,9a3.54,3.54,0,0,1,1-.95,4.17,4.17,0,0,1,1.09-.48,3.92,3.92,0,0,1,1-.18,8.06,8.06,0,0,1,.84,0,7,7,0,0,1,2,.33,4.77,4.77,0,0,1,1.37.73,3.37,3.37,0,0,1,.86,1,4.9,4.9,0,0,1,.45,1.15,6.7,6.7,0,0,1,.16,1.18c0,.4,0,.77,0,1.12Zm-6.31-.58,2.93.11c0-.45,0-.85,0-1.2a2.91,2.91,0,0,0-.15-.9,1.11,1.11,0,0,0-.43-.56,1.75,1.75,0,0,0-.88-.22,1.3,1.3,0,0,0-.76.16,1.26,1.26,0,0,0-.44.45,1.7,1.7,0,0,0-.19.59,4.3,4.3,0,0,0-.06.56Z"/><path class="cls-10" d="M287.84,13.1a.94.94,0,0,0,0,.55,2,2,0,0,0,.3.55,6.13,6.13,0,0,0,.5.56l.61.58c.32.31.65.63,1,1a5.69,5.69,0,0,1,.86,1.14,4.37,4.37,0,0,1,.52,1.37,4,4,0,0,1-.06,1.68,5.15,5.15,0,0,1-.53,1.45,4,4,0,0,1-.78,1,3.14,3.14,0,0,1-.95.61,4.29,4.29,0,0,1-1,.29,5.29,5.29,0,0,1-1.05,0,5.69,5.69,0,0,1-1-.13,5.88,5.88,0,0,1-1.49-.53,4,4,0,0,1-1-.73,3.28,3.28,0,0,1-.62-.86,3.51,3.51,0,0,1-.29-.92,3.8,3.8,0,0,1-.06-.88,4.56,4.56,0,0,1,.11-.79,1.76,1.76,0,0,1,.65-1.15,1.63,1.63,0,0,1,1.26-.13,1.29,1.29,0,0,1,.86.59,1.83,1.83,0,0,1,.11,1.31.83.83,0,0,0,0,.48.88.88,0,0,0,.24.34,1.28,1.28,0,0,0,.39.24,3.66,3.66,0,0,0,.44.13,1,1,0,0,0,.79-.13,1.06,1.06,0,0,0,.45-.68,1.58,1.58,0,0,0,0-.78,2.55,2.55,0,0,0-.35-.75,6.39,6.39,0,0,0-.58-.73L286.5,17c-.29-.3-.59-.61-.88-.94a6,6,0,0,1-.75-1.06,3.86,3.86,0,0,1-.45-1.2,3.23,3.23,0,0,1,0-1.38,5.19,5.19,0,0,1,.7-1.77,2.89,2.89,0,0,1,1.12-1,3.46,3.46,0,0,1,1.51-.35,9.39,9.39,0,0,1,1.89.18l.18,0a5.87,5.87,0,0,1,1.53.55,3.62,3.62,0,0,1,1,.76,2.68,2.68,0,0,1,.52.86,3.46,3.46,0,0,1,.18.87,3,3,0,0,1,0,.8,5.12,5.12,0,0,1-.11.62,1.44,1.44,0,0,1-.3.67,1.14,1.14,0,0,1-.47.35,1.58,1.58,0,0,1-.58.11,4.81,4.81,0,0,1-.64-.07,1.08,1.08,0,0,1-.47-.22,1.4,1.4,0,0,1-.32-.37,1.12,1.12,0,0,1-.16-.43,1,1,0,0,1,0-.43,1.1,1.1,0,0,0-.16-.89,1.2,1.2,0,0,0-.73-.46,1.29,1.29,0,0,0-.39,0,.74.74,0,0,0-.35.1.68.68,0,0,0-.3.26A1.17,1.17,0,0,0,287.84,13.1Z"/><path class="cls-10" d="M301.9,17.31a.94.94,0,0,0,0,.55,1.83,1.83,0,0,0,.21.59,5.89,5.89,0,0,0,.4.63l.51.67.82,1.12a6.41,6.41,0,0,1,.67,1.27,4.85,4.85,0,0,1,.29,1.44,3.9,3.9,0,0,1-.33,1.64,5.07,5.07,0,0,1-.75,1.35,4.38,4.38,0,0,1-.93.86,3.47,3.47,0,0,1-1,.45,4.32,4.32,0,0,1-1.07.11,4.56,4.56,0,0,1-1-.13,5.66,5.66,0,0,1-.93-.28,5.82,5.82,0,0,1-1.39-.76,4.37,4.37,0,0,1-.89-.88,3.11,3.11,0,0,1-.47-1,3.52,3.52,0,0,1-.14-.95,3.69,3.69,0,0,1,.08-.89,4.43,4.43,0,0,1,.23-.75,1.73,1.73,0,0,1,.83-1,1.59,1.59,0,0,1,1.27.07,1.28,1.28,0,0,1,.75.71,1.86,1.86,0,0,1-.1,1.31.83.83,0,0,0,0,.48.81.81,0,0,0,.19.38,1.19,1.19,0,0,0,.34.29,3.07,3.07,0,0,0,.41.2,1,1,0,0,0,.8,0,1,1,0,0,0,.55-.61,1.6,1.6,0,0,0,.11-.78,2.65,2.65,0,0,0-.24-.79,5.46,5.46,0,0,0-.45-.81L300,21c-.24-.35-.48-.71-.71-1.08a6.61,6.61,0,0,1-.58-1.16,3.82,3.82,0,0,1-.25-1.26,3.23,3.23,0,0,1,.25-1.36,4.92,4.92,0,0,1,1-1.63,2.87,2.87,0,0,1,1.27-.82,3.41,3.41,0,0,1,1.54-.1,9.3,9.3,0,0,1,1.84.48l.17.07a5.65,5.65,0,0,1,1.42.79,3.43,3.43,0,0,1,.83.89,2.81,2.81,0,0,1,.38.93,3.44,3.44,0,0,1,0,.9,3.17,3.17,0,0,1-.15.78c-.07.24-.14.44-.2.6a1.58,1.58,0,0,1-.4.61,1.17,1.17,0,0,1-.53.27,1.46,1.46,0,0,1-.59,0,3.78,3.78,0,0,1-.62-.16,1.19,1.19,0,0,1-.43-.3,1.36,1.36,0,0,1-.26-.41,1.17,1.17,0,0,1-.09-.45,1.08,1.08,0,0,1,.08-.42,1.1,1.1,0,0,0,0-.91,1.31,1.31,0,0,0-1-.66.78.78,0,0,0-.37,0,1,1,0,0,0-.34.21A1.34,1.34,0,0,0,301.9,17.31Z"/><path class="cls-10" d="M333.29,24.61a6,6,0,0,1,1.33,1.49,4.42,4.42,0,0,1,.63,1.78,4.77,4.77,0,0,1-.18,2,6.38,6.38,0,0,1-1.13,2,4.5,4.5,0,0,1-.88.87,5.32,5.32,0,0,1-.92.55,3.77,3.77,0,0,1-.88.29,6.35,6.35,0,0,1-.77.12h-.59a1.6,1.6,0,0,1-.33,0,3.79,3.79,0,0,1,.64,2.38,4.26,4.26,0,0,1-.18,1,5.29,5.29,0,0,1-.38.9,6,6,0,0,1-.44.72l-.36.49a8.52,8.52,0,0,1-1.41,1.41,6.42,6.42,0,0,1-1.39.79,4.69,4.69,0,0,1-1.31.31,5.17,5.17,0,0,1-1.19,0,5.88,5.88,0,0,1-2.49-1l-3-2.39a1.64,1.64,0,0,1-.63-.87,1.5,1.5,0,0,1,.05-.91,3.85,3.85,0,0,1,.51-1c.23-.32.48-.64.74-1l8.46-10.6c.26-.32.52-.63.78-.92a3.44,3.44,0,0,1,.81-.7,1.47,1.47,0,0,1,1.85.17ZM325,32.46l-3.38,4.23,1.34,1.07a1.88,1.88,0,0,0,1,.37,2,2,0,0,0,.48,0,2,2,0,0,0,.53-.17,2.46,2.46,0,0,0,.58-.37,3.48,3.48,0,0,0,.6-.61,4.67,4.67,0,0,0,.51-.78,3.44,3.44,0,0,0,.25-.69,2.12,2.12,0,0,0,.05-.6,1.8,1.8,0,0,0-.08-.5,2.18,2.18,0,0,0-.58-.93Zm5-6.2-3.06,3.82L328,31a2,2,0,0,0,.89.34,2.1,2.1,0,0,0,.43,0,2.54,2.54,0,0,0,.48-.14,2.29,2.29,0,0,0,.52-.32,3.51,3.51,0,0,0,.53-.55,3.39,3.39,0,0,0,.47-.72,2.55,2.55,0,0,0,.23-.63,2,2,0,0,0,0-.54,1.83,1.83,0,0,0-.61-1.32Z"/><path class="cls-10" d="M337,51.62c-.29.28-.59.53-.9.78a3.51,3.51,0,0,1-.91.55,1.66,1.66,0,0,1-.9.11,1.49,1.49,0,0,1-.87-.54,1.51,1.51,0,0,1-.37-1.75,2.24,2.24,0,0,1,.44-.7,6.23,6.23,0,0,1,.49-.51,4.14,4.14,0,0,1-.83.35,2.86,2.86,0,0,1-.91.16,2.38,2.38,0,0,1-.91-.15,2.12,2.12,0,0,1-.84-.59,3.38,3.38,0,0,1-.68-1.13,2.82,2.82,0,0,1-.15-1.43,4.63,4.63,0,0,1,.59-1.69,8,8,0,0,1,1.55-1.85l3.08-2.83a7.9,7.9,0,0,1,2-1.39,4.6,4.6,0,0,1,1.72-.44,3.07,3.07,0,0,1,1.41.28,3.54,3.54,0,0,1,1.07.77,2.25,2.25,0,0,1,.51.89,2.2,2.2,0,0,1,.08.92,3.16,3.16,0,0,1-.23.89,4.71,4.71,0,0,1-.44.8,3.91,3.91,0,0,1,1-.68,2,2,0,0,1,.85-.2,1.39,1.39,0,0,1,.68.16,2.2,2.2,0,0,1,.51.4,1.47,1.47,0,0,1,.42.88,1.76,1.76,0,0,1-.18.89,3.59,3.59,0,0,1-.61.88c-.27.3-.56.58-.86.86Zm-2.48-6c-.19.18-.38.36-.55.54a2.53,2.53,0,0,0-.41.55,1.17,1.17,0,0,0-.15.55.83.83,0,0,0,.26.54,1.05,1.05,0,0,0,.68.38,1.6,1.6,0,0,0,.88-.19,6.38,6.38,0,0,0,1.13-.73c.42-.33.91-.74,1.46-1.23a8.6,8.6,0,0,0,.71-.74,5.59,5.59,0,0,0,.66-.92,2.53,2.53,0,0,0,.34-.92.9.9,0,0,0-.24-.8.83.83,0,0,0-.52-.3,1.08,1.08,0,0,0-.55.09,2.2,2.2,0,0,0-.57.35c-.19.15-.38.31-.56.48Z"/><path class="cls-10" d="M343.3,57.18l-.46.36a3,3,0,0,0-.47.53,1.68,1.68,0,0,0-.26.65,1,1,0,0,0,.19.7,2,2,0,0,0,.58.58,1,1,0,0,0,.58.13,1.52,1.52,0,0,0,.58-.19c.2-.11.4-.24.61-.38a1.81,1.81,0,0,1,.37-.2,1,1,0,0,1,.51,0,1.46,1.46,0,0,1,.63.29,3.45,3.45,0,0,1,.72.8,2.16,2.16,0,0,1,.41.89,1.32,1.32,0,0,1-.05.64,1,1,0,0,1-.3.43,3,3,0,0,1-.31.24,5.29,5.29,0,0,1-1.46.74,4.34,4.34,0,0,1-1.34.19,4.13,4.13,0,0,1-1.22-.24,5.15,5.15,0,0,1-1.06-.57,6.07,6.07,0,0,1-.9-.78,8.05,8.05,0,0,1-.71-.88,5.5,5.5,0,0,1-.78-1.64,4.24,4.24,0,0,1-.1-1.81,4.78,4.78,0,0,1,.75-1.84A6.31,6.31,0,0,1,341.57,54l2.77-1.92A8.39,8.39,0,0,1,346.39,51a5.43,5.43,0,0,1,1.69-.35,3.54,3.54,0,0,1,1.35.22,4.15,4.15,0,0,1,1,.57,4.88,4.88,0,0,1,.77.72l.51.66a6.41,6.41,0,0,1,.86,1.62,5,5,0,0,1,.3,1.43,3.55,3.55,0,0,1-.15,1.24,3.94,3.94,0,0,1-.47,1,5.67,5.67,0,0,1-.68.84,5.85,5.85,0,0,1-.75.62,3.94,3.94,0,0,1-.45.29,1.37,1.37,0,0,1-.59.19,1.33,1.33,0,0,1-.68-.13,1.87,1.87,0,0,1-.71-.68,4.94,4.94,0,0,1-.3-.47,1.88,1.88,0,0,1-.25-.62,1.39,1.39,0,0,1,0-.67,1.18,1.18,0,0,1,.51-.63,5.64,5.64,0,0,0,.53-.4,1.35,1.35,0,0,0,.37-.47,1,1,0,0,0,.08-.57,1.71,1.71,0,0,0-.33-.75,1.19,1.19,0,0,0-.54-.46,1,1,0,0,0-.57-.07,1.72,1.72,0,0,0-.54.18,4.45,4.45,0,0,0-.45.27Z"/><path class="cls-10" d="M360,61c.36-.19.71-.36,1.06-.52a3.46,3.46,0,0,1,1-.3,1.57,1.57,0,0,1,.87.1,1.38,1.38,0,0,1,.68.69,1.43,1.43,0,0,1,.2,1,1.58,1.58,0,0,1-.4.78,3.91,3.91,0,0,1-.81.65c-.33.2-.67.39-1,.58l-5,2.66.09.17,4.21.5a1.25,1.25,0,0,1,.62.22,1.43,1.43,0,0,1,.39.46,1.39,1.39,0,0,1,.16.58,1.61,1.61,0,0,1-.1.65,1.79,1.79,0,0,1-.36.62,2.14,2.14,0,0,1-.63.5,1.9,1.9,0,0,1-1.1.21l-3.68-.43-3.68,4.55a9.71,9.71,0,0,1-.75.81,3.39,3.39,0,0,1-.81.6,1.79,1.79,0,0,1-.8.24,1.73,1.73,0,0,1-.73-.09,1.85,1.85,0,0,1-.59-.35,1.74,1.74,0,0,1-.41-.5,1.13,1.13,0,0,1-.12-.72,2.29,2.29,0,0,1,.26-.73,3.78,3.78,0,0,1,.45-.7,6.61,6.61,0,0,1,.5-.6l2.41-2.76-.31-.58-2.14,1.13c-.35.19-.71.36-1.06.53a4,4,0,0,1-1,.31,1.58,1.58,0,0,1-.87-.09,1.73,1.73,0,0,1-.88-1.66,1.64,1.64,0,0,1,.41-.78,3.48,3.48,0,0,1,.82-.66c.33-.21.68-.4,1-.59Z"/><path class="cls-10" d="M362.16,86.56l-.51.18a1.44,1.44,0,0,1-.62.05,1.28,1.28,0,0,1-.63-.29,1.85,1.85,0,0,1-.54-.81l-1.73-4.34-1.28.51a4.87,4.87,0,0,0-.64.33,2.62,2.62,0,0,0-.56.48,1.47,1.47,0,0,0-.31.61,1.08,1.08,0,0,0,.07.72,1.5,1.5,0,0,0,.39.62,1.2,1.2,0,0,0,.46.24,4,4,0,0,0,.5.09,1.73,1.73,0,0,1,.52.13,1.49,1.49,0,0,1,.51.37,2.66,2.66,0,0,1,.48.84,2.81,2.81,0,0,1,.15.55,1.06,1.06,0,0,1,0,.53,1.08,1.08,0,0,1-.28.48,1.7,1.7,0,0,1-.63.39,2.49,2.49,0,0,1-1.62.13,3.72,3.72,0,0,1-1.38-.75,6,6,0,0,1-1.08-1.27,9.14,9.14,0,0,1-.73-1.42,6.33,6.33,0,0,1-.4-1.83,4.06,4.06,0,0,1,.28-1.79,4.56,4.56,0,0,1,1.14-1.6,7,7,0,0,1,2.18-1.3L359,77.17a8.68,8.68,0,0,1,2.25-.61,5.42,5.42,0,0,1,1.73,0,3.52,3.52,0,0,1,1.26.52,4.06,4.06,0,0,1,.89.8,4.32,4.32,0,0,1,.57.87,8,8,0,0,1,.86,2.74,4.52,4.52,0,0,1-.11,1.55,3.32,3.32,0,0,1-.57,1.18,4.84,4.84,0,0,1-.87.88,6.66,6.66,0,0,1-1,.63c-.36.17-.69.33-1,.45Zm-2-6,1.08,2.73,1.11-.47a3.12,3.12,0,0,0,.76-.49,1.14,1.14,0,0,0,.33-.63,1.71,1.71,0,0,0-.15-.89,1.4,1.4,0,0,0-.45-.64,1.27,1.27,0,0,0-.59-.21,1.64,1.64,0,0,0-.62.06,4.15,4.15,0,0,0-.53.17Z"/><path class="cls-10" d="M361.58,102.13a10.43,10.43,0,0,1-1.18.26,3.63,3.63,0,0,1-1.08,0,1.88,1.88,0,0,1-.86-.34,1.52,1.52,0,0,1-.53-.86,1.57,1.57,0,0,1,0-1,1.71,1.71,0,0,1,.58-.71,3.18,3.18,0,0,1,1-.51c.37-.14.75-.26,1.15-.37l5.42-1.48.75-.23a2.84,2.84,0,0,0,.63-.31,1.15,1.15,0,0,0,.37-.43.81.81,0,0,0,0-.58.92.92,0,0,0-.58-.65,3,3,0,0,0-1.15-.16,9.2,9.2,0,0,0-1.59.19c-.6.13-1.24.28-1.91.46l-2.64.72a10.43,10.43,0,0,1-1.18.26,3.63,3.63,0,0,1-1.08,0,1.88,1.88,0,0,1-.86-.34,1.77,1.77,0,0,1-.51-1.85,1.77,1.77,0,0,1,.58-.71,3.71,3.71,0,0,1,.95-.51c.37-.14.75-.26,1.15-.37l7.58-2.07c.4-.1.79-.2,1.17-.28a3.5,3.5,0,0,1,1.05-.07,1.72,1.72,0,0,1,.85.32,1.63,1.63,0,0,1,.54.9,1.75,1.75,0,0,1,0,1,1.72,1.72,0,0,1-.48.69,2.21,2.21,0,0,1-.7.43,6.43,6.43,0,0,1-.69.24,3.47,3.47,0,0,1,.9.06,3.08,3.08,0,0,1,.89.28,2.67,2.67,0,0,1,.74.57,2.18,2.18,0,0,1,.48.92,3.55,3.55,0,0,1,.09,1.31,3,3,0,0,1-.53,1.34,4.6,4.6,0,0,1-1.31,1.23,8,8,0,0,1-2.24,1Z"/><path class="cls-10" d="M364,115.9l-1.18.15a3.35,3.35,0,0,1-1.06,0,1.82,1.82,0,0,1-.82-.41,1.56,1.56,0,0,1-.43-.93,1.68,1.68,0,0,1,.11-1,1.66,1.66,0,0,1,.56-.64,2.55,2.55,0,0,1,.75-.34q.41-.1.69-.15a5.08,5.08,0,0,1-.89-.16,3.16,3.16,0,0,1-.84-.37,2.74,2.74,0,0,1-.68-.64,2.08,2.08,0,0,1-.37-1,3.43,3.43,0,0,1,.05-1.31,3,3,0,0,1,.67-1.28,4.71,4.71,0,0,1,1.43-1.08,7.88,7.88,0,0,1,2.32-.69l4.12-.65a7.77,7.77,0,0,1,2.43-.06,4.43,4.43,0,0,1,1.68.59,2.93,2.93,0,0,1,1,1,3.49,3.49,0,0,1,.46,1.23,2.14,2.14,0,0,1-.06,1,2.4,2.4,0,0,1-.44.82,3.35,3.35,0,0,1-.69.61,5.25,5.25,0,0,1-.81.43l4.86-.77c.41-.06.82-.11,1.21-.14a4.12,4.12,0,0,1,1.08.07,1.66,1.66,0,0,1,.81.42,1.59,1.59,0,0,1,.43.92,1.51,1.51,0,0,1-.13,1,1.74,1.74,0,0,1-.65.64,3.66,3.66,0,0,1-1,.4,11.39,11.39,0,0,1-1.19.24Zm1.24-6.36c-.26,0-.5.08-.75.14a2.49,2.49,0,0,0-.65.23,1,1,0,0,0-.42.38.87.87,0,0,0-.1.59,1.09,1.09,0,0,0,.37.7,1.7,1.7,0,0,0,.84.32,5.81,5.81,0,0,0,1.34,0c.53,0,1.17-.11,1.9-.22a8.41,8.41,0,0,0,1-.22,5.81,5.81,0,0,0,1.06-.4,2.55,2.55,0,0,0,.79-.59.89.89,0,0,0,.24-.79.87.87,0,0,0-.27-.54,1.14,1.14,0,0,0-.51-.23,2.36,2.36,0,0,0-.66,0l-.74.09Z"/><text></text></g><g id="Layer_6" data-name="Layer 6"><rect x="16.24" y="382.46" width="54.33" height="54.33" rx="2" ry="2"/><path class="cls-11" d="M149.33,439.37a25.15,25.15,0,1,1,24.94-25.15A25.06,25.06,0,0,1,149.33,439.37Zm0-49A23.89,23.89,0,1,0,173,414.22a23.81,23.81,0,0,0-23.68-23.89Z"/><g class="cls-12"><path class="cls-13" d="M177.15,450.3s.41,5.49-1.09,6.61a2.63,2.63,0,0,1-2.43,2.26s-.48,1.27-2.68.62-4.08-7.08-4.08-7.08S173.52,447.07,177.15,450.3Z"/><path class="cls-14" d="M157.54,422.75s17.67,2.85,19.61,27.55a15.81,15.81,0,0,1-6.73,2.24s.3-19-12.88-29.79Z"/><path class="cls-15" d="M174.93,439.41a18.4,18.4,0,0,1-6.18,1.61l.32,1.22a30.16,30.16,0,0,0,6.24-1.74l-.38-1.09Zm-7.06-1.22c.13.41.28.79.39,1.2a21.62,21.62,0,0,0,6.07-1.52c-.17-.38-.32-.77-.49-1.13a20.84,20.84,0,0,1-6,1.45Zm9.28,12.11a47.69,47.69,0,0,0-.89-6.25,16.16,16.16,0,0,1-6.38,2.23,39.75,39.75,0,0,1,.56,6.26,15.8,15.8,0,0,0,6.71-2.24Z"/><circle class="cls-13" cx="139.32" cy="404.04" r="3.79"/><circle class="cls-13" cx="139.32" cy="404.04" r="3.79"/><path class="cls-13" d="M135.54,404a1.88,1.88,0,0,0,0,.34,3.31,3.31,0,0,0,.85-.47c1.8-1.15,1.84-2.52,1.46-3.38A3.85,3.85,0,0,0,135.54,404Z"/><circle class="cls-13" cx="137.38" cy="404.04" r="1.84"/><path class="cls-16" d="M137.38,402.22a.82.82,0,0,0-.22,0,1.94,1.94,0,0,1,0,3.64l.22,0a1.84,1.84,0,0,0,1.84-1.84A1.87,1.87,0,0,0,137.38,402.22Z"/><path class="cls-13" d="M137.14,402.24l-.17,0a1.67,1.67,0,0,0-1.43,1.84A1.83,1.83,0,0,1,137.14,402.24Zm-1.6,1.8a1.68,1.68,0,0,0,1.43,1.84.5.5,0,0,0,.17,0A1.83,1.83,0,0,1,135.54,404Z"/><circle class="cls-13" cx="161.5" cy="404.04" r="3.79"/><circle class="cls-13" cx="161.5" cy="404.04" r="3.79"/><circle class="cls-13" cx="163.45" cy="404.04" r="1.84"/><path class="cls-16" d="M162.4,404a1.73,1.73,0,0,1,1.26-1.82l-.21,0a1.84,1.84,0,1,0,0,3.68.75.75,0,0,0,.21,0A1.73,1.73,0,0,1,162.4,404Z"/><path class="cls-13" d="M165.28,404a1.68,1.68,0,0,0-1.43-1.84.5.5,0,0,0-.17,0A1.86,1.86,0,0,1,165.28,404Zm-1.6,1.82.17,0a1.67,1.67,0,0,0,1.43-1.84A1.83,1.83,0,0,1,163.68,405.86Zm-34.94.62s3.61.47,3.14-3.15c0,0,1.26,2,4.08.15s1.33-4.17.56-4.23-1.88-.94-4.64,1.88l-1.56-3.61,1.79-2.36s.26,3.41,2.87,2.44.66-6.76-1.69-6.76l-4.23,2.44s.79-2.2,4.23-4c0,0,1.33-.79.56-2.75s-8.26-.56-9.43,9a3.88,3.88,0,0,1-1-3.23c.3-2-3.85-1.41-3.06,2.82a6.61,6.61,0,0,0,4.88,5.11,5.76,5.76,0,0,1,.38,4.8s1.58,2,3.15,1.43Zm7.22-3c2.83-1.79,1.33-4.17.56-4.23a3.44,3.44,0,0,0-2.12,0l.92,1.9s-.19,2.72-3.23,2a1.27,1.27,0,0,1-.1.28C132.33,403.87,133.59,405,136,403.48Zm-4.06.11c-.47.84-2.09,2.46-6,.45a5.86,5.86,0,0,1-.28,1s1.56,2,3.15,1.41C128.74,406.48,132.18,406.93,131.9,403.59Zm.21-8.43s.26,3.41,2.87,2.44c1.07-.38,1.37-1.6,1.2-2.88-.66.68-2.67,2.39-3.47-1.24l-3.59,4.19-2.84,1.64,3.55-.89,2.07,2.69-1.56-3.61,1.77-2.34Zm-2.45-2.9a10.1,10.1,0,0,1,3.65-3s1.33-.79.56-2.76c0,0,0-.06,0-.1a3.42,3.42,0,0,1-1.27,1.79c-1.45,1-6.65,4.62-5,10.08a6.77,6.77,0,0,1,2.1-6Zm-5.31,3.23a3.78,3.78,0,0,1-.94-3.15c.13-.77-.45-1.15-1.13-1.07-.15,2.1.15,6.38,4.3,7.59a4.87,4.87,0,0,1-2.23-3.37Z"/><path class="cls-14" d="M125.59,405.07l3.15,1.41s-2.83,15.55,11.93,16.19c0,0,.11,10-9,9.83C131.67,432.5,119.63,422.92,125.59,405.07Z"/><path class="cls-15" d="M129.36,414.93c-.05-.15-.09-.28-.13-.43a11.53,11.53,0,0,1-5.26,1.15l.06,1a12,12,0,0,0,5.54-1.22v0a4,4,0,0,1-.15-.45l-.06-.06Zm1,2.22c-.06-.13-.15-.26-.21-.39a14.6,14.6,0,0,1-6,1.31c0,.38.11.77.17,1.13a12.52,12.52,0,0,0,6.27-1.62v0c-.09-.13-.15-.26-.24-.39v0Zm-4.77-12.08a30,30,0,0,0-1.49,6.5,5.73,5.73,0,0,0,4.46-.64,18.64,18.64,0,0,1,.18-4.45l-3.15-1.41Z"/><path class="cls-14" d="M130.17,445l19.25,24.81s.74.28,1.07-.11V445Zm40.48,0-19.24,24.81s-.75.28-1.07-.11V445Zm-11.37-22.69H141.57c-18.86,8.28-14.48,39.52-14.48,39.52h23.44V447.5l1.3,14.28h21.9s4.41-31.24-14.45-39.52Z"/><path class="cls-13" d="M166.87,452.74s1.88,6.43,4.08,7.07,2.68-.62,2.68-.62a2.31,2.31,0,0,0,1.43-.51,71.45,71.45,0,0,0,0-9.32c-3.64-.49-8.19,3.38-8.19,3.38Z"/><path class="cls-17" d="M175.17,451.32c-.26-6.71-1.61-15.33-6.14-21.81a22.32,22.32,0,0,0-11.49-6.76c13.18,10.78,12.88,29.79,12.88,29.79A13.79,13.79,0,0,0,175.17,451.32Z"/><path class="cls-15" d="M127.84,441.72a8.71,8.71,0,0,0-.17.86c5.21-1.93,13.45-3.17,22.73-3.17s17.54,1.24,22.73,3.17c-.06-.28-.1-.58-.17-.86-5.22-1.88-13.39-3.1-22.56-3.1S133.06,439.84,127.84,441.72Zm1-4c-.09.25-.15.51-.24.77,5.24-1.74,13-2.83,21.77-2.83s16.53,1.09,21.77,2.83c-.08-.26-.15-.52-.23-.77C166.72,436.08,159,435,150.42,435s-16.32,1.07-21.53,2.74Zm7.31-12.09a18.57,18.57,0,0,0-3.59,11.55l1.09-.49a19,19,0,0,1,3.76-12.08q-.65.48-1.26,1Zm27.16-1a18.88,18.88,0,0,1,3.76,12.08l1.09.49a18.75,18.75,0,0,0-3.59-11.55c-.4-.36-.83-.7-1.26-1ZM150.53,447.5l1.3,14.28h21.9a65.34,65.34,0,0,0-.66-19.54l-1.11-.37c1.84,5,1,18.59,1,18.59H153l-1.88-21.07h-1.52l-.19,21.07h-21.3a77.76,77.76,0,0,1,.53-18.55l-.9.26a65,65,0,0,0-.66,19.61h23.44V447.5Z"/><path class="cls-13" d="M160.22,421.6a15.73,15.73,0,0,1-10,3.42c-7.36,0-9.64-3.42-9.64-3.42l-1.31-24h22.2Zm0,0a15.73,15.73,0,0,1-10,3.42c-7.36,0-9.64-3.42-9.64-3.42l-1.31-24h22.2Zm0,0a15.73,15.73,0,0,1-10,3.42c-7.36,0-9.64-3.42-9.64-3.42l-1.31-24h22.2Z"/><path class="cls-18" d="M153.22,401.71l.56-.71a10.83,10.83,0,0,1,5.07,1.54,5.63,5.63,0,0,0-5.56-1.81l.1-.6-.94,1.54a10.66,10.66,0,0,1,0,3.57h-4a11,11,0,0,1,0-3.57l-.94-1.54.11.6a5.61,5.61,0,0,0-5.56,1.81,10.75,10.75,0,0,1,5.07-1.54l.55.71a4.62,4.62,0,0,1-3.59,2.31,3.59,3.59,0,0,0,3.61-1.37,13.33,13.33,0,0,0,.13,3l2.65,1.88,0,0,0,0,2.65-1.88a13.33,13.33,0,0,0,.13-3,3.59,3.59,0,0,0,3.61,1.37A4.63,4.63,0,0,1,153.22,401.71Z"/><ellipse class="cls-14" cx="150.4" cy="409.47" rx="3.64" ry="2.18"/><path class="cls-15" d="M150.4,411.76a5.37,5.37,0,0,0,2.2-.56,3,3,0,0,0-2.2-.77,3.16,3.16,0,0,0-2.2.77A5.45,5.45,0,0,0,150.4,411.76Z"/><path class="cls-8" d="M150.4,407.29c-2,0-3.64,1-3.64,2.18a.4.4,0,0,0,0,.19H154c0-.06,0-.12,0-.19C154.06,408.27,152.43,407.29,150.4,407.29Z"/><path class="cls-19" d="M150.4,413.07a5.26,5.26,0,0,1-2-.37,2.53,2.53,0,0,0,2,1,2.56,2.56,0,0,0,2-1A5.26,5.26,0,0,1,150.4,413.07Zm0,6.5A9.56,9.56,0,0,1,147,419a4.3,4.3,0,0,0,3.42,1.66,4.36,4.36,0,0,0,3.42-1.66A9.48,9.48,0,0,1,150.4,419.57Z"/><path class="cls-20" d="M139.51,401.56h21.78l.21-3.94H139.3Z"/><path class="cls-14" d="M161.56,397.6l1.95-11.27s-2.93-5.77-13-5.77c-12.27,0-13.17,5.77-13.17,5.77l2,11.27Z"/><path class="cls-15" d="M138.42,392.77l.84,4.83h22.3l.84-4.83Z"/><path class="cls-14" d="M164.92,400.3h-29l-.9-2.7h30.84Z"/><circle class="cls-14" cx="150.4" cy="394.33" r="3.59"/><path class="cls-15" d="M150.4,397.47a3.14,3.14,0,1,1,3.14-3.14A3.11,3.11,0,0,1,150.4,397.47Zm0-5.88a2.74,2.74,0,1,0,2.74,2.74,2.73,2.73,0,0,0-2.74-2.74Zm0,5a2.27,2.27,0,1,1,2.27-2.27A2.27,2.27,0,0,1,150.4,396.6Zm0-4.26a2,2,0,1,0,2,2,2,2,0,0,0-2-2Zm.58,1.18,1-.75-.79,1,1.24-.32-1.09.67,1.26.15-1.26.21,1.16.6-1.24-.26.83,1L151,395.1l.43,1.2-.75-1,0,1.29-.32-1.25-.49,1.18.13-1.26-.88.92.58-1.13-1.16.53,1-.86-1.28.09,1.2-.45-1.22-.38,1.28,0-1-.79,1.17.47-.64-1.09.92.87-.21-1.26.55,1.16.26-1.24.11,1.28.7-1.07Z"/><path class="cls-14" d="M151.08,394.33a.68.68,0,1,1-.68-.68A.68.68,0,0,1,151.08,394.33Z"/><path class="cls-15" d="M150.25,425c-7.36,0-9.64-3.42-9.64-3.42l.25,4.88s2.2,3.33,9.39,3.33a15.26,15.26,0,0,0,9.69-3.33l.28-4.9A15.85,15.85,0,0,1,150.25,425Z"/><path class="cls-14" d="M150.4,429.75a9.41,9.41,0,0,0,.28-2.33,9.14,9.14,0,0,0-.28-2.34,9.44,9.44,0,0,0-.28,2.34A9.23,9.23,0,0,0,150.4,429.75Z"/><circle class="cls-17" cx="152.15" cy="427.56" r="0.66"/><circle class="cls-8" cx="152" cy="427.42" r="0.66"/><path class="cls-21" d="M152.8,434.13H148a1.38,1.38,0,0,0-1.37,1.37v3.4a1.38,1.38,0,0,0,1.37,1.37h4.77a1.38,1.38,0,0,0,1.36-1.37v-3.4A1.36,1.36,0,0,0,152.8,434.13Zm-.37,1.9v2.33a.26.26,0,0,1-.25.26h-3.53a.26.26,0,0,1-.26-.26V436a.26.26,0,0,1,.26-.25h3.53A.25.25,0,0,1,152.43,436Z"/><path class="cls-19" d="M147.77,405.67l2.63,1.86,0,0,0,0,2.63-1.86Z"/><path class="cls-22" d="M150.4,407.12s-2.22-2.65-7.44-1.35l-7.89,7.77a10.64,10.64,0,0,0,7.29,1.54C146.81,414.5,150.44,409.75,150.4,407.12Zm0,0s2.22-2.65,7.44-1.35,7.89,7.77,7.89,7.77a10.64,10.64,0,0,1-7.29,1.54C154,414.5,150.38,409.75,150.4,407.12Z"/><path class="cls-15" d="M161.22,429.79h.47l-.83,1-.81-1h.47v-.45h-1.76v.45h.69l1.15,1.43v.9h-.68v.45h1.84v-.45h-.69v-.9l1.16-1.43h.68v-.45h-1.75Z"/></g><g id="Page-1"><g id="jwt_logo" data-name="jwt logo"><g id="Group"><g id="Shape"><path class="cls-8" d="M46.51,400.13l0-11.05H40.3l.05,11.05,3.08,4.24Z"/><path class="cls-8" d="M40.35,419.08v11.1h6.16v-11.1l-3.08-4.23Z"/><path class="cls-23" d="M46.51,419.08,53,428l5-3.62-6.5-9-5-1.6Z"/><path class="cls-23" d="M40.35,400.13l-6.54-9-5,3.62,6.49,9,5,1.6Z"/><path class="cls-24" d="M35.33,403.75l-10.52-3.41-1.89,5.83,10.52,3.46,5-1.65Z"/><path class="cls-24" d="M48.4,411.23l3.08,4.23L62,418.87,63.9,413l-10.53-3.41Z"/><path class="cls-25" d="M53.37,409.63l10.53-3.46L62,400.34l-10.53,3.41L48.4,408Z"/><path class="cls-25" d="M33.44,409.63,22.92,413l1.89,5.83,10.52-3.41,3.08-4.23Z"/><path class="cls-26" d="M35.33,415.46l-6.49,9,5,3.62,6.54-9v-5.22Z"/><path class="cls-26" d="M51.48,403.75l6.5-9-5-3.62-6.49,9v5.22Z"/></g></g></g></g><path class="cls-27" d="M251.54,385.73a4.12,4.12,0,0,1,4,0l18.26,10.32a3.75,3.75,0,0,1,1.9,3.23V420a3.83,3.83,0,0,1-2,3.31l-18.2,10.26a4,4,0,0,1-4-.11L246,430.28a3.33,3.33,0,0,1-1.05-.76c.23-.32.65-.35,1-.49a12.48,12.48,0,0,0,2.16-1,.5.5,0,0,1,.56,0c1.55.89,3.09,1.81,4.65,2.69.34.19.67-.06,1-.22q8.93-5.05,17.86-10.08a.61.61,0,0,0,.33-.58V399.39a.64.64,0,0,0-.38-.64q-9.07-5.1-18.13-10.22a.63.63,0,0,0-.72,0l-18.12,10.22a.64.64,0,0,0-.39.64v20.48a.57.57,0,0,0,.33.57l4.84,2.74a3.76,3.76,0,0,0,3,.4,2.32,2.32,0,0,0,1.49-2.16c0-6.78,0-13.57,0-20.35a.53.53,0,0,1,.56-.53c.77,0,1.55,0,2.33,0a.53.53,0,0,1,.5.62q0,10.24,0,20.48a5.2,5.2,0,0,1-2.43,4.69,7.47,7.47,0,0,1-6.69-.18c-1.77-.89-3.46-1.93-5.21-2.88a3.78,3.78,0,0,1-2-3.31V399.28a3.76,3.76,0,0,1,2-3.28Z"/><path class="cls-27" d="M256.83,400.06c2.65-.17,5.48-.1,7.86,1.21a6,6,0,0,1,2.9,5.14.56.56,0,0,1-.61.41c-.76,0-1.53,0-2.3,0-.32,0-.51-.29-.55-.57a3.57,3.57,0,0,0-1.68-2.43,10,10,0,0,0-4.6-.65,6.15,6.15,0,0,0-3.29.82,2.08,2.08,0,0,0-.7,2.33c.25.58.92.77,1.48.95,3.19.83,6.56.75,9.69,1.84a4.57,4.57,0,0,1,3,2.68,5.7,5.7,0,0,1-1,5.44,7.63,7.63,0,0,1-4.1,2.21,19.73,19.73,0,0,1-6.18.26,9.69,9.69,0,0,1-5.44-2,5.69,5.69,0,0,1-1.84-4.51.51.51,0,0,1,.56-.45h2.32a.54.54,0,0,1,.55.54,3.54,3.54,0,0,0,1.31,2.46c1.57,1,3.54.95,5.34,1,1.49-.06,3.16-.08,4.38-1.07a2.43,2.43,0,0,0,.66-2.31,2.06,2.06,0,0,0-1.52-1.2c-3.14-1-6.56-.64-9.68-1.76a4.72,4.72,0,0,1-3-2.6,5.29,5.29,0,0,1,1.06-5.52,8.6,8.6,0,0,1,5.31-2.14Z"/><path id="path951" class="cls-28" d="M367.07,383.18v46.35l-40.47-6,40.47,13.63,13.5-5.61V389.63h0v-.83Z"/><path id="path887" class="cls-28" d="M352.91,391.08l-12.4,12.25-7.46-5.62-3.08,1,7.6,7.5-7.6,7.51,3.08,1,7.46-5.62h0l12.4,12.25,7.42-3.16v-24Zm0,8.74v12.85l-8.53-6.43Z"/><path class="cls-29" d="M323.3,422.52l-1.38-1.36a.65.65,0,0,0-.92,0,.66.66,0,0,0,0,.94l1.56,1.47c.13.12.29.1.47.1h1.28a8.41,8.41,0,0,0-1.73,3.87h-2.23a.68.68,0,0,0-.65.69.67.67,0,0,0,.65.68h2.13a6.84,6.84,0,0,0,.81,3.2h-.48a.69.69,0,0,0-.46.22l-1.57,1.59a.67.67,0,0,0,.46,1.13.62.62,0,0,0,.46-.19l1.38-1.38h1.06a7.62,7.62,0,0,0,5.37,2.75V422.52Z"/><path class="cls-29" d="M339.58,427.54H337.3a10.13,10.13,0,0,0-1.86-3.87h1.46c.17,0,.34,0,.46-.1l1.57-1.52a.62.62,0,0,0,0-.9.64.64,0,0,0-.92,0l-1.38,1.37h-6.21v13.7a8.53,8.53,0,0,0,5.33-2.74h1.1l1.37,1.38a.66.66,0,0,0,.47.19.63.63,0,0,0,.46-.19.65.65,0,0,0,0-.93l-1.57-1.6a.69.69,0,0,0-.46-.22h-.5a6.84,6.84,0,0,0,.81-3.2h2.15a.67.67,0,0,0,.65-.68A.68.68,0,0,0,339.58,427.54Z"/><path class="cls-29" d="M325.73,421.61h8.47a4.06,4.06,0,0,0-2-3.55l.86-.84a.65.65,0,1,0-.93-.91l-1.24,1.24a4.11,4.11,0,0,0-1.89,0l-1.24-1.24a.67.67,0,0,0-.93,0,.66.66,0,0,0,0,.93l.86.82A4.06,4.06,0,0,0,325.73,421.61Z"/></g></g></svg>